<svg xmlns="http://www.w3.org/2000/svg">
<defs>
<font id="GTPressura" horiz-adv-x="1054" >
  <font-face 
    font-family="GT Pressura"
    font-weight="400"
    font-stretch="normal"
    units-per-em="2048"
    panose-1="2 0 5 6 2 0 0 2 0 4"
    ascent="1638"
    descent="-410"
    x-height="1024"
    cap-height="1434"
    bbox="-357.759 -510.006 1909 2181"
    underline-thickness="102"
    underline-position="-102"
    unicode-range="U+0020-U+FB04"
  />
<missing-glyph horiz-adv-x="1126" 
d="M37 590c0 19.333 6.50098 37.5 19.501 54.5s28.833 25.5 47.5 25.5c13.333 0 23.166 -3.83301 29.499 -11.5s15.166 -11.5 26.499 -11.5c20.667 0 35 10.333 43 31s12 37.667 12 51c0 16.667 -3.33301 33.5 -10 50.5s-10 33.5 -10 49.5
c0 27.333 7.83301 46.833 23.5 58.5s34.834 17.5 57.501 17.5c12 0 18.333 5.66699 19 17c0 6.66699 -2.66699 13.667 -8 21s-8 16.666 -8 27.999c0 6.66699 3.66699 13 11 19s14.333 9 21 9c10.667 0 19.5 -3.66699 26.5 -11s13.333 -15.5 19 -24.5
s11.5 -17.167 17.5 -24.5s13.667 -11 23 -11c16.667 0 27 5.83301 31 17.5s7.33301 24.667 10 39s7.5 27.166 14.5 38.499s22.167 17 45.5 17c22 0 38 -5 48 -15s19.167 -21.167 27.5 -33.5s17.5 -23.666 27.5 -33.999s24.667 -15.5 44 -15.5
c28.667 0 47.834 7.83301 57.501 23.5s14.5 40.5 14.5 74.5c0 38 10.167 65.667 30.5 83s46.166 26 77.499 26c30 0 53.667 -8.83301 71 -26.5s26 -41.5 26 -71.5c0 -22 -5.16699 -39.833 -15.5 -53.5s-21.666 -25 -33.999 -34l-34 -25.5
c-10.333 -8 -15.5 -17.667 -15.5 -29c0 -19.333 8.16699 -34.333 24.5 -45s34.833 -21.834 55.5 -33.501s39.167 -26 55.5 -43s24.5 -41.833 24.5 -74.5c0 -19.333 -3.33301 -34.833 -10 -46.5s-14.167 -21.834 -22.5 -30.501s-15.833 -18.167 -22.5 -28.5
s-10 -24.5 -10 -42.5c0 -13.333 6.33301 -25.5 19 -36.5s36.334 -16.5 71.001 -16.5c30 0 51.167 -8.83301 63.5 -26.5s18.5 -39.5 18.5 -65.5c0 -30 -10.333 -55.333 -31 -76s-46 -31 -76 -31c-16.667 0 -30 5.5 -40 16.5l-30.5 35c-10.333 12.333 -21.333 24 -33 35

<glyph glyph-name=".notdef" horiz-adv-x="1126" 
d="M37 590c0 19.333 6.50098 37.5 19.501 54.5s28.833 25.5 47.5 25.5c13.333 0 23.166 -3.83301 29.499 -11.5s15.166 -11.5 26.499 -11.5c20.667 0 35 10.333 43 31s12 37.667 12 51c0 16.667 -3.33301 33.5 -10 50.5s-10 33.5 -10 49.5
c0 27.333 7.83301 46.833 23.5 58.5s34.834 17.5 57.501 17.5c12 0 18.333 5.66699 19 17c0 6.66699 -2.66699 13.667 -8 21s-8 16.666 -8 27.999c0 6.66699 3.66699 13 11 19s14.333 9 21 9c10.667 0 19.5 -3.66699 26.5 -11s13.333 -15.5 19 -24.5
s11.5 -17.167 17.5 -24.5s13.667 -11 23 -11c16.667 0 27 5.83301 31 17.5s7.33301 24.667 10 39s7.5 27.166 14.5 38.499s22.167 17 45.5 17c22 0 38 -5 48 -15s19.167 -21.167 27.5 -33.5s17.5 -23.666 27.5 -33.999s24.667 -15.5 44 -15.5
c28.667 0 47.834 7.83301 57.501 23.5s14.5 40.5 14.5 74.5c0 38 10.167 65.667 30.5 83s46.166 26 77.499 26c30 0 53.667 -8.83301 71 -26.5s26 -41.5 26 -71.5c0 -22 -5.16699 -39.833 -15.5 -53.5s-21.666 -25 -33.999 -34l-34 -25.5
c-10.333 -8 -15.5 -17.667 -15.5 -29c0 -19.333 8.16699 -34.333 24.5 -45s34.833 -21.834 55.5 -33.501s39.167 -26 55.5 -43s24.5 -41.833 24.5 -74.5c0 -19.333 -3.33301 -34.833 -10 -46.5s-14.167 -21.834 -22.5 -30.501s-15.833 -18.167 -22.5 -28.5
s-10 -24.5 -10 -42.5c0 -13.333 6.33301 -25.5 19 -36.5s36.334 -16.5 71.001 -16.5c30 0 51.167 -8.83301 63.5 -26.5s18.5 -39.5 18.5 -65.5c0 -30 -10.333 -55.333 -31 -76s-46 -31 -76 -31c-16.667 0 -30 5.5 -40 16.5l-30.5 35c-10.333 12.333 -21.333 24 -33 35
s-26.167 16.5 -43.5 16.5c-15.333 0 -27.833 -3.83301 -37.5 -11.5s-14.5 -18.167 -14.5 -31.5c0 -10.667 2.16699 -19.167 6.5 -25.5s9.16602 -12.166 14.499 -17.499s10 -12.166 14 -20.499s6 -20.833 6 -37.5c0 -18 -5.66699 -33.667 -17 -47s-29.333 -20 -54 -20
c-12 0 -24 3 -36 9s-24.333 13.167 -37 21.5s-26.667 15.5 -42 21.5s-31.666 9 -48.999 9c-12 0 -23.833 -4.66699 -35.5 -14s-17.5 -25.666 -17.5 -48.999c0 -16.667 -4.5 -30.167 -13.5 -40.5s-21.167 -15.5 -36.5 -15.5c-12 0 -20.333 5.16699 -25 15.5l-15.5 34
c-5.66699 12.333 -13.167 23.666 -22.5 33.999s-25 15.5 -47 15.5c-19.333 0 -32.333 -6.16699 -39 -18.5s-13.167 -25.666 -19.5 -39.999s-15 -27.666 -26 -39.999s-29.167 -18.5 -54.5 -18.5c-28.667 0 -53.667 9.16699 -75 27.5s-32 39.833 -32 64.5
s4.5 43.167 13.5 55.5s18.833 24 29.5 35s20.5 24 29.5 39s13.5 38.167 13.5 69.5c0 23.333 -5.83301 42.166 -17.5 56.499s-24.834 21.5 -39.501 21.5c-16.667 0 -27.334 -2.5 -32.001 -7.5s-14.667 -7.5 -30 -7.5c-20.667 0 -36 11 -46 33s-15 46.667 -15 74z
M174.001 1065c0 19.333 5.83301 35.833 17.5 49.5s25.5 20.5 41.5 20.5c13.333 0 25 -6.83301 35 -20.5s15 -30.167 15 -49.5s-4.83301 -35.833 -14.5 -49.5s-21.5 -20.5 -35.5 -20.5c-16.667 0 -30.667 6.83301 -42 20.5s-17 30.167 -17 49.5zM365.001 696
c0 -28.667 6.33301 -52.834 19 -72.501s30.667 -29.5 54 -29.5s42.833 9.83301 58.5 29.5s23.5 43.834 23.5 72.501s-7.83301 53 -23.5 73s-35.167 30 -58.5 30s-41.333 -10 -54 -30s-19 -44.333 -19 -73zM438.001 686c0 12 2.83301 22.167 8.5 30.5s12.5 12.5 20.5 12.5
s14.833 -4 20.5 -12s8.5 -18.333 8.5 -31c0 -12 -2.83301 -22.167 -8.5 -30.5s-12.5 -12.5 -20.5 -12.5s-14.833 4.16699 -20.5 12.5s-8.5 18.5 -8.5 30.5zM463.001 506c-2.66699 -4 -1.33301 -9.66699 4 -17c10.667 -16.667 24.167 -30.667 40.5 -42s38.833 -17 67.5 -17
c27.333 0 47.5 7.83301 60.5 23.5s23.167 31.167 30.5 46.5c2.66699 6.66699 1.83398 11 -2.49902 13s-7.83301 0.333008 -10.5 -5c-16.667 -30 -42.667 -45 -78 -45c-19.333 0 -37 3.66699 -53 11s-31 17.333 -45 30c-6.66699 5.33301 -11.334 6 -14.001 2zM610.002 696
c0 -23.333 7.83301 -42.833 23.5 -58.5s35.167 -23.5 58.5 -23.5s43.833 8 61.5 24s26.5 35.333 26.5 58c0 23.333 -8.83301 45.333 -26.5 66s-38.167 31 -61.5 31s-42.833 -10.333 -58.5 -31s-23.5 -42.667 -23.5 -66zM635.002 696c0 12 2.66699 22.167 8 30.5
s12.333 12.5 21 12.5c8 0 14.667 -4 20 -12s8 -18.333 8 -31c0 -12 -2.66699 -22.167 -8 -30.5s-12 -12.5 -20 -12.5s-14.833 4.16699 -20.5 12.5s-8.5 18.5 -8.5 30.5z" />
    <glyph glyph-name="space" unicode=" " horiz-adv-x="471" 
 />
    <glyph glyph-name="exclam" unicode="!" horiz-adv-x="538" 
d="M143 41v170c0 10.667 4.16699 20.167 12.5 28.5s17.833 12.5 28.5 12.5h170c10.667 0 20.167 -4.16699 28.5 -12.5s12.5 -17.833 12.5 -28.5v-170c0 -10.667 -4 -20.167 -12 -28.5s-17.667 -12.5 -29 -12.5h-170c-10.667 0 -20.167 4.16699 -28.5 12.5
s-12.5 17.833 -12.5 28.5zM170 430v963c0 10.667 4.16699 20.167 12.5 28.5s17.833 12.5 28.5 12.5h115c10.667 0 20.167 -4.16699 28.5 -12.5s12.5 -17.833 12.5 -28.5v-963c0 -10.667 -4.16699 -20.167 -12.5 -28.5s-17.833 -12.5 -28.5 -12.5h-115
c-10.667 0 -20.167 4.16699 -28.5 12.5s-12.5 17.833 -12.5 28.5z" />
    <glyph glyph-name="quotedbl" unicode="&#x22;" horiz-adv-x="833" 
d="M90 923.5c-6.66699 15 -5.99902 30.167 2.00098 45.5l94 172c4 6.66699 3.66699 12.667 -1 18s-10.334 8 -17.001 8h-35c-10.667 0 -20.167 4.16699 -28.5 12.5s-12.5 17.833 -12.5 28.5v185c0 10.667 4.16699 20.167 12.5 28.5s17.833 12.5 28.5 12.5h184
c10.667 0 20.167 -4.16699 28.5 -12.5s12.5 -17.833 12.5 -28.5v-185c0 -27.333 -3.66699 -50.833 -11 -70.5s-17.333 -38.5 -30 -56.5l-106 -149c-4 -6.66699 -10.167 -13.5 -18.5 -20.5s-19.833 -10.5 -34.5 -10.5h-29c-19.333 0 -32.333 7.5 -39 22.5zM499.501 923.5
c-7 15 -6.16699 30.167 2.5 45.5l94 172c4 6.66699 3.66699 12.667 -1 18s-10.334 8 -17.001 8h-35c-10.667 0 -20.167 4.16699 -28.5 12.5s-12.5 17.833 -12.5 28.5v185c0 10.667 4 20.167 12 28.5s17.667 12.5 29 12.5h184c10.667 0 20.167 -4.16699 28.5 -12.5
s12.5 -17.833 12.5 -28.5v-185c0 -27.333 -3.83301 -50.833 -11.5 -70.5s-17.5 -38.5 -29.5 -56.5l-106 -149c-4 -6.66699 -10.167 -13.5 -18.5 -20.5s-20.166 -10.5 -35.499 -10.5h-28c-19.333 0 -32.5 7.5 -39.5 22.5z" />
    <glyph glyph-name="numbersign" unicode="#" horiz-adv-x="1181" 
d="M84 375l11.998 75.999c2.66699 10.667 8.83398 20.167 18.501 28.5s19.834 12.5 30.501 12.5h103c13.333 0 21.333 6.66699 24 20l66 369c2.66699 13.333 -2.66602 20 -15.999 20h-103c-10.667 0 -19.834 4.16699 -27.501 12.5s-10.167 17.833 -7.5 28.5l13 76
c2.66699 10.667 8.66699 20.167 18 28.5s19.666 12.5 30.999 12.5h102c13.333 0 21.666 6.66699 24.999 20l55 314c2.66699 10.667 8.5 20.167 17.5 28.5s18.833 12.5 29.5 12.5h86c10.667 0 19.834 -4.16699 27.501 -12.5s10.167 -17.833 7.5 -28.5l-55 -314
c-2.66699 -13.333 2.66602 -20 15.999 -20h197c13.333 0 21.333 6.66699 24 20l56 314c2.66699 10.667 8.33398 20.167 17.001 28.5s18.667 12.5 30 12.5h86c10.667 0 19.834 -4.16699 27.501 -12.5s9.83398 -17.833 6.50098 -28.5l-55 -314c-2.66699 -13.333 3 -20 17 -20
h102c10.667 0 19.5 -4.16699 26.5 -12.5s9.16699 -17.833 6.5 -28.5l-13 -76c-2.66699 -10.667 -8.33398 -20.167 -17.001 -28.5s-18.667 -12.5 -30 -12.5h-102c-13.333 0 -21.666 -6.66699 -24.999 -20l-65 -369c-2.66699 -13.333 2.66602 -20 15.999 -20h103
c10.667 0 19.334 -4.16699 26.001 -12.5s8.66699 -17.833 6 -28.5l-12 -76c-2.66699 -10.667 -8.5 -20.167 -17.5 -28.5s-18.833 -12.5 -29.5 -12.5h-102c-13.333 0 -21.666 -7 -24.999 -21l-49 -272c-2.66699 -10.667 -8.5 -20.167 -17.5 -28.5s-18.833 -12.5 -29.5 -12.5
h-86c-10.667 0 -19.834 4.16699 -27.501 12.5s-10.167 17.833 -7.5 28.5l49 272c2.66699 13.333 -2.66602 20.333 -15.999 21h-187c-6.66699 0 -13.667 -1.66699 -21 -5s-11.666 -8.66602 -12.999 -15.999l-50 -272c-2.66699 -10.667 -8.33398 -20.167 -17.001 -28.5
s-18.667 -12.5 -30 -12.5h-86c-10.667 0 -19.834 4.16699 -27.501 12.5s-10.167 17.833 -7.5 28.5l50 272c2.66699 13.333 -3 20.333 -17 21h-102c-10.667 0 -19.834 4 -27.501 12s-10.167 17.667 -7.5 29zM439.998 511.999c-2.66699 -13.333 3 -20 17 -20h196
c13.333 0 21.666 6.66699 24.999 20l65 369c2.66699 13.333 -2.66602 20 -15.999 20h-197c-13.333 0 -21.333 -6.66699 -24 -20z" />
    <glyph glyph-name="dollar" unicode="$" horiz-adv-x="1044" 
d="M61 410l-0.00292969 31.9951c0 10.667 4.16699 20.167 12.5 28.5s17.833 12.5 28.5 12.5h115c10.667 0 20.167 -4 28.5 -12s12.5 -17.667 12.5 -29v-32c0 -32.667 6.5 -63.5 19.5 -92.5s31.5 -53.667 55.5 -74s52 -36.333 84 -48s67 -17.5 105 -17.5
s73.167 5.83301 105.5 17.5s60.5 28 84.5 49s42.333 45.5 55 73.5s19 58.667 19 92c0 48 -8.16699 86.167 -24.5 114.5s-39.5 51.833 -69.5 70.5s-66.167 33.334 -108.5 44.001l-141.5 35c-49.333 10.667 -94.666 26.667 -135.999 48s-77.333 48 -108 80
s-54.667 69.833 -72 113.5s-26 93.5 -26 149.5c0 50.667 8.33301 96.834 25 138.501s39.334 78.5 68.001 110.5s62 58.5 100 79.5s78.333 37.167 121 48.5c13.333 4 20 10.667 20 20v74c0 10.667 4.16699 20.167 12.5 28.5s17.833 12.5 28.5 12.5h92
c10.667 0 20.167 -4.16699 28.5 -12.5s12.5 -17.833 12.5 -28.5v-74c0.666992 -9.33301 7.66699 -16 21 -20c46.667 -10.667 89 -28 127 -52s70.667 -52.833 98 -86.5s48.833 -70.5 64.5 -110.5s23.5 -82.667 23.5 -128v-27c0 -10.667 -4 -20.167 -12 -28.5
s-17.667 -12.5 -29 -12.5h-113c-10.667 0 -20 4.16699 -28 12.5s-12 17.833 -12 28.5v27c0 34 -6.83301 63 -20.5 87s-31.5 43.833 -53.5 59.5s-46.333 26.834 -73 33.501s-53 10 -79 10c-66.667 0 -121.167 -17 -163.5 -51s-62.833 -80.333 -61.5 -139
c0 -45.333 9.83301 -81.166 29.5 -107.499s44.5 -47.5 74.5 -63.5s63.167 -28 99.5 -36s70.833 -16 103.5 -24c116 -26 208.167 -74.833 276.5 -146.5s102.5 -164.167 102.5 -277.5c0 -57.333 -9.5 -109.333 -28.5 -156s-44.667 -88 -77 -124s-70 -65.667 -113 -89
s-88.167 -39.666 -135.5 -48.999c-13.333 -4 -20.333 -11 -21 -21v-73c0 -10.667 -4 -20.167 -12 -28.5s-17.667 -12.5 -29 -12.5h-92c-10.667 0 -20.167 4 -28.5 12s-12.5 17.667 -12.5 29v73c0 9.33301 -6.66699 16.333 -20 21c-52 12 -99.5 31.333 -142.5 58
s-80.167 58.167 -111.5 94.5s-55.666 77 -72.999 122s-26 92.833 -26 143.5z" />
    <glyph glyph-name="percent" unicode="%" horiz-adv-x="1325" 
d="M123 1095.5c0 27.667 2.66797 61.832 8.00098 102.499c4 27.333 11.833 54 23.5 80s27.334 48.833 47.001 68.5s42.834 35.667 69.501 48s57 18.5 91 18.5c61.333 0 113 -19.5 155 -58.5s67 -91.167 75 -156.5c5.33301 -40.667 8 -74.667 8 -102
s-2.66699 -61.666 -8 -102.999c-2.66699 -28.667 -9.83398 -56 -21.501 -82s-27.334 -48.833 -47.001 -68.5s-42.834 -35.334 -69.501 -47.001s-57.334 -17.5 -92.001 -17.5c-61.333 0 -113.166 19.167 -155.499 57.5s-67.5 90.833 -75.5 157.5
c-5.33301 40.667 -8 74.834 -8 102.501zM147.001 56.998l874.999 1346c12 20.667 27 31 45 31h78c13.333 0 24.5 -6.16699 33.5 -18.5s8.83301 -25.5 -0.5 -39.5l-873 -1345c-12 -20.667 -26.333 -31 -43 -31h-82c-13.333 0 -24.166 5.83301 -32.499 17.5
s-8.5 24.834 -0.5 39.501zM272 1096c0 -31.333 1.33496 -60.666 4.00195 -87.999c2.66699 -19.333 11.167 -37.166 25.5 -53.499s34.5 -24.5 60.5 -24.5c22 0 41.167 7.16699 57.5 21.5s26.166 33.166 29.499 56.499c4 27.333 6 56.666 6 87.999s-2 60.666 -6 87.999
c-2.66699 19.333 -11.334 36.333 -26.001 51s-35 22 -61 22c-22 0 -41 -6.33301 -57 -19s-25.667 -30.667 -29 -54c-2.66699 -27.333 -4 -56.666 -4 -87.999zM725.002 337.997c0 27.333 2.66992 61.334 8.00293 102.001c4 27.333 11.833 54 23.5 80s27.5 48.833 47.5 68.5
s43.333 35.667 70 48s57 18.5 91 18.5c61.333 0 112.833 -19.333 154.5 -58s66.5 -91 74.5 -157c5.33301 -40.667 8 -74.667 8 -102s-2.66699 -61.333 -8 -102c-2.66699 -28.667 -9.83398 -56 -21.501 -82s-27.334 -49 -47.001 -69s-42.834 -35.833 -69.501 -47.5
s-57 -17.5 -91 -17.5c-61.333 0 -113.333 19.167 -156 57.5s-68 91.166 -76 158.499c-5.33301 40.667 -8 74.667 -8 102zM874.505 337.998c-0.333008 -31.333 1.16797 -60.666 4.50098 -87.999c2.66699 -19.333 11.167 -37.166 25.5 -53.499s34.5 -24.5 60.5 -24.5
c22 0 41.167 7.16699 57.5 21.5s25.833 33.166 28.5 56.499c4 27.333 5.66699 56.666 5 87.999s-2.33398 60.666 -5.00098 87.999c-2.66699 19.333 -11.167 36.5 -25.5 51.5s-34.5 22.5 -60.5 22.5c-22 0 -41.167 -6.5 -57.5 -19.5s-25.833 -31.167 -28.5 -54.5
c-2.66699 -27.333 -4.16699 -56.666 -4.5 -87.999z" />
    <glyph glyph-name="ampersand" unicode="&#x26;" horiz-adv-x="1239" 
d="M102 416c0 62.667 17.002 124.005 51.002 184.005s73 112 117 156c9.33301 8 13.166 16.5 11.499 25.5s-5.5 16.833 -11.5 23.5c-27.333 39.333 -49.833 79.166 -67.5 119.499s-26.5 85.166 -26.5 134.499c0 54.667 8.83301 104.834 26.5 150.501s43 85.167 76 118.5
s73.333 59.333 121 78s101.5 28 161.5 28c54.667 0 104.167 -9.33301 148.5 -28s82.166 -44.667 113.499 -78s56 -72.833 74 -118.5s27 -95.834 27 -150.501v-31c0 -10.667 -4.16699 -20.167 -12.5 -28.5s-17.833 -12.5 -28.5 -12.5h-105
c-10.667 0 -20.167 4.16699 -28.5 12.5s-12.5 17.833 -12.5 28.5v31c0 60 -15 108.5 -45 145.5s-74.333 55.5 -133 55.5c-69.333 0 -119.833 -18.5 -151.5 -55.5s-47.5 -85.5 -47.5 -145.5c0 -24.667 7.66699 -52 23 -82s33.166 -59.333 53.499 -88
s40.333 -55.334 60 -80.001s35.167 -43 46.5 -55l272 -334c2.66699 -4 6 -6 10 -6s7 2.66699 9 8c1.33301 10.667 2.66602 25 3.99902 43c1.33301 15.333 2.33301 35.166 3 59.499s1 54.166 1 89.499c0 10.667 4 20.167 12 28.5s17.667 12.5 29 12.5h92
c10.667 0 20.167 -4 28.5 -12s12.5 -17.667 12.5 -29c0 -56 -1 -102.667 -3 -140s-4.83301 -68 -8.5 -92s-7.5 -42.833 -11.5 -56.5s-8 -25.167 -12 -34.5c-1.33301 -2.66699 -2.66602 -7.5 -3.99902 -14.5s1.33398 -13.833 8.00098 -20.5l158 -180
c10.667 -13.333 13 -29.333 7 -48s-20.667 -28 -44 -28h-100c-15.333 -0 -25.666 2.33301 -30.999 7s-10 9 -14 13l-76 82c-6.66699 8 -12.5 10.667 -17.5 8s-8.83301 -5.33398 -11.5 -8.00098c-39.333 -36.667 -84.666 -65.5 -135.999 -86.5s-108.333 -31.5 -171 -31.5
c-64 0 -123.333 11.5 -178 34.5s-101.834 54 -141.501 93s-70.834 84.833 -93.501 137.5s-34 108.334 -34 167.001zM293.002 416.005c0 -32.667 6.16797 -64.1719 18.501 -94.5049s29.666 -56.666 51.999 -78.999s49.333 -40.333 81 -54s66.5 -20.5 104.5 -20.5
c35.333 0 68 5.83301 98 17.5s56.667 26.834 80 45.501c2.66699 2.66699 5 5.5 7 8.5s1 7.16699 -3 12.5l-317 385c-2.66699 4 -5.5 5.33301 -8.5 4s-5.16699 -2.66602 -6.5 -3.99902c-27.333 -27.333 -51.833 -60.166 -73.5 -98.499s-32.5 -79.166 -32.5 -122.499z" />
    <glyph glyph-name="quotesingle" unicode="'" horiz-adv-x="423" 
d="M90 923.5c-6.66699 15 -5.99902 30.167 2.00098 45.5l94 172c4 6.66699 3.66699 12.667 -1 18s-10.334 8 -17.001 8h-35c-10.667 0 -20.167 4.16699 -28.5 12.5s-12.5 17.833 -12.5 28.5v185c0 10.667 4.16699 20.167 12.5 28.5s17.833 12.5 28.5 12.5h184
c10.667 0 20.167 -4.16699 28.5 -12.5s12.5 -17.833 12.5 -28.5v-185c0 -27.333 -3.66699 -50.833 -11 -70.5s-17.333 -38.5 -30 -56.5l-106 -149c-4 -6.66699 -10.167 -13.5 -18.5 -20.5s-19.833 -10.5 -34.5 -10.5h-29c-19.333 0 -32.333 7.5 -39 22.5z" />
    <glyph glyph-name="parenleft" unicode="(" horiz-adv-x="698" 
d="M119 646c0 54 0.668945 105.997 2.00195 155.997s3 96.167 5 138.5s5 76.833 9 103.5c6.66699 56 21.667 110 45 162s54.5 97.833 93.5 137.5s85.5 71.5 139.5 95.5s115 36 183 36h25c10.667 0 20.167 -4.16699 28.5 -12.5s12.5 -17.833 12.5 -28.5v-99
c0 -10.667 -4.16699 -20.167 -12.5 -28.5s-17.833 -12.5 -28.5 -12.5h-25c-66.667 0 -126.334 -22.833 -179.001 -68.5s-85.334 -106.167 -98.001 -181.5c-6.66699 -42 -11.667 -99.167 -15 -171.5s-5 -148.166 -5 -227.499s1.66699 -155.166 5 -227.499
s8.33301 -129.5 15 -171.5c4 -30 13.333 -59.667 28 -89s33.834 -56 57.501 -80s51.667 -43.5 84 -58.5s68.166 -22.5 107.499 -22.5h37c10.667 0 20.167 -4.16699 28.5 -12.5s12.5 -17.833 12.5 -28.5v-98c0 -10.667 -4.16699 -20.167 -12.5 -28.5
s-17.833 -12.5 -28.5 -12.5h-37c-61.333 0 -118.333 9.83301 -171 29.5s-99.167 48.334 -139.5 86.001s-73.5 83 -99.5 136s-43 112.5 -51 178.5c-4 27.333 -7 62.5 -9 105.5s-3.66699 89.333 -5 139s-2 101.5 -2 155.5z" />
    <glyph glyph-name="parenright" unicode=")" horiz-adv-x="698" 
d="M20 -45c0 10.667 4.16992 20.1689 12.5029 28.502s17.833 12.5 28.5 12.5h37c39.333 0 75.166 7.5 107.499 22.5s60.5 34.5 84.5 58.5s43.167 50.667 57.5 80s23.5 59 27.5 89c6.66699 42 11.667 99.167 15 171.5s5 148.166 5 227.499s-1.66699 155.166 -5 227.499
s-8.33301 129.5 -15 171.5c-12 75.333 -44.333 135.833 -97 181.5s-112.667 68.5 -180 68.5h-24c-10.667 0 -20.167 4.16699 -28.5 12.5s-12.5 17.833 -12.5 28.5v99c0 10.667 4 20.167 12 28.5s17.667 12.5 29 12.5h24c66.667 0 127.334 -12 182.001 -36
s101.5 -55.833 140.5 -95.5s70.167 -85.5 93.5 -137.5s38.333 -106 45 -162c4 -27.333 7 -62 9 -104s3.66699 -88 5 -138s1.66602 -102 0.999023 -156l-2 -155.5c-0.666992 -49.667 -2.33398 -96 -5.00098 -139s-5.33398 -78.167 -8.00098 -105.5
c-8 -65.333 -25 -124.666 -51 -177.999s-59.167 -98.833 -99.5 -136.5s-86.833 -66.334 -139.5 -86.001s-109.667 -29.5 -171 -29.5h-37c-10.667 0 -20.167 4 -28.5 12s-12.5 17.667 -12.5 29v98z" />
    <glyph glyph-name="asterisk" unicode="*" horiz-adv-x="741" 
d="M104.5 1267.5c-3 11 -0.833008 21.167 6.5 30.5l43 76c5.33301 9.33301 13.166 15.833 23.499 19.5s20.833 2.16699 31.5 -4.5l80 -52l-2 97c0 10.667 4 20.167 12 28.5s17.667 12.5 29 12.5h86c10.667 0 20.167 -4.16699 28.5 -12.5s12.5 -17.833 12.5 -28.5l-4 -97
l81 52c9.33301 6.66699 19.666 8.33398 30.999 5.00098s19.666 -10.666 24.999 -21.999l43 -74c6.66699 -9.33301 8.66699 -19.166 6 -29.499s-9.66699 -18.833 -21 -25.5l-86 -45l86 -45c10.667 -5.33301 17.5 -13.5 20.5 -24.5s1.16699 -21.167 -5.5 -30.5l-43 -76
c-5.33301 -9.33301 -13.166 -15.833 -23.499 -19.5s-21.166 -1.83398 -32.499 5.49902l-81 49l4 -94c0 -10.667 -4.16699 -20.167 -12.5 -28.5s-17.833 -12.5 -28.5 -12.5h-86c-10.667 0 -20.167 4 -28.5 12s-12.5 17.667 -12.5 29l2 96l-80 -51
c-9.33301 -6.66699 -19.5 -8.33398 -30.5 -5.00098s-19.167 10.333 -24.5 21l-43 74c-6.66699 9.33301 -8.66699 19.166 -6 29.499s9.33398 18.833 20.001 25.5l84 45l-84 45c-10.667 5.33301 -17.5 13.5 -20.5 24.5z" />
    <glyph glyph-name="plus" unicode="+" horiz-adv-x="1105" 
d="M102 459v106c0 10.667 4.16699 20.167 12.5 28.5s17.833 12.5 28.5 12.5h295c13.333 0 20.333 7 21 21v295c0 10.667 4 20.167 12 28.5s17.667 12.5 29 12.5h106c10.667 0 20.167 -4.16699 28.5 -12.5s12.5 -17.833 12.5 -28.5v-295c0 -13.333 7 -20.333 21 -21h295
c10.667 0 20.167 -4 28.5 -12s12.5 -17.667 12.5 -29v-106c0 -10.667 -4.16699 -20.167 -12.5 -28.5s-17.833 -12.5 -28.5 -12.5h-295c-13.333 0 -20.333 -7 -21 -21v-295c0 -10.667 -4 -20.167 -12 -28.5s-17.667 -12.5 -29 -12.5h-106
c-10.667 0 -20.167 4.16699 -28.5 12.5s-12.5 17.833 -12.5 28.5v295c0 13.333 -7 20.333 -21 21h-295c-10.667 0 -20.167 4 -28.5 12s-12.5 17.667 -12.5 29z" />
    <glyph glyph-name="comma" unicode="," horiz-adv-x="581" 
d="M172 -243.5c-6.66699 15 -5.99902 29.833 2.00098 44.5l94 172c4 6.66699 3.66699 12.834 -1 18.501s-10.334 8.5 -17.001 8.5h-35c-10.667 0 -20.167 4.16699 -28.5 12.5s-12.5 17.833 -12.5 28.5v184c0 10.667 4.16699 20.167 12.5 28.5s17.833 12.5 28.5 12.5h184
c10.667 0 20.167 -4 28.5 -12s12.5 -17.667 12.5 -29v-184c0 -27.333 -3.66699 -50.833 -11 -70.5s-17.333 -38.5 -30 -56.5l-106 -150c-4 -6.66699 -10.167 -13.334 -18.5 -20.001s-19.833 -10 -34.5 -10h-29c-19.333 0 -32.333 7.5 -39 22.5z" />
    <glyph glyph-name="hyphen" unicode="-" horiz-adv-x="927" 
d="M143 477v139c0 10.667 4.16699 20.167 12.5 28.5s17.833 12.5 28.5 12.5h559c10.667 0 20.167 -4 28.5 -12s12.5 -17.667 12.5 -29v-139c0 -10.667 -4 -20.167 -12 -28.5s-17.667 -12.5 -29 -12.5h-559c-10.667 0 -20.167 4.16699 -28.5 12.5s-12.5 17.833 -12.5 28.5z
" />
    <glyph glyph-name="period" unicode="." horiz-adv-x="579" 
d="M154 41v184c0 10.667 4 20.167 12 28.5s17.667 12.5 29 12.5h184c10.667 0 20.167 -4 28.5 -12s12.5 -17.667 12.5 -29v-184c0 -10.667 -4.16699 -20.167 -12.5 -28.5s-17.833 -12.5 -28.5 -12.5h-184c-10.667 0 -20.167 4.16699 -28.5 12.5s-12.5 17.833 -12.5 28.5z
" />
    <glyph glyph-name="slash" unicode="/" horiz-adv-x="937" 
d="M106 33l544.999 1390c6.66699 20.667 19.667 31 39 31h107c13.333 0 23.833 -5.83301 31.5 -17.5s7.83398 -24.834 0.500977 -39.501l-540 -1391c-6.66699 -20.667 -21 -31 -43 -31h-107c-13.333 0 -23.833 5.83301 -31.5 17.5s-8.16699 25.167 -1.5 40.5z" />
    <glyph glyph-name="zero" unicode="0" horiz-adv-x="1064" 
d="M76 718c0 56.667 1.33203 111.669 3.99902 165.002s6.66699 100.333 12 141c6.66699 56 20.667 109.667 42 161s50.333 96.666 87 135.999s80.667 70.666 132 93.999s111 35 179 35c124 0 224.333 -37.833 301 -113.5s123.334 -179.834 140.001 -312.501
c5.33301 -40.667 9 -88 11 -142s3 -109 3 -165s-1.33301 -111 -4 -165s-6 -101.333 -10 -142c-6.66699 -56 -20.667 -110 -42 -162s-50 -97.5 -86 -136.5s-80.333 -70 -133 -93s-112.667 -34.5 -180 -34.5c-124 0 -224.167 37.833 -300.5 113.5
s-122.833 179.834 -139.5 312.501c-5.33301 40.667 -9.33301 88 -12 142s-4 109.333 -4 166zM259.999 716.002c0 -55.333 1.33496 -109.667 4.00195 -163s6.66699 -101 12 -143c4 -30 11.833 -59.833 23.5 -89.5s28.167 -55.667 49.5 -78s47 -40.333 77 -54
s65.333 -20.5 106 -20.5c69.333 0 126.666 21.5 171.999 64.5s73.333 102.167 84 177.5c5.33301 42 9.83301 89.667 13.5 143s5.5 107.666 5.5 162.999s-1.66699 109.5 -5 162.5s-8 101.5 -14 145.5c-4 30 -11.667 59.667 -23 89s-27.333 55.333 -48 78
s-46.334 40.834 -77.001 54.501s-66.667 20.5 -108 20.5c-68 0 -125.167 -21.167 -171.5 -63.5s-74.5 -101.833 -84.5 -178.5c-5.33301 -44 -9.33301 -92.5 -12 -145.5s-4 -107.167 -4 -162.5z" />
    <glyph glyph-name="one" unicode="1" horiz-adv-x="743" 
d="M68 926l-0.000976562 125c0 30 7.33301 52.333 22 67l311 297c12 12 25.667 18.333 41 19h127c10.667 0 20.167 -4.16699 28.5 -12.5s12.5 -17.833 12.5 -28.5v-1352c0 -10.667 -4 -20.167 -12 -28.5s-17.667 -12.5 -29 -12.5h-108c-10.667 0 -20.167 4.16699 -28.5 12.5
s-12.5 17.833 -12.5 28.5v1124c0 6.66699 -2.33301 10.5 -7 11.5s-8.66699 0.166992 -12 -2.5l-288 -265c-9.33301 -8 -19.166 -10 -29.499 -6s-15.5 11.667 -15.5 23z" />
    <glyph glyph-name="two" unicode="2" horiz-adv-x="946" 
d="M61 41l-0.00195312 133.001c0 15.333 2.16699 26.666 6.5 33.999s8.5 13 12.5 17l463 533c84.667 96.667 127 197 127 301c0 58.667 -18.833 107.834 -56.5 147.501s-86.5 59.5 -146.5 59.5c-27.333 0 -53 -5.83301 -77 -17.5s-45.167 -27 -63.5 -46
s-33 -40.833 -44 -65.5s-16.5 -50.667 -16.5 -78v-31c0 -10.667 -4 -20.167 -12 -28.5s-17.667 -12.5 -29 -12.5h-106c-10.667 0 -20.167 3.16699 -28.5 9.5s-12.5 16.833 -12.5 31.5v31c0 54.667 9.83301 105.834 29.5 153.501s47 89 82 124s76.333 62.667 124 83
s98.834 30.5 153.501 30.5s105.5 -10.167 152.5 -30.5s87.667 -48 122 -83s61.333 -76.333 81 -124s29.5 -98.834 29.5 -153.501c0 -79.333 -13 -151 -39 -215s-65 -127 -117 -189l-385 -440c-5.33301 -6.66699 -6.66602 -13.834 -3.99902 -21.501s9.66699 -11.5 21 -11.5
h516c10.667 0 20.167 -3 28.5 -9s12.5 -16.667 12.5 -32v-100c0 -10.667 -3.16699 -20.167 -9.5 -28.5s-16.833 -12.5 -31.5 -12.5h-742c-10.667 0 -20.167 4.16699 -28.5 12.5s-12.5 17.833 -12.5 28.5z" />
    <glyph glyph-name="three" unicode="3" horiz-adv-x="995" 
d="M61 406l0.00195312 13.999c0 10.667 4.16699 20.167 12.5 28.5s17.833 12.5 28.5 12.5h113c10.667 0 20.167 -4.16699 28.5 -12.5s12.5 -17.833 12.5 -28.5v-14c0 -31.333 5.83301 -60.833 17.5 -88.5s27.667 -51.667 48 -72s45.166 -36.666 74.499 -48.999
s62 -18.5 98 -18.5c34 0 65.667 6.16699 95 18.5s54.166 28.666 74.499 48.999s36.333 44.166 48 71.499s17.5 57 17.5 89c0 28.667 -3.66699 57.667 -11 87s-19.666 55.833 -36.999 79.5s-41 43 -71 58s-67.333 22.5 -112 22.5h-25c-10.667 0 -20.167 4.16699 -28.5 12.5
s-12.5 17.833 -12.5 28.5v109c0 10.667 4.16699 20.167 12.5 28.5s17.833 12.5 28.5 12.5h25c34 0 63.667 6.16699 89 18.5s46.166 28.666 62.499 48.999s28.5 43.5 36.5 69.5s12 52 12 78s-5 50.833 -15 74.5s-24 44.5 -42 62.5s-39.5 32.333 -64.5 43s-52.5 16 -82.5 16
c-31.333 0 -59.666 -5.33301 -84.999 -16s-47 -25 -65 -43s-32 -38.833 -42 -62.5s-15 -48.5 -15 -74.5v-31c0 -10.667 -4.16699 -20.167 -12.5 -28.5s-17.833 -12.5 -28.5 -12.5h-111c-10.667 0 -20.167 4.16699 -28.5 12.5s-12.5 17.833 -12.5 28.5v31
c0 54.667 10.333 105.834 31 153.501s48.667 89 84 124s77.666 62.667 126.999 83s102 30.5 158 30.5s108.167 -10.167 156.5 -30.5s90.5 -48 126.5 -83s64.333 -76.333 85 -124s31 -98.834 31 -153.501c0 -57.333 -10.333 -110 -31 -158s-50 -89 -88 -123
c-19.333 -16.667 -20 -33 -2 -49c45.333 -39.333 82 -86.666 110 -141.999s42 -115.666 42 -180.999c0 -58.667 -11.333 -113.667 -34 -165s-53.5 -96.166 -92.5 -134.499s-84.667 -68.333 -137 -90s-107.833 -32.5 -166.5 -32.5c-60 0 -116.333 10.833 -169 32.5
s-98.5 51.667 -137.5 90s-69.833 83 -92.5 134s-34 106.167 -34 165.5z" />
    <glyph glyph-name="four" unicode="4" horiz-adv-x="1005" 
d="M31 307l-0.00195312 90c0 15.333 3.33301 28.833 10 40.5l22 37.5l531 930c6.66699 10.667 12.834 18.167 18.501 22.5s13.834 6.5 24.501 6.5h127c10.667 0 20.167 -4.16699 28.5 -12.5s12.5 -17.833 12.5 -28.5v-932c0 -13.333 6.66699 -20.333 20 -21h99
c10.667 0 20.167 -4 28.5 -12s12.5 -17.667 12.5 -29v-92c0 -10.667 -4.16699 -20.167 -12.5 -28.5s-17.833 -12.5 -28.5 -12.5h-99c-13.333 0 -20 -6.66699 -20 -20v-205c0 -10.667 -4.16699 -20.167 -12.5 -28.5s-17.833 -12.5 -28.5 -12.5h-96
c-10.667 0 -20.167 4.16699 -28.5 12.5s-12.5 17.833 -12.5 28.5v205c0 13.333 -7 20 -21 20h-534c-10.667 0 -20.167 4.16699 -28.5 12.5s-12.5 17.833 -12.5 28.5zM251.998 457c-6.66699 -10.667 -4 -16.333 8 -17h346c13.333 0 20.333 7 21 21v643
c0 6.66699 -2.16699 10 -6.5 10s-7.83301 -2 -10.5 -6z" />
    <glyph glyph-name="five" unicode="5" horiz-adv-x="1024" 
d="M102 358c0 13.333 4.16602 23.5029 12.499 30.5029s17.833 10.5 28.5 10.5h105c10.667 0 20.167 -4 28.5 -12s12.5 -17.667 12.5 -29c0 -28.667 6.5 -54.5 19.5 -77.5s30 -42.667 51 -59s45.5 -29.333 73.5 -39s57 -14.5 87 -14.5c76.667 0 135.834 28.667 177.501 86
s62.5 129 62.5 215c0 87.333 -21.167 159.333 -63.5 216s-101.166 85 -176.499 85c-42 0 -79.167 -11.667 -111.5 -35s-56.5 -52.666 -72.5 -87.999c-6.66699 -15.333 -19.667 -22.666 -39 -21.999h-111c-10.667 0 -20.167 4 -28.5 12s-12.5 17.667 -12.5 29v727
c0 10.667 4.16699 20.167 12.5 28.5s17.833 12.5 28.5 12.5h662c10.667 0 20.167 -4.16699 28.5 -12.5s12.5 -17.833 12.5 -28.5v-103c0 -10.667 -4.16699 -20.167 -12.5 -28.5s-17.833 -12.5 -28.5 -12.5h-508c-13.333 0 -20.333 -6.66699 -21 -20v-307
c0 -10.667 3.83301 -18.834 11.5 -24.501s19.167 -3.16699 34.5 7.5c20.667 16.667 46.5 29 77.5 37s56.833 12 77.5 12c64 0 122 -12.833 174 -38.5s96.5 -60.834 133.5 -105.501s65.333 -96.334 85 -155.001s29.5 -120.667 29.5 -186s-9.5 -127.333 -28.5 -186
s-47 -110.334 -84 -155.001s-81.5 -79.834 -133.5 -105.501s-110.667 -38.5 -176 -38.5c-54.667 0 -106.834 9.5 -156.501 28.5s-94 45.167 -133 78.5s-70.167 72.833 -93.5 118.5s-35 95.167 -35 148.5z" />
    <glyph glyph-name="six" unicode="6" horiz-adv-x="1036" 
d="M88 717c0 56 1.33105 111.003 3.99805 165.003s6 101.333 10 142c6.66699 58.667 21 114 43 166s51.167 97 87.5 135s78.333 68.333 126 91s101.5 34 161.5 34c54.667 0 105.834 -10.167 153.501 -30.5s89.334 -48 125.001 -83s63.667 -76.333 84 -124
s30.5 -98.834 30.5 -153.501c0 -10.667 -4 -20.167 -12 -28.5s-17.667 -12.5 -29 -12.5h-106c-10.667 0 -20.167 4 -28.5 12s-12.5 17.667 -12.5 29c0 26 -4.5 51.167 -13.5 75.5s-22 46.5 -39 66.5s-38.167 35.833 -63.5 47.5s-55 17.5 -89 17.5
c-69.333 0 -121.833 -19.5 -157.5 -58.5s-60.834 -96.167 -75.501 -171.5c-4 -20.667 -7.5 -48.334 -10.5 -83.001s-3.83301 -65.667 -2.5 -93c0 -8 3.5 -14 10.5 -18s14.5 -2.66699 22.5 4c20.667 15.333 50.334 32.5 89.001 51.5s84 28.5 136 28.5
c57.333 0 111 -11 161 -33s93.5 -52.167 130.5 -90.5s66.667 -83 89 -134s35.5 -105.167 39.5 -162.5c2.66699 -32.667 2.66699 -68.334 0 -107.001c-2.66699 -57.333 -15.167 -111.166 -37.5 -161.499s-52.333 -94.333 -90 -132s-81.5 -67.334 -131.5 -89.001
s-103.667 -32.5 -161 -32.5c-60 0 -114.5 10.833 -163.5 32.5s-92 52 -129 91s-67.333 84 -91 135s-39.167 106.833 -46.5 167.5c-5.33301 40.667 -9 88 -11 142s-3 109 -3 165zM302.998 397.003c8 -62.667 31.5 -115.834 70.5 -159.501s91.833 -65.5 158.5 -65.5
s119.667 21.833 159 65.5s63 96.834 71 159.501c4 39.333 4 76.333 0 111c-8 62.667 -31.5 116.5 -70.5 161.5s-92.167 67.5 -159.5 67.5c-66.667 0 -119.5 -19.833 -158.5 -59.5s-62.5 -96.167 -70.5 -169.5c-4 -34.667 -4 -71.667 0 -111z" />
    <glyph glyph-name="seven" unicode="7" horiz-adv-x="860" 
d="M20 1290l0.000976562 103c0 10.667 4.16699 20.167 12.5 28.5s17.833 12.5 28.5 12.5h738c10.667 0 20.167 -4.16699 28.5 -12.5s12.5 -17.833 12.5 -28.5v-138c0 -12 -3.66699 -25.667 -11 -41l-495 -1183c-9.33301 -20.667 -22.333 -31 -39 -31h-123
c-19.333 -0 -31.333 5.83301 -36 17.5s-5 22.167 -1 31.5l502 1180c5.33301 13.333 0.666016 20 -14.001 20h-562c-10.667 0 -20.167 4.16699 -28.5 12.5s-12.5 17.833 -12.5 28.5z" />
    <glyph glyph-name="eight" unicode="8" horiz-adv-x="1064" 
d="M86 406c0 65.333 13.666 125.663 40.999 180.996s64.333 102.666 111 141.999c9.33301 8 13 16.5 11 25.5s-6.33301 16.833 -13 23.5c-35.333 35.333 -63.666 77 -84.999 125s-32 100 -32 156c0 54.667 10.167 105.834 30.5 153.501s49 89 86 124s81 62.667 132 83
s106.833 30.5 167.5 30.5c58.667 0 113.167 -10.167 163.5 -30.5s94 -48 131 -83s66 -76.333 87 -124s31.5 -98.834 31.5 -153.501c0 -57.333 -10.5 -109.666 -31.5 -156.999s-50.167 -88.666 -87.5 -123.999c-6.66699 -6.66699 -11 -14.5 -13 -23.5s1.66699 -17.5 11 -25.5
c45.333 -39.333 82 -86.666 110 -141.999s42 -115.666 42 -180.999c0 -58.667 -11.333 -113.667 -34 -165s-54 -96.166 -94 -134.499s-87.333 -68.333 -142 -90s-113.667 -32.5 -177 -32.5c-64 0 -123.333 10.833 -178 32.5s-101.667 51.667 -141 90s-70.333 83 -93 134
s-34 106.167 -34 165.5zM275.999 405.997c0 -66.667 23.5 -122.331 70.5 -166.998s108.833 -67 185.5 -67c75.333 0 136.833 22.167 184.5 66.5s71.5 100.166 71.5 167.499c0 32.667 -6.33301 63.667 -19 93s-30.334 54.5 -53.001 75.5s-49.667 37.667 -81 50
s-65.666 18.5 -102.999 18.5c-76.667 0 -138.5 -22.833 -185.5 -68.5s-70.5 -101.834 -70.5 -168.501zM302.999 1059c0 -60 20.833 -110.167 62.5 -150.5s97.167 -60.5 166.5 -60.5s125 20.167 167 60.5s63 90.5 63 150.5s-20.833 109.5 -62.5 148.5s-97.5 58.5 -167.5 58.5
c-69.333 0 -124.833 -19.5 -166.5 -58.5s-62.5 -88.5 -62.5 -148.5z" />
    <glyph glyph-name="nine" unicode="9" horiz-adv-x="1026" 
d="M74 928c-2.66699 32.667 -2.66211 68.002 0.00488281 106.002c2.66699 57.333 15.167 111.333 37.5 162s52.333 94.667 90 132s81.5 67 131.5 89s103.667 33 161 33c58.667 0 112.834 -11 162.501 -33s93 -52.333 130 -91s67.333 -84 91 -136s39.167 -107.333 46.5 -166
c5.33301 -40.667 9 -88 11 -142s3 -109 3 -165s-1.33301 -111 -4 -165s-6 -101.333 -10 -142c-6.66699 -58.667 -21.334 -114 -44.001 -166s-52.167 -97.167 -88.5 -135.5s-79 -68.666 -128 -90.999s-102.833 -33.5 -161.5 -33.5c-54.667 0 -107.334 10.167 -158.001 30.5
s-95 48 -133 83s-68.333 76.333 -91 124s-34 98.834 -34 153.501c0 10.667 4.16699 20.167 12.5 28.5s17.833 12.5 28.5 12.5h106c10.667 0 20.167 -4.16699 28.5 -12.5s12.5 -17.833 12.5 -28.5c0 -26 6.5 -51.333 19.5 -76s30.167 -46.834 51.5 -66.501
s45.666 -35.334 72.999 -47.001s55.333 -17.5 84 -17.5c69.333 0 124.166 21.833 164.499 65.5s68.166 102.5 83.499 176.5c9.33301 46.667 14 103.334 14 170.001c0 9.33301 -3.83301 15.333 -11.5 18s-16.167 0.666992 -25.5 -6
c-20.667 -16.667 -51.834 -34.834 -93.501 -54.501s-88.167 -29.5 -139.5 -29.5c-57.333 0 -111 10.833 -161 32.5s-93.5 51.667 -130.5 90s-66.667 83.166 -89 134.499s-35.5 105.666 -39.5 162.999zM264.005 926.002c8 -62.667 31.5 -116.667 70.5 -162
s92.167 -68 159.5 -68c66.667 0 119.5 19.833 158.5 59.5s62.5 96.5 70.5 170.5c4 34 4 70.667 0 110c-8 62.667 -31.5 116 -70.5 160s-91.833 66 -158.5 66s-119.667 -22 -159 -66s-63 -97.333 -71 -160c-4 -39.333 -4 -76 0 -110z" />
    <glyph glyph-name="colon" unicode=":" horiz-adv-x="579" 
d="M170 41v184c0 10.667 4.16699 20.167 12.5 28.5s17.833 12.5 28.5 12.5h184c10.667 0 20.167 -4 28.5 -12s12.5 -17.667 12.5 -29v-184c0 -10.667 -4 -20.167 -12 -28.5s-17.667 -12.5 -29 -12.5h-184c-10.667 0 -20.167 4.16699 -28.5 12.5s-12.5 17.833 -12.5 28.5z
M170 778v185c0 10.667 4.16699 20.167 12.5 28.5s17.833 12.5 28.5 12.5h184c10.667 0 20.167 -4.16699 28.5 -12.5s12.5 -17.833 12.5 -28.5v-185c0 -10.667 -4 -20.167 -12 -28.5s-17.667 -12.5 -29 -12.5h-184c-10.667 0 -20.167 4.16699 -28.5 12.5
s-12.5 17.833 -12.5 28.5z" />
    <glyph glyph-name="semicolon" unicode=";" horiz-adv-x="581" 
d="M168 -243.5c-6.66699 15 -5.99902 29.833 2.00098 44.5l94 172c4 6.66699 3.66699 12.834 -1 18.501s-10.334 8.5 -17.001 8.5h-35c-10.667 0 -20.167 4.16699 -28.5 12.5s-12.5 17.833 -12.5 28.5v184c0 10.667 4.16699 20.167 12.5 28.5s17.833 12.5 28.5 12.5h184
c10.667 0 20.167 -4 28.5 -12s12.5 -17.667 12.5 -29v-184c0 -27.333 -3.66699 -50.833 -11 -70.5s-17.333 -38.5 -30 -56.5l-106 -150c-4 -6.66699 -10.167 -13.334 -18.5 -20.001s-19.833 -10 -34.5 -10h-29c-19.333 0 -32.333 7.5 -39 22.5zM170.001 778v185
c0 10.667 4.16699 20.167 12.5 28.5s17.833 12.5 28.5 12.5h184c10.667 0 20.167 -4.16699 28.5 -12.5s12.5 -17.833 12.5 -28.5v-185c0 -10.667 -4 -20.167 -12 -28.5s-17.667 -12.5 -29 -12.5h-184c-10.667 0 -20.167 4.16699 -28.5 12.5s-12.5 17.833 -12.5 28.5z" />
    <glyph glyph-name="less" unicode="&#x3c;" horiz-adv-x="983" 
d="M61 463v100.001c0 19.333 10.333 34.333 31 45l742 416c9.33301 5.33301 19.5 4.33301 30.5 -3s16.5 -19.333 16.5 -36v-123c0 -16.667 -10.333 -31 -31 -43l-547 -299c-4 -1.33301 -6 -4 -6 -8s2 -6.66699 6 -8l547 -299c20.667 -12 31 -26.333 31 -43v-123
c0 -16.667 -5.16699 -28.334 -15.5 -35.001s-20.833 -8 -31.5 -4l-742 418c-20.667 10.667 -31 25.667 -31 45z" />
    <glyph glyph-name="equal" unicode="=" horiz-adv-x="1105" 
d="M102 270v107c0 10.667 4.16699 20.167 12.5 28.5s17.833 12.5 28.5 12.5h820c10.667 0 20.167 -4.16699 28.5 -12.5s12.5 -17.833 12.5 -28.5v-107c0 -10.667 -4.16699 -20.167 -12.5 -28.5s-17.833 -12.5 -28.5 -12.5h-820c-10.667 0 -20.167 4.16699 -28.5 12.5
s-12.5 17.833 -12.5 28.5zM102 647v107c0 10.667 4.16699 20.167 12.5 28.5s17.833 12.5 28.5 12.5h820c10.667 0 20.167 -4.16699 28.5 -12.5s12.5 -17.833 12.5 -28.5v-107c0 -10.667 -4.16699 -20.167 -12.5 -28.5s-17.833 -12.5 -28.5 -12.5h-820
c-10.667 0 -20.167 4.16699 -28.5 12.5s-12.5 17.833 -12.5 28.5z" />
    <glyph glyph-name="greater" unicode="&#x3e;" horiz-adv-x="983" 
d="M102 39l-0.000976562 123.001c0 16.667 10.333 31 31 43l547 299c10.667 5.33301 10.667 10.666 0 15.999l-547 299c-20.667 12 -31 26.333 -31 43v123c0 16.667 5.5 28.667 16.5 36s21.5 8.33301 31.5 3l741 -416c20.667 -10.667 31 -25.667 31 -45v-100
c0 -19.333 -10.333 -34.333 -31 -45l-741 -418c-9.33301 -5.33301 -19.666 -4.33301 -30.999 3s-17 19.333 -17 36z" />
    <glyph glyph-name="question" unicode="?" horiz-adv-x="952" 
d="M92 1028l0.000976562 30.998c0 54.667 9.66699 105.834 29 153.501s46 89.667 80 126s74.5 64.666 121.5 84.999s97.833 30.5 152.5 30.5s105.5 -9.5 152.5 -28.5s87.667 -46 122 -81s61.333 -76.667 81 -125s29.5 -101.833 29.5 -160.5c0 -74 -16 -136.5 -48 -187.5
s-76.667 -98.5 -134 -142.5l-45.5 -31.5c-15 -10.333 -28.667 -21.333 -41 -33s-22.5 -24.667 -30.5 -39s-12 -31.833 -12 -52.5v-143c0 -10.667 -4.16699 -20.167 -12.5 -28.5s-17.833 -12.5 -28.5 -12.5h-105c-10.667 0 -20.167 4.16699 -28.5 12.5
s-12.5 17.833 -12.5 28.5v172c0 54.667 12.333 96.334 37 125.001c18 20.667 34.833 37.5 50.5 50.5s31 24.5 46 34.5l45 31.5c15 11 30.833 24.167 47.5 39.5c22 22 41.5 48 58.5 78s25.5 62.667 25.5 98c0 56 -17.167 104.5 -51.5 145.5s-82.833 61.5 -145.5 61.5
c-28.667 0 -55.334 -6.16699 -80.001 -18.5s-45.5 -28.166 -62.5 -47.499s-30.167 -41.5 -39.5 -66.5s-14 -49.833 -14 -74.5v-31c0 -10.667 -4.16699 -20.167 -12.5 -28.5s-17.833 -12.5 -28.5 -12.5h-105c-10.667 0 -20.167 4.16699 -28.5 12.5s-12.5 17.833 -12.5 28.5z
M332.001 40.998v170c0 10.667 4 20.167 12 28.5s17.667 12.5 29 12.5h170c10.667 0 20.167 -4.16699 28.5 -12.5s12.5 -17.833 12.5 -28.5v-170c0 -10.667 -4.16699 -20.167 -12.5 -28.5s-17.833 -12.5 -28.5 -12.5h-170c-10.667 0 -20.167 4.16699 -28.5 12.5
s-12.5 17.833 -12.5 28.5z" />
    <glyph glyph-name="at" unicode="@" horiz-adv-x="1669" 
d="M123 553c0 108 17.668 208.001 53.001 300.001s84.833 171.833 148.5 239.5s140.167 121 229.5 160s188 58.5 296 58.5c102.667 0 196.667 -16.5 282 -49.5s158.666 -79.5 219.999 -139.5s109 -132 143 -216s51 -177.667 51 -281c0 -76.667 -7.16699 -144.667 -21.5 -204
s-34.5 -109.5 -60.5 -150.5s-56.333 -72.5 -91 -94.5s-72.334 -33 -113.001 -33c-34 0 -60 3.5 -78 10.5s-37.333 17.167 -58 30.5c-18 10.667 -35.333 16.5 -52 17.5s-38 -4.83301 -64 -17.5c-20.667 -10.667 -44.667 -20.167 -72 -28.5s-56.666 -12.5 -87.999 -12.5
c-68 0 -126.333 11 -175 33s-88 51.333 -118 88s-51.833 79.667 -65.5 129s-20.5 102 -20.5 158c0 58.667 8.83301 113.667 26.5 165s43 95.666 76 132.999s72.667 66.666 119 87.999s98.833 32 157.5 32c95.333 0 172 -26.667 230 -80s87 -124.333 87 -213v-287
c0 -31.333 7.5 -56.166 22.5 -74.499s35.5 -27.5 61.5 -27.5c18 0 35.167 5.83301 51.5 17.5s30.666 30.667 42.999 57s21.833 61 28.5 104s10 96.167 10 159.5c0 78 -11.167 149.667 -33.5 215s-56 121.833 -101 169.5s-100.667 85.167 -167 112.5s-143.166 41 -230.499 41
c-78 0 -150.5 -15.333 -217.5 -46s-125.333 -73 -175 -127s-88.834 -118.5 -117.501 -193.5s-43 -156.833 -43 -245.5c0 -80.667 13.333 -156.5 40 -227.5s63.834 -133.167 111.501 -186.5s105.667 -95.666 174 -126.999s143.5 -47 225.5 -47
c39.333 0 77.166 3.33301 113.499 10s70.833 17.667 103.5 33c13.333 6.66699 24.833 6.66699 34.5 0s14.5 -17 14.5 -31v-57c0 -16.667 -5.16699 -28.667 -15.5 -36s-21.5 -14.333 -33.5 -21c-22 -12 -53.833 -22.5 -95.5 -31.5s-82.167 -13.5 -121.5 -13.5
c-109.333 0 -208.666 19.333 -297.999 58s-165.833 91.167 -229.5 157.5s-112.5 144.166 -146.5 233.499s-51 185.333 -51 288zM647.001 551.001c0 -31.333 3.49805 -62.667 10.498 -94s18.333 -59.666 34 -84.999s36.167 -45.833 61.5 -61.5s57 -23.5 95 -23.5
c44 0 81.667 13.333 113 40s47 65.667 47 117v232c0 49.333 -15.833 86.166 -47.5 110.499s-69.167 36.5 -112.5 36.5c-34 0 -63.667 -7.83301 -89 -23.5s-46.166 -36.167 -62.499 -61.5s-28.666 -54.333 -36.999 -87s-12.5 -66 -12.5 -100z" />
    <glyph glyph-name="A" unicode="A" horiz-adv-x="999" 
d="M8 41l381.002 1362c4 20.667 17 31 39 31h143c22 0 35 -10.333 39 -31l381 -1362c0.666992 -2.66699 1 -5.33398 1 -8.00098c0 -6 -2.33301 -12.333 -7 -19c-6.66699 -9.33301 -18.334 -14 -35.001 -14h-112c-19.333 0 -32.333 10.333 -39 31l-90 313
c-4 19.333 -17 29 -39 29h-340c-19.333 0 -32.333 -9.66699 -39 -29l-90 -313c-6.66699 -20.667 -19.667 -31 -39 -31h-113c-16.667 0 -28.334 4.66699 -35.001 14c-4.66699 6.66699 -7 13 -7 19c0 2.66699 0.333008 5.33398 1 8.00098zM356.002 586
c-0.666992 -3.33301 -0.999023 -6.33301 -0.999023 -9c0 -9.33301 6 -14 18 -14h254c12 0 18 4.66699 18 14c0 2.66699 -0.666992 5.66699 -2 9l-133 571c-2.66699 8 -5.33398 12 -8.00098 12h-4c-4 0 -7 -4 -9 -12z" />
    <glyph glyph-name="B" unicode="B" horiz-adv-x="1034" 
d="M133 41l0.00292969 1352c0 10.667 4.16699 20.167 12.5 28.5s17.833 12.5 28.5 12.5h379c54.667 0 106.5 -9.66699 155.5 -29s91.667 -45.666 128 -78.999s65 -73.5 86 -120.5s31.5 -97.833 31.5 -152.5c0 -48 -9.5 -97.667 -28.5 -149s-48.167 -94 -87.5 -128
c-19.333 -16.667 -19.333 -31.667 0 -45c42 -34 76.667 -80 104 -138s41 -116.333 41 -175c0 -60 -11.333 -115.333 -34 -166s-53.334 -94.834 -92.001 -132.501s-84.334 -67 -137.001 -88s-108.334 -31.5 -167.001 -31.5h-379c-10.667 0 -20.167 4.16699 -28.5 12.5
s-12.5 17.833 -12.5 28.5zM324.003 215c0 -13.333 6.66699 -19.999 20 -19.999h209c31.333 0 61.333 5.66699 90 17s53.667 27.333 75 48s38.333 44.334 51 71.001s19 55.667 19 87c0 35.333 -6.33301 68 -19 98s-29.667 55.667 -51 77s-46.333 37.666 -75 48.999
s-58.667 17 -90 17h-209c-5.33301 2.66699 -10 1.66699 -14 -3s-6 -10.334 -6 -17.001v-424zM324.003 864.001c0 -13.333 6.66602 -20 19.999 -20h209c66.667 0 117.834 19.833 153.501 59.5s53.5 89.5 53.5 149.5c0 30 -5.83301 56.5 -17.5 79.5s-27 42.333 -46 58
s-41.167 27.667 -66.5 36s-51 12.5 -77 12.5h-209c-13.333 0 -20 -6.66699 -20 -20v-355z" />
    <glyph glyph-name="C" unicode="C" horiz-adv-x="1112" 
d="M92 718c0 56.667 1.33398 111.669 4.00098 165.002s7 100.333 13 141c6.66699 56 21.5 109.667 44.5 161s54 96.666 93 135.999s85.5 70.666 139.5 93.999s115 35 183 35c61.333 0 120 -9.5 176 -28.5s104.833 -47 146.5 -84s75.167 -81.833 100.5 -134.5
s38 -112.334 38 -179.001v-29c0 -10.667 -4 -20.167 -12 -28.5s-17.667 -12.5 -29 -12.5h-112c-10.667 0 -20.167 4.16699 -28.5 12.5s-12.5 17.833 -12.5 28.5v29c0 30 -6.16699 59 -18.5 87s-30.166 52.667 -53.499 74s-51.333 38.333 -84 51s-69.667 19 -111 19
c-66.667 0 -125.334 -19.667 -176.001 -59s-80.667 -96.666 -90 -171.999c-5.33301 -42 -9.33301 -89.667 -12 -143s-4 -108 -4 -164s1.33301 -110.667 4 -164s6.66699 -101 12 -143c4 -30 12.5 -59 25.5 -87s30.833 -52.667 53.5 -74s49.667 -38.5 81 -51.5
s66.666 -19.5 105.999 -19.5c34 0 67.167 5.16699 99.5 15.5s60.833 25 85.5 44s44.5 43.167 59.5 72.5s22.5 62.666 22.5 99.999v28c0 10.667 4 20.167 12 28.5s17.667 12.5 29 12.5h112c10.667 0 20.167 -4 28.5 -12s12.5 -17.667 12.5 -29v-28
c0 -57.333 -11.167 -111.666 -33.5 -162.999s-54 -96.5 -95 -135.5s-89.833 -70 -146.5 -93s-118.667 -34.5 -186 -34.5c-61.333 0 -118.333 9.83301 -171 29.5s-99 48 -139 85s-73 81.667 -99 134s-43 111.5 -51 177.5c-5.33301 40.667 -9.5 88 -12.5 142
s-4.5 109.333 -4.5 166z" />
    <glyph glyph-name="D" unicode="D" horiz-adv-x="1101" 
d="M133 41v1352c0 10.667 4.16699 20.167 12.5 28.5s17.833 12.5 28.5 12.5h389c58.667 0 113 -11.333 163 -34s93.333 -53.5 130 -92.5s67 -84.667 91 -137s39.333 -107.833 46 -166.5c5.33301 -40.667 9.16602 -86 11.499 -136s3.5 -100.667 3.5 -152
s-1.5 -101.5 -4.5 -150.5s-6.5 -94.167 -10.5 -135.5c-6.66699 -58.667 -21.667 -114.334 -45 -167.001s-53.666 -98.334 -90.999 -137.001s-81 -69.334 -131 -92.001s-104.333 -34 -163 -34h-389c-10.667 0 -20.167 4.16699 -28.5 12.5s-12.5 17.833 -12.5 28.5z
M328 215.003c0 -13.333 6.66699 -20 20 -20h215c31.333 0 60.666 6.33301 87.999 19s51.333 30 72 52s37.5 47 50.5 75s21.5 57.667 25.5 89c5.33301 40.667 9 85.667 11 135s3 99.666 3 150.999s-1 101.833 -3 151.5s-5.66699 95.167 -11 136.5
c-4 30 -12.5 59.333 -25.5 88s-29.833 53.834 -50.5 75.501s-44.667 39 -72 52s-56.666 19.5 -87.999 19.5h-215c-13.333 0 -20 -6.66699 -20 -20v-1004z" />
    <glyph glyph-name="E" unicode="E" horiz-adv-x="962" 
d="M133 41v1352c0 10.667 4.16699 20.167 12.5 28.5s17.833 12.5 28.5 12.5h662c10.667 0 20.167 -4.16699 28.5 -12.5s12.5 -17.833 12.5 -28.5v-113c0 -10.667 -4.16699 -20.167 -12.5 -28.5s-17.833 -12.5 -28.5 -12.5h-488c-13.333 0 -20 -6.66699 -20 -20v-369
c0 -13.333 6.66699 -20.333 20 -21h465c10.667 0 20.167 -4 28.5 -12s12.5 -17.667 12.5 -29v-112c0 -10.667 -4.16699 -20.167 -12.5 -28.5s-17.833 -12.5 -28.5 -12.5h-465c-13.333 0 -20 -7 -20 -21v-399c0 -13.333 6.66699 -20 20 -20h492
c10.667 0 20.167 -4.16699 28.5 -12.5s12.5 -17.833 12.5 -28.5v-113c0 -10.667 -4.16699 -20.167 -12.5 -28.5s-17.833 -12.5 -28.5 -12.5h-666c-10.667 0 -20.167 4.16699 -28.5 12.5s-12.5 17.833 -12.5 28.5z" />
    <glyph glyph-name="F" unicode="F" horiz-adv-x="917" 
d="M133 41v1352c0 10.667 4.16699 20.167 12.5 28.5s17.833 12.5 28.5 12.5h662c10.667 0 20.167 -4.16699 28.5 -12.5s12.5 -17.833 12.5 -28.5v-113c0 -10.667 -4.16699 -20.167 -12.5 -28.5s-17.833 -12.5 -28.5 -12.5h-488c-13.333 0 -20 -6.66699 -20 -20v-369
c0 -13.333 6.66699 -20.333 20 -21h465c10.667 0 20.167 -4 28.5 -12s12.5 -17.667 12.5 -29v-112c0 -10.667 -4.16699 -20.167 -12.5 -28.5s-17.833 -12.5 -28.5 -12.5h-465c-13.333 0 -20 -7 -20 -21v-573c0 -10.667 -4.16699 -20.167 -12.5 -28.5
s-17.833 -12.5 -28.5 -12.5h-113c-10.667 0 -20.167 4.16699 -28.5 12.5s-12.5 17.833 -12.5 28.5z" />
    <glyph glyph-name="G" unicode="G" horiz-adv-x="1118" 
d="M92 718c0 56.667 1.33398 111.669 4.00098 165.002s7 100.333 13 141c6.66699 56 21.5 109.667 44.5 161s54 96.666 93 135.999s85.5 70.666 139.5 93.999s115 35 183 35c61.333 0 120 -9.5 176 -28.5s104.833 -47 146.5 -84s75.167 -81.833 100.5 -134.5
s38 -112.334 38 -179.001v-29c0 -10.667 -4 -20.167 -12 -28.5s-17.667 -12.5 -29 -12.5h-112c-10.667 0 -20.167 4.16699 -28.5 12.5s-12.5 17.833 -12.5 28.5v29c0 30 -6.16699 59 -18.5 87s-30.166 52.667 -53.499 74s-51.333 38.333 -84 51s-69.667 19 -111 19
c-66.667 0 -125.334 -19.667 -176.001 -59s-80.667 -96.666 -90 -171.999c-5.33301 -42 -9.33301 -89.667 -12 -143s-4 -108 -4 -164s1.33301 -110.667 4 -164s6.66699 -101 12 -143c4 -30 12.5 -59 25.5 -87s30.833 -52.667 53.5 -74s49.667 -38.5 81 -51.5
s66.666 -19.5 105.999 -19.5c34 0 67.167 4.5 99.5 13.5s60.833 23 85.5 42s44.5 43.167 59.5 72.5s22.5 64 22.5 104v172c0 13.333 -7 20 -21 20h-186c-10.667 0 -20.167 4.16699 -28.5 12.5s-12.5 17.833 -12.5 28.5v113c0 10.667 4 20.167 12 28.5s17.667 12.5 29 12.5
h360c10.667 0 20.167 -4.16699 28.5 -12.5s12.5 -17.833 12.5 -28.5v-346c0 -60 -11.167 -115.667 -33.5 -167s-54 -96.5 -95 -135.5s-89.833 -69.333 -146.5 -91s-118.667 -32.5 -186 -32.5c-61.333 0 -118.333 9.83301 -171 29.5s-99 48 -139 85s-73 81.667 -99 134
s-43 111.5 -51 177.5c-5.33301 40.667 -9.5 88 -12.5 142s-4.5 109.333 -4.5 166z" />
    <glyph glyph-name="H" unicode="H" horiz-adv-x="1146" 
d="M133 41v1352c0 10.667 4.16699 20.167 12.5 28.5s17.833 12.5 28.5 12.5h113c10.667 0 20.167 -4.16699 28.5 -12.5s12.5 -17.833 12.5 -28.5v-543c0 -13.333 6.66699 -20.333 20 -21h451c13.333 0 20 7 20 21v543c0 10.667 4.16699 20.167 12.5 28.5
s17.833 12.5 28.5 12.5h113c10.667 0 20.167 -4.16699 28.5 -12.5s12.5 -17.833 12.5 -28.5v-1352c0 -10.667 -4.16699 -20.167 -12.5 -28.5s-17.833 -12.5 -28.5 -12.5h-113c-10.667 0 -20.167 4.16699 -28.5 12.5s-12.5 17.833 -12.5 28.5v573
c0 13.333 -6.66699 20.333 -20 21h-451c-13.333 0 -20 -7 -20 -21v-573c0 -10.667 -4.16699 -20.167 -12.5 -28.5s-17.833 -12.5 -28.5 -12.5h-113c-10.667 0 -20.167 4.16699 -28.5 12.5s-12.5 17.833 -12.5 28.5z" />
    <glyph glyph-name="I" unicode="I" horiz-adv-x="460" 
d="M133 41v1352c0 10.667 4.16699 20.167 12.5 28.5s17.833 12.5 28.5 12.5h113c10.667 0 20.167 -4.16699 28.5 -12.5s12.5 -17.833 12.5 -28.5v-1352c0 -10.667 -4.16699 -20.167 -12.5 -28.5s-17.833 -12.5 -28.5 -12.5h-113c-10.667 0 -20.167 4.16699 -28.5 12.5
s-12.5 17.833 -12.5 28.5z" />
    <glyph glyph-name="J" unicode="J" horiz-adv-x="980" 
d="M10 410l0.000976562 27.9971c0 10.667 4.16699 20.167 12.5 28.5s17.833 12.5 28.5 12.5h113c10.667 0 20.167 -4 28.5 -12s12.5 -17.667 12.5 -29v-28c0 -32.667 6.16699 -63.167 18.5 -91.5s29.333 -52.666 51 -72.999s46.5 -36.666 74.5 -48.999
s58.333 -18.5 91 -18.5s63 5.5 91 16.5s53 27 75 48s39.167 47.333 51.5 79s18.5 67.834 18.5 108.501v963c0 10.667 4 20.167 12 28.5s17.667 12.5 29 12.5h112c10.667 0 20.167 -4.16699 28.5 -12.5s12.5 -17.833 12.5 -28.5v-983c0 -64 -11.167 -122.333 -33.5 -175
s-53 -97.5 -92 -134.5s-84.833 -65.667 -137.5 -86s-108.334 -30.5 -167.001 -30.5c-60 0 -115.833 10.833 -167.5 32.5s-97 52 -136 91s-69.833 84 -92.5 135s-34 106.833 -34 167.5z" />
    <glyph glyph-name="K" unicode="K" horiz-adv-x="1021" 
d="M133 41l0.000976562 1352c0 10.667 4.16699 20.167 12.5 28.5s17.833 12.5 28.5 12.5h113c10.667 0 20.167 -4.16699 28.5 -12.5s12.5 -17.833 12.5 -28.5v-492c0 -5.33301 2 -8 6 -8s7.33301 1.33301 10 4l397 516c2.66699 4 7.16699 8.5 13.5 13.5s16.833 7.5 31.5 7.5
h113c19.333 0 32.666 -8.66699 39.999 -26s5.66602 -33.333 -5.00098 -48l-467 -596c-6.66699 -8 -10.667 -15.833 -12 -23.5s2 -16.167 10 -25.5l524 -639c6.66699 -8.66699 10 -18.334 10 -29.001c0 -6 -1 -12.333 -3 -19c-6 -18.667 -20.667 -28 -44 -28h-129
c-15.333 -0 -25.666 2.33301 -30.999 7s-10 9 -14 13l-434 543c-2.66699 2.66699 -6 4 -10 4s-6 -2.66699 -6 -8v-518c0 -10.667 -4.16699 -20.167 -12.5 -28.5s-17.833 -12.5 -28.5 -12.5h-113c-10.667 0 -20.167 4.16699 -28.5 12.5s-12.5 17.833 -12.5 28.5z" />
    <glyph glyph-name="L" unicode="L" horiz-adv-x="868" 
d="M133 41v1352c0 10.667 4.16699 20.167 12.5 28.5s17.833 12.5 28.5 12.5h113c10.667 0 20.167 -4.16699 28.5 -12.5s12.5 -17.833 12.5 -28.5v-1178c0 -13.333 6.66699 -20 20 -20h459c10.667 0 20.167 -4.16699 28.5 -12.5s12.5 -17.833 12.5 -28.5v-113
c0 -10.667 -4.16699 -20.167 -12.5 -28.5s-17.833 -12.5 -28.5 -12.5h-633c-10.667 0 -20.167 4.16699 -28.5 12.5s-12.5 17.833 -12.5 28.5z" />
    <glyph glyph-name="M" unicode="M" horiz-adv-x="1437" 
d="M133 41l0.00195312 1352c0 10.667 4.16699 20.167 12.5 28.5s17.833 12.5 28.5 12.5h209c23.333 0 37.666 -11.667 42.999 -35l283 -1012c2.66699 -6.66699 6 -10 10 -10s7.33301 3.33301 10 10l283 1012c5.33301 23.333 19.666 35 42.999 35h209
c10.667 0 20.167 -4.16699 28.5 -12.5s12.5 -17.833 12.5 -28.5v-1352c0 -10.667 -4.16699 -20.167 -12.5 -28.5s-17.833 -12.5 -28.5 -12.5h-109c-10.667 0 -20.167 4.16699 -28.5 12.5s-12.5 17.833 -12.5 28.5v1024c0 6.66699 -2.33301 10 -7 10s-7.66699 -2 -9 -6
l-293 -1034c-8 -23.333 -22.333 -35 -43 -35h-86c-20.667 0 -35 11.667 -43 35l-293 1034c-1.33301 4 -4.33301 6 -9 6s-7 -3.33301 -7 -10v-1024c0 -10.667 -4.16699 -20.167 -12.5 -28.5s-17.833 -12.5 -28.5 -12.5h-109c-10.667 0 -20.167 4.16699 -28.5 12.5
s-12.5 17.833 -12.5 28.5z" />
    <glyph glyph-name="N" unicode="N" horiz-adv-x="1126" 
d="M133 41l0.000976562 1352c0 10.667 4.16699 20.167 12.5 28.5s17.833 12.5 28.5 12.5h170c10.667 0 19.167 -2.16699 25.5 -6.5s12.166 -13.833 17.499 -28.5l404 -1010c2.66699 -4 6 -5.66699 10 -5s6 3.66699 6 9v1000c0 10.667 4 20.167 12 28.5s17.667 12.5 29 12.5
h104c10.667 0 20.167 -4.16699 28.5 -12.5s12.5 -17.833 12.5 -28.5v-1352c0 -10.667 -4 -20.167 -12 -28.5s-17.667 -12.5 -29 -12.5h-170c-10.667 0 -19 2 -25 6s-12 13.667 -18 29l-403 1014c-2.66699 4 -6.16699 5.66699 -10.5 5s-6.5 -4 -6.5 -10v-1003
c0 -10.667 -4 -20.167 -12 -28.5s-17.333 -12.5 -28 -12.5h-105c-10.667 0 -20.167 4.16699 -28.5 12.5s-12.5 17.833 -12.5 28.5z" />
    <glyph glyph-name="O" unicode="O" horiz-adv-x="1138" 
d="M92 718c0 56.667 1.33398 111.669 4.00098 165.002s7 100.333 13 141c6.66699 56 21.5 109.667 44.5 161s54 96.666 93 135.999s85.5 70.666 139.5 93.999s115 35 183 35c61.333 0 118.333 -9.83301 171 -29.5s99.167 -48 139.5 -85s73.5 -81.833 99.5 -134.5
s43 -111.667 51 -177c5.33301 -40.667 9 -88 11 -142s3 -109 3 -165s-1.33301 -111 -4 -165s-6 -101.333 -10 -142c-6.66699 -56 -21.667 -110 -45 -162s-54.333 -97.5 -93 -136.5s-85.334 -70 -140.001 -93s-115.667 -34.5 -183 -34.5
c-61.333 0 -118.333 9.83301 -171 29.5s-99 48 -139 85s-73 81.667 -99 134s-43 111.5 -51 177.5c-5.33301 40.667 -9.5 88 -12.5 142s-4.5 109.333 -4.5 166zM287.001 717.002c0 -56 1.33594 -110.668 4.00293 -164.001s6.66699 -101 12 -143c4 -30 12.5 -59 25.5 -87
s30.833 -52.667 53.5 -74s49.667 -38.5 81 -51.5s66.666 -19.5 105.999 -19.5c69.333 0 128.333 20.167 177 60.5s78.667 97.5 90 171.5c5.33301 42 9.66602 89.667 12.999 143s5 108 5 164s-1.66699 110.667 -5 164s-7.66602 101 -12.999 143c-4 30 -12.5 59 -25.5 87
s-30.833 52.667 -53.5 74s-49.334 38.333 -80.001 51s-66.667 19 -108 19c-66.667 0 -125.334 -19.667 -176.001 -59s-80.667 -96.666 -90 -171.999c-5.33301 -42 -9.33301 -89.667 -12 -143s-4 -108 -4 -164z" />
    <glyph glyph-name="P" unicode="P" horiz-adv-x="993" 
d="M133 41v1352c0 10.667 4.16699 20.167 12.5 28.5s17.833 12.5 28.5 12.5h369c58.667 0 114.167 -11.333 166.5 -34s98 -53.5 137 -92.5s69.833 -84.667 92.5 -137s34 -107.833 34 -166.5c0 -60 -11.333 -116 -34 -168s-53.5 -97.5 -92.5 -136.5
s-84.667 -69.833 -137 -92.5s-107.833 -34 -166.5 -34h-195c-13.333 0 -20 -6.66699 -20 -20v-512c0 -10.667 -4.16699 -20.167 -12.5 -28.5s-17.833 -12.5 -28.5 -12.5h-113c-10.667 0 -20.167 4.16699 -28.5 12.5s-12.5 17.833 -12.5 28.5zM328 788
c0 -13.333 6.66699 -20 20 -20h195c32.667 0 63 6.16699 91 18.5s52.833 29.333 74.5 51s38.667 46.5 51 74.5s18.5 58.667 18.5 92c0 32.667 -6.16699 63 -18.5 91s-29.333 52.833 -51 74.5s-46.5 38.667 -74.5 51s-58.333 18.5 -91 18.5h-195
c-13.333 0 -20 -6.66699 -20 -20v-431z" />
    <glyph glyph-name="Q" unicode="Q" horiz-adv-x="1138" 
d="M92 718c0 56.667 1.33008 111.667 3.99707 165s7 100.333 13 141c6.66699 56 21.5 109.667 44.5 161s54 96.666 93 135.999s85.5 70.666 139.5 93.999s115 35 183 35c61.333 0 118.333 -9.83301 171 -29.5s99.167 -48 139.5 -85s73.5 -81.833 99.5 -134.5
s43 -111.667 51 -177c5.33301 -40.667 9 -88 11 -142s3 -109 3 -165s-1.33301 -111 -4 -165s-6 -101.333 -10 -142c-12 -113.333 -55.667 -209.666 -131 -288.999c-4 -4 -6.66699 -8.16699 -8 -12.5s-0.666016 -9.83301 2.00098 -16.5l108 -219
c6.66699 -15.333 6.33398 -28.666 -0.999023 -39.999s-17.666 -17 -30.999 -17h-125c-16.667 0 -30.334 10 -41.001 30l-76 146c-5.33301 8 -13.166 11.333 -23.499 10s-18.833 -3.33301 -25.5 -6c-32.667 -8 -69 -12 -109 -12c-61.333 0 -118.333 9.83301 -171 29.5
s-99 48 -139 85s-73 81.667 -99 134s-43 111.5 -51 177.5c-5.33301 40.667 -9.5 88 -12.5 142s-4.5 109.333 -4.5 166zM286.997 717c0 -56 1.33594 -110.668 4.00293 -164.001s6.66699 -101 12 -143c4 -30 12.5 -59 25.5 -87s30.833 -52.667 53.5 -74s49.667 -38.5 81 -51.5
s66.666 -19.5 105.999 -19.5c69.333 0 128.333 20.167 177 60.5s78.667 97.5 90 171.5c5.33301 42 9.66602 89.667 12.999 143s5 108 5 164s-1.66699 110.667 -5 164s-7.66602 101 -12.999 143c-4 30 -12.5 59 -25.5 87s-30.833 52.667 -53.5 74s-49.334 38.333 -80.001 51
s-66.667 19 -108 19c-66.667 0 -125.334 -19.667 -176.001 -59s-80.667 -96.666 -90 -171.999c-5.33301 -42 -9.33301 -89.667 -12 -143s-4 -108 -4 -164z" />
    <glyph glyph-name="R" unicode="R" horiz-adv-x="1064" 
d="M133 41l0.000976562 1352c0 10.667 4.16699 20.167 12.5 28.5s17.833 12.5 28.5 12.5h369c58.667 0 114.167 -11.333 166.5 -34s98 -53.5 137 -92.5s69.833 -84.667 92.5 -137s34 -107.833 34 -166.5c0 -78 -19.833 -149.5 -59.5 -214.5
s-90.834 -115.833 -153.501 -152.5c-19.333 -10.667 -32.333 -21.5 -39 -32.5s-5.33398 -26.167 3.99902 -45.5l242 -498c6.66699 -15.333 6.83398 -29.333 0.500977 -42s-19.5 -19 -39.5 -19h-115c-16.667 0 -29 3.83301 -37 11.5s-15.333 17.5 -22 29.5l-242 508
c-2.66699 6.66699 -7.16699 12.334 -13.5 17.001s-14.833 7 -25.5 7h-125c-13.333 0 -20 -6.66699 -20 -20v-512c0 -10.667 -4.16699 -20.167 -12.5 -28.5s-17.833 -12.5 -28.5 -12.5h-113c-10.667 0 -20.167 4.16699 -28.5 12.5s-12.5 17.833 -12.5 28.5zM328.001 787.999
c0 -13.333 6.66699 -20 20 -20h195c32.667 0 63 6.16699 91 18.5s52.833 29.333 74.5 51s38.667 46.5 51 74.5s18.5 58.667 18.5 92c0 32.667 -6.16699 63 -18.5 91s-29.333 52.833 -51 74.5s-46.5 38.667 -74.5 51s-58.333 18.5 -91 18.5h-195
c-13.333 0 -20 -6.66699 -20 -20v-431z" />
    <glyph glyph-name="S" unicode="S" horiz-adv-x="1044" 
d="M61 410l0.00195312 31.9951c0 10.667 4.16699 20.167 12.5 28.5s17.833 12.5 28.5 12.5h115c10.667 0 20.167 -4 28.5 -12s12.5 -17.667 12.5 -29v-32c0 -32.667 6.5 -63.5 19.5 -92.5s31.5 -53.667 55.5 -74s52 -36.333 84 -48s67 -17.5 105 -17.5
s73.167 5.83301 105.5 17.5s60.5 28 84.5 49s42.333 45.667 55 74s19 58.833 19 91.5c0 48 -8.16699 86.167 -24.5 114.5s-39.5 51.833 -69.5 70.5s-66.167 33.334 -108.5 44.001l-141.5 35c-50.667 10.667 -96.667 26.667 -138 48s-77 48 -107 80s-53.667 69.833 -71 113.5
s-26 93.5 -26 149.5c0 61.333 12 115.833 36 163.5s55.833 88 95.5 121s84.667 58 135 75s102.166 25.5 155.499 25.5c60 0 115.667 -10.167 167 -30.5s95.833 -48 133.5 -83s67 -75.667 88 -122s31.5 -96.166 31.5 -149.499v-27c0 -10.667 -4 -20.167 -12 -28.5
s-17.667 -12.5 -29 -12.5h-113c-10.667 0 -20 4.16699 -28 12.5s-12 17.833 -12 28.5v27c0 34 -6.83301 63 -20.5 87s-31.5 43.833 -53.5 59.5s-46.333 26.834 -73 33.501s-53 10 -79 10c-66.667 0 -120.834 -17 -162.501 -51s-62.5 -80.333 -62.5 -139
c0 -45.333 9.83301 -81.166 29.5 -107.499s44.5 -47.5 74.5 -63.5s63.167 -28 99.5 -36s70.833 -16 103.5 -24c116 -28.667 208.167 -77.167 276.5 -145.5s102.5 -161.166 102.5 -278.499c0 -65.333 -13 -124.333 -39 -177s-60.167 -97.5 -102.5 -134.5
s-91.5 -65.333 -147.5 -85s-113.333 -29.5 -172 -29.5c-65.333 0 -126.333 11.167 -183 33.5s-105.5 53 -146.5 92s-73.167 84.167 -96.5 135.5s-35 106.333 -35 165z" />
    <glyph glyph-name="T" unicode="T" horiz-adv-x="868" 
d="M4 1280v113c0 10.667 4.16699 20.167 12.5 28.5s17.833 12.5 28.5 12.5h778c10.667 0 20.167 -4.16699 28.5 -12.5s12.5 -17.833 12.5 -28.5v-113c0 -10.667 -4 -20.167 -12 -28.5s-17.667 -12.5 -29 -12.5h-270c-13.333 0 -20.333 -6.66699 -21 -20v-1178
c0 -10.667 -4 -20.167 -12 -28.5s-17.333 -12.5 -28 -12.5h-113c-10.667 0 -20.167 4.16699 -28.5 12.5s-12.5 17.833 -12.5 28.5v1178c0 13.333 -7 20 -21 20h-272c-10.667 0 -20.167 4.16699 -28.5 12.5s-12.5 17.833 -12.5 28.5z" />
    <glyph glyph-name="U" unicode="U" horiz-adv-x="1142" 
d="M111 410v983.001c0 10.667 4 20.167 12 28.5s17.667 12.5 29 12.5h112c10.667 0 20.167 -4.16699 28.5 -12.5s12.5 -17.833 12.5 -28.5v-983c0 -40.667 7.5 -75.834 22.5 -105.501s35.167 -53.667 60.5 -72s54 -32 86 -41s64.333 -13.5 97 -13.5
c38 0 73.5 5.83301 106.5 17.5s61.5 28 85.5 49s42.5 45.5 55.5 73.5s19.5 58.667 19.5 92v983c0 10.667 4 20.167 12 28.5s17.667 12.5 29 12.5h112c10.667 0 20.167 -4.16699 28.5 -12.5s12.5 -17.833 12.5 -28.5v-983c0 -61.333 -12.333 -118 -37 -170
s-58.167 -97.167 -100.5 -135.5s-91.333 -68 -147 -89s-114.5 -31.5 -176.5 -31.5c-65.333 0 -126.333 10.5 -183 31.5s-105.5 50.667 -146.5 89s-73 83.333 -96 135s-34.5 108.5 -34.5 170.5z" />
    <glyph glyph-name="V" unicode="V" horiz-adv-x="1026" 
d="M12 1384c-0.666992 3.33301 -1 6.66504 -1 9.99805c0.666992 7.33301 3 15 7 23c6.66699 11.333 17.667 17 33 17h123c20.667 0 33.667 -10.333 39 -31l285 -1092c1.33301 -8 5.33301 -12 12 -12h4c5.33301 0 9.33301 4 12 12l285 1092c5.33301 20.667 18.333 31 39 31
h125c16.667 0 28 -5.33301 34 -16c4 -7.33301 6 -14.666 6 -21.999c0 -3.33301 -0.333008 -6.66602 -1 -9.99902l-383 -1355c-6.66699 -20.667 -19.667 -31 -39 -31h-160c-20.667 -0 -33.667 10.333 -39 31z" />
    <glyph glyph-name="W" unicode="W" horiz-adv-x="1472" 
d="M12 1393c-0.666992 2.66699 -0.999023 5.66699 -0.999023 9c-0.666992 8 1.66602 14.667 6.99902 20c6.66699 8 18.334 12 35.001 12h111c22 0 35 -10.333 39 -31l200 -1051c1.33301 -8 5.66602 -12 12.999 -12h4c5.33301 0 9.33301 4 12 12l176 1051
c4 20.667 17 31 39 31h144c22 0 34.667 -10.333 38 -31l193 -1051c1.33301 -8 5.33301 -12 12 -12h4c5.33301 0 9.66602 4 12.999 12l219 1051c4 20.667 17 31 39 31h110c16.667 0 28.334 -4 35.001 -12c4.66699 -6 7 -12.667 7 -20c0 -2.66699 -0.333008 -5.66699 -1 -9
l-291 -1362c-4 -20.667 -17 -31 -39 -31h-174c-22 -0 -34.667 10.333 -38 31l-189 1022c-1.33301 5.33301 -4 8 -8 8s-6.66699 -2.66699 -8 -8l-176 -1022c-4 -20.667 -17 -31 -39 -31h-174c-22 -0 -35 10.333 -39 31z" />
    <glyph glyph-name="X" unicode="X" horiz-adv-x="1021" 
d="M37 57l349.998 683.998c6.66699 10.667 7.33398 20.334 2.00098 29.001l-321 606c-6.66699 15.333 -6.33398 28.833 0.999023 40.5s17.666 17.5 30.999 17.5h131c16.667 0 29.667 -10.333 39 -31l232 -445c5.33301 -13.333 10.666 -13.333 15.999 0l232 445
c9.33301 20.667 22 31 38 31h132c13.333 0 23.833 -5.83301 31.5 -17.5s7.83398 -25.167 0.500977 -40.5l-321 -606c-5.33301 -8 -4.66602 -17.667 2.00098 -29l352 -684c3.33301 -7.33301 5 -14.333 5 -21c0 -7.33301 -2 -13.666 -6 -18.999
c-7.33301 -11.333 -18 -17 -32 -17h-139c-18 -0 -31.667 10.333 -41 31l-254 508c-5.33301 13.333 -10.666 13.333 -15.999 0l-254 -508c-9.33301 -20.667 -23.666 -31 -42.999 -31h-135c-13.333 0 -24 6 -32 18c-4 6 -6 12.667 -6 20c0 6 1.66699 12.333 5 19z" />
    <glyph glyph-name="Y" unicode="Y" horiz-adv-x="937" 
d="M25 1376c-3.33301 7.33301 -4.99805 14.332 -4.99805 20.999s2 13 6 19c7.33301 12 17.666 18 30.999 18h136c19.333 0 32 -10.333 38 -31l232 -637c5.33301 -13.333 10.666 -13.333 15.999 0l228 637c6.66699 20.667 19.334 31 38.001 31h136
c13.333 0 23.666 -6 30.999 -18c4 -5.33301 6 -11.666 6 -18.999c0 -6.66699 -1.66699 -13.667 -5 -21l-344 -882v-453c0 -10.667 -4 -20.167 -12 -28.5s-17.667 -12.5 -29 -12.5h-114c-10.667 0 -20.167 4.16699 -28.5 12.5s-12.5 17.833 -12.5 28.5v451z" />
    <glyph glyph-name="Z" unicode="Z" horiz-adv-x="983" 
d="M70 41v153.998c0 10.667 3.33301 21.334 10 32.001l602 998c2.66699 5.33301 3 10 1 14s-6.33301 6 -13 6h-539c-10.667 0 -20.167 4.16699 -28.5 12.5s-12.5 17.833 -12.5 28.5v107c0 10.667 4.16699 20.167 12.5 28.5s17.833 12.5 28.5 12.5h721
c10.667 0 20.167 -4.16699 28.5 -12.5s12.5 -17.833 12.5 -28.5v-148c0 -10.667 -3.33301 -21.667 -10 -33l-594 -1001c-2.66699 -5.33301 -3 -10.166 -1 -14.499s6.33301 -6.5 13 -6.5h571c10.667 0 20.167 -4 28.5 -12s12.5 -17.333 12.5 -28v-109
c0 -10.667 -4 -20.167 -12 -28.5s-17.667 -12.5 -29 -12.5h-761c-10.667 0 -20.167 4.16699 -28.5 12.5s-12.5 17.833 -12.5 28.5z" />
    <glyph glyph-name="bracketleft" unicode="[" horiz-adv-x="598" 
d="M143 -143v1577c0 10.667 4.16699 20.167 12.5 28.5s17.833 12.5 28.5 12.5h348c10.667 0 20.167 -4.16699 28.5 -12.5s12.5 -17.833 12.5 -28.5v-97c0 -10.667 -4 -20.167 -12 -28.5s-17.667 -12.5 -29 -12.5h-190c-13.333 0 -20 -6.66699 -20 -20v-1262
c0 -13.333 6.66699 -20 20 -20h195c10.667 0 20.167 -4.16699 28.5 -12.5s12.5 -17.833 12.5 -28.5v-96c0 -10.667 -4.16699 -20.167 -12.5 -28.5s-17.833 -12.5 -28.5 -12.5h-353c-10.667 0 -20.167 4 -28.5 12s-12.5 17.667 -12.5 29z" />
    <glyph glyph-name="backslash" unicode="\" horiz-adv-x="937" 
d="M109 1397c-6.66699 15.333 -6.33398 28.667 0.999023 40s17.666 17 30.999 17h107c19.333 0 32.333 -10.333 39 -31l544 -1390c6.66699 -15.333 6.33398 -28.833 -0.999023 -40.5s-17.666 -17.5 -30.999 -17.5h-107c-22 0 -36.333 10.333 -43 31z" />
    <glyph glyph-name="bracketright" unicode="]" horiz-adv-x="598" 
d="M20 -47c0 10.667 4.16699 20.167 12.5 28.5s17.833 12.5 28.5 12.5h195c13.333 0 20 6.66699 20 20v1262c0 13.333 -6.66699 20 -20 20h-190c-10.667 0 -20.167 4.16699 -28.5 12.5s-12.5 17.833 -12.5 28.5v97c0 10.667 4 20.167 12 28.5s17.667 12.5 29 12.5h348
c10.667 0 20.167 -4.16699 28.5 -12.5s12.5 -17.833 12.5 -28.5v-1577c0 -10.667 -4.16699 -20.167 -12.5 -28.5s-17.833 -12.5 -28.5 -12.5h-353c-10.667 0 -20.167 4 -28.5 12s-12.5 17.667 -12.5 29v96z" />
    <glyph glyph-name="asciicircum" unicode="^" horiz-adv-x="1040" 
d="M194.5 1214.5c-4.33301 11 -2.83691 19.833 4.49609 26.5l221 229c6.66699 6.66699 13.834 12.5 21.501 17.5s20.834 7.5 39.501 7.5h86c18 0 30.667 -2.33301 38 -7s14.666 -10.667 21.999 -18l221 -229c6.66699 -6.66699 8 -15.5 4 -26.5s-13 -16.5 -27 -16.5h-120
c-15.333 0 -28.166 3.83301 -38.499 11.5s-18.833 14.834 -25.5 21.501l-104 100c-9.33301 9.33301 -19 9.33301 -29 0l-102 -100c-6.66699 -6.66699 -15.167 -13.834 -25.5 -21.501s-23.166 -11.5 -38.499 -11.5h-121c-13.333 0 -22.166 5.5 -26.499 16.5z" />
    <glyph glyph-name="underscore" unicode="_" horiz-adv-x="1249" 
d="M41 -41c0 10.667 4.16699 20.167 12.5 28.5s17.833 12.5 28.5 12.5h1085c10.667 -0 20.167 -4.16699 28.5 -12.5s12.5 -17.833 12.5 -28.5v-72c0 -10.667 -4 -20.167 -12 -28.5s-17.667 -12.5 -29 -12.5h-1085c-10.667 0 -20.167 4.16699 -28.5 12.5
s-12.5 17.833 -12.5 28.5v72z" />
    <glyph glyph-name="grave" unicode="`" horiz-adv-x="608" 
d="M105 1478.5c4 11 12.668 16.499 26.001 16.499h162c15.333 0 26.666 -3.66699 33.999 -11s13.666 -14.666 18.999 -21.999l156 -223c5.33301 -6.66699 5.33301 -15.167 0 -25.5s-15 -15.5 -29 -15.5h-82c-19.333 0 -32.666 2.33301 -39.999 7s-14.333 10.667 -21 18
l-221 229c-6.66699 6.66699 -8 15.5 -4 26.5z" />
    <glyph glyph-name="a" unicode="a" horiz-adv-x="997" 
d="M88 307c0 42 7.50293 81.833 22.5029 119.5s36.833 70.834 65.5 99.501s64.167 51.167 106.5 67.5s90.166 24.5 143.499 24.5h250c13.333 0 20 7 20 21v78c0 56 -17.333 97.333 -52 124s-80.667 40 -138 40c-18 0 -37.833 -2.16699 -59.5 -6.5s-42.5 -11.5 -62.5 -21.5
s-36.5 -23.333 -49.5 -40s-19.5 -37 -19.5 -61c0 -18 -5.33301 -28.333 -16 -31s-21 -4 -31 -4h-92c-27.333 0 -41 13.667 -41 41c0 48 11.333 89.667 34 125s51.667 65 87 89s74.833 42 118.5 54s87.5 18 131.5 18c116 0 207.5 -25.833 274.5 -77.5
s100.5 -134.834 100.5 -249.501v-676c0 -10.667 -4.16699 -20.167 -12.5 -28.5s-17.833 -12.5 -28.5 -12.5h-70c-10.667 0 -20.334 4.66699 -29.001 14c-6.66699 8 -12.334 17.167 -17.001 27.5s-12.667 15.5 -24 15.5c-9.33301 0 -19.833 -4 -31.5 -12
s-26.667 -16.833 -45 -26.5s-40.5 -18.5 -66.5 -26.5s-58 -12 -96 -12c-62.667 0 -117.667 8.83301 -165 26.5s-86.333 41.5 -117 71.5s-53.5 64.833 -68.5 104.5s-22.5 81.167 -22.5 124.5zM272.003 309c0 -50.667 15.5 -89.833 46.5 -117.5s76.5 -41.5 136.5 -41.5
c94 0 160.5 18.333 199.5 55s58.5 90 58.5 160v65c0 13.333 -7 20.333 -21 21h-266c-52 0 -90.667 -12.667 -116 -38s-38 -60 -38 -104z" />
    <glyph glyph-name="b" unicode="b" horiz-adv-x="1034" 
d="M133 41l-0.00292969 1366c0 10.667 4.16699 20.167 12.5 28.5s17.833 12.5 28.5 12.5h102c10.667 0 20.167 -4.16699 28.5 -12.5s12.5 -17.833 12.5 -28.5v-363c0 -19.333 3.83301 -32.666 11.5 -39.999s18.834 -11 33.501 -11c9.33301 0 20.333 2.83301 33 8.5
s26.834 11.5 42.501 17.5s33 11.667 52 17s40.167 8 63.5 8c53.333 0 102.833 -10.167 148.5 -30.5s85.5 -47.833 119.5 -82.5s61.667 -76 83 -124s34 -98.667 38 -152c2.66699 -40.667 4 -88.334 4 -143.001s-1.33301 -102.334 -4 -143.001
c-4 -53.333 -16.667 -104 -38 -152s-49 -89.333 -83 -124s-73.833 -62.167 -119.5 -82.5s-95.167 -30.5 -148.5 -30.5c-38 0 -68.667 3.33301 -92 10s-42.5 14.5 -57.5 23.5l-40 23.5c-11.667 6.66699 -24.834 10 -39.501 10c-10.667 0 -20.167 -3.66699 -28.5 -11
s-16.166 -14.666 -23.499 -21.999c-9.33301 -9.33301 -18.666 -14 -27.999 -14h-70c-10.667 0 -20.167 4.16699 -28.5 12.5s-12.5 17.833 -12.5 28.5zM292.997 512c0 -53.333 1.33301 -101 4 -143c4 -54.667 26.5 -102.5 67.5 -143.5s96.833 -61.5 167.5 -61.5
s126.667 20.5 168 61.5s64 88.833 68 143.5c2.66699 42 4 89.667 4 143s-1.33301 101 -4 143c-4 54.667 -26.5 102.5 -67.5 143.5s-97.167 61.5 -168.5 61.5c-70.667 0 -126.5 -20.5 -167.5 -61.5s-63.5 -88.833 -67.5 -143.5c-2.66699 -42 -4 -89.667 -4 -143z" />
    <glyph glyph-name="c" unicode="c" horiz-adv-x="978" 
d="M88 512c0 54.667 1.33398 102.333 4.00098 143c4 53.333 16 104 36 152s47.333 89.333 82 124s76.667 62.167 126 82.5s104.666 30.5 165.999 30.5c57.333 0 110.166 -8.83301 158.499 -26.5s90 -41.834 125 -72.501s62.333 -67.5 82 -110.5s29.5 -89.167 29.5 -138.5
c0 -10.667 -3 -20.167 -9 -28.5s-14.667 -12.5 -26 -12.5h-110c-9.33301 0 -18.166 2.83301 -26.499 8.5s-12.5 13.834 -12.5 24.501c0 48 -19.167 88.667 -57.5 122s-89.5 50 -153.5 50c-70.667 0 -124.834 -20.5 -162.501 -61.5s-58.834 -88.833 -63.501 -143.5
c-2.66699 -42 -4 -89.667 -4 -143s1.33301 -101 4 -143c4 -54.667 24.833 -102.5 62.5 -143.5s92.167 -61.5 163.5 -61.5c62.667 0 113.167 16.333 151.5 49s57.5 73 57.5 121c0 13.333 4 22.5 12 27.5s17 7.5 27 7.5h106c10.667 0 20.167 -4.16699 28.5 -12.5
s12.5 -17.833 12.5 -28.5c0 -49.333 -9.83301 -95.5 -29.5 -138.5s-47 -79.833 -82 -110.5s-76.667 -54.834 -125 -72.501s-101.166 -26.5 -158.499 -26.5c-61.333 0 -116.666 10.167 -165.999 30.5s-91.333 47.833 -126 82.5s-62 76 -82 124s-32 98.667 -36 152
c-2.66699 40.667 -4 88.334 -4 143.001z" />
    <glyph glyph-name="d" unicode="d" horiz-adv-x="1034" 
d="M88 512c0 54.667 1.33496 102.331 4.00195 142.998c4 53.333 16.667 104 38 152s49 89.333 83 124s73.833 62.167 119.5 82.5s95.167 30.5 148.5 30.5c23.333 0 44.5 -2.66699 63.5 -8s36 -11 51 -17s28.667 -11.833 41 -17.5s24.166 -8.5 35.499 -8.5
c15.333 0 26.666 3.83301 33.999 11.5s11 20.834 11 39.501v363c0 10.667 4 20.167 12 28.5s17.667 12.5 29 12.5h102c10.667 0 20.167 -4.16699 28.5 -12.5s12.5 -17.833 12.5 -28.5v-1366c0 -10.667 -4 -20.167 -12 -28.5s-17.667 -12.5 -29 -12.5h-69
c-9.33301 0 -19 4.66699 -29 14l-22.5 21.5c-8.33301 7.66699 -17.833 11.5 -28.5 11.5c-15.333 0 -28.833 -3.33301 -40.5 -10l-40 -23.5c-15 -9 -34.167 -16.833 -57.5 -23.5s-54 -10 -92 -10c-53.333 0 -102.833 10.167 -148.5 30.5s-85.5 47.833 -119.5 82.5
s-61.667 76 -83 124s-34 98.667 -38 152c-2.66699 40.667 -4 88.334 -4 143.001zM262.002 511.997c0 -53.333 1.33301 -101 4 -143c4 -54.667 26.5 -102.5 67.5 -143.5s97.167 -61.5 168.5 -61.5c70.667 0 126.5 20.5 167.5 61.5s63.5 88.833 67.5 143.5
c2.66699 42 4 89.667 4 143s-1.33301 101 -4 143c-4 54.667 -26.5 102.5 -67.5 143.5s-96.833 61.5 -167.5 61.5s-126.667 -20.5 -168 -61.5s-64 -88.833 -68 -143.5c-2.66699 -42 -4 -89.667 -4 -143z" />
    <glyph glyph-name="e" unicode="e" horiz-adv-x="1007" 
d="M88 512c0 54.667 1.33301 102.332 4 142.999c4 53.333 16.667 104 38 152s50 89.333 86 124s79 62.167 129 82.5s105.667 30.5 167 30.5c124 0 223.333 -36.167 298 -108.5s112 -172.5 112 -300.5v-141c0 -10.667 -4.16699 -20.167 -12.5 -28.5
s-17.833 -12.5 -28.5 -12.5h-586c-13.333 0 -20.333 -7 -21 -21c0 -94 22 -162.167 66 -204.5s101.333 -63.5 172 -63.5c53.333 0 98.833 12 136.5 36s62.5 55 74.5 93c4 13.333 10.5 22.5 19.5 27.5s18.167 7.5 27.5 7.5h104c10.667 0 19.834 -3.16699 27.501 -9.5
s10.167 -16.833 7.5 -31.5c-6.66699 -45.333 -20.834 -86.833 -42.501 -124.5s-50 -70 -85 -97s-75.333 -48 -121 -63s-95.167 -22.5 -148.5 -22.5c-61.333 0 -117 10.167 -167 30.5s-93 47.833 -129 82.5s-64.667 76 -86 124s-34 98.667 -38 152
c-2.66699 40.667 -4 88.334 -4 143.001zM279 636.998c0 -13.333 6.66699 -20.333 20 -21h426c13.333 0 20 7 20 21c0 70.667 -22.5 125.5 -67.5 164.5s-99.5 58.5 -163.5 58.5c-70.667 0 -127.5 -21.5 -170.5 -64.5s-64.5 -95.833 -64.5 -158.5z" />
    <glyph glyph-name="f" unicode="f" horiz-adv-x="700" 
d="M10 870l0.000976562 103c0 10.667 4.16699 20.167 12.5 28.5s17.833 12.5 28.5 12.5h154c13.333 0 20 6.66699 20 20v31c0 53.333 9.66699 103.5 29 150.5s46 87.667 80 122s74.167 61.333 120.5 81s96.166 29.5 149.499 29.5h21c10.667 0 20.167 -4.16699 28.5 -12.5
s12.5 -17.833 12.5 -28.5v-96c0 -10.667 -4.16699 -20.167 -12.5 -28.5s-17.833 -12.5 -28.5 -12.5h-21c-27.333 0 -52.833 -5.83301 -76.5 -17.5s-44.167 -27 -61.5 -46s-31 -40.833 -41 -65.5s-15 -50 -15 -76v-31c0 -13.333 6.66699 -20 20 -20h209
c10.667 0 20.167 -4.16699 28.5 -12.5s12.5 -17.833 12.5 -28.5v-103c0 -10.667 -4.16699 -20.167 -12.5 -28.5s-17.833 -12.5 -28.5 -12.5h-209c-13.333 0 -20 -6.66699 -20 -20v-768c0 -10.667 -4.16699 -20.167 -12.5 -28.5s-17.833 -12.5 -28.5 -12.5h-103
c-10.667 0 -20.167 4.16699 -28.5 12.5s-12.5 17.833 -12.5 28.5v768c0 13.333 -6.66699 20 -20 20h-154c-10.667 0 -20.167 4.16699 -28.5 12.5s-12.5 17.833 -12.5 28.5z" />
    <glyph glyph-name="g" unicode="g" horiz-adv-x="1028" 
d="M88 512c0 54.667 1.33691 102.332 4.00391 142.999c4 53.333 16.667 104 38 152s49 89.333 83 124s73.833 62.167 119.5 82.5s95.167 30.5 148.5 30.5c38 0 68.667 -3.33301 92 -10s42.5 -14.5 57.5 -23.5l40 -23.5c11.667 -6.66699 25.167 -10 40.5 -10
c10.667 0 20.167 3.66699 28.5 11s15.833 14.666 22.5 21.999c9.33301 9.33301 19 14 29 14h69c10.667 0 20.167 -4.16699 28.5 -12.5s12.5 -17.833 12.5 -28.5v-1044c0 -49.333 -9.16699 -96.5 -27.5 -141.5s-44.333 -84.333 -78 -118s-73.334 -60.334 -119.001 -80.001
s-95.834 -29.5 -150.501 -29.5c-45.333 0 -89 5.83301 -131 17.5s-79.833 29.334 -113.5 53.001s-61.667 53 -84 88s-36.833 75.5 -43.5 121.5c-0.666992 4 -1 7.66699 -1 11c0 24 12.333 36.333 37 37h99c22 0 35.333 -4.16699 40 -12.5s9 -17.833 13 -28.5
c13.333 -34 34.5 -59.667 63.5 -77s69.167 -26 120.5 -26c52 0 96.833 16.833 134.5 50.5s56.5 78.5 56.5 134.5v45c0 19.333 -3.83301 32.333 -11.5 39s-18.834 9.33398 -33.501 8.00098c-10.667 0 -22.334 -2.83301 -35.001 -8.5s-26.5 -11.5 -41.5 -17.5
s-32 -11.667 -51 -17s-40.167 -8 -63.5 -8c-53.333 0 -102.833 10.167 -148.5 30.5s-85.5 47.833 -119.5 82.5s-61.667 76 -83 124s-34 98.667 -38 152c-2.66699 40.667 -4 88.334 -4 143.001zM262.004 511.998c0 -53.333 1.33301 -101 4 -143
c4 -54.667 26.5 -102.5 67.5 -143.5s97.167 -61.5 168.5 -61.5c70.667 0 126.5 20.5 167.5 61.5s63.5 88.833 67.5 143.5c2.66699 42 4 89.667 4 143s-1.33301 101 -4 143c-4 54.667 -26.5 102.5 -67.5 143.5s-96.833 61.5 -167.5 61.5s-126.667 -20.5 -168 -61.5
s-64 -88.833 -68 -143.5c-2.66699 -42 -4 -89.667 -4 -143z" />
    <glyph glyph-name="h" unicode="h" horiz-adv-x="1052" 
d="M133 41l-0.00195312 1366c0 10.667 4.16699 20.167 12.5 28.5s17.833 12.5 28.5 12.5h102c10.667 0 20.167 -4.16699 28.5 -12.5s12.5 -17.833 12.5 -28.5v-371c0 -9.33301 3.83301 -18.833 11.5 -28.5s18.834 -14.5 33.501 -14.5c9.33301 0 20.333 2.83301 33 8.5
s26.5 11.5 41.5 17.5s32 11.667 51 17s40.167 8 63.5 8c53.333 0 103.833 -10.167 151.5 -30.5s89 -47.833 124 -82.5s62.667 -76 83 -124s30.5 -98.667 30.5 -152v-614c0 -10.667 -4.16699 -20.167 -12.5 -28.5s-17.833 -12.5 -28.5 -12.5h-102
c-10.667 0 -20.167 4.16699 -28.5 12.5s-12.5 17.833 -12.5 28.5v614c0 26 -5.5 51.667 -16.5 77s-26.333 47.166 -46 65.499s-42.834 33.333 -69.501 45s-55.667 17.5 -87 17.5s-60.666 -5.16699 -87.999 -15.5s-50.666 -24.333 -69.999 -42s-34.5 -38.334 -45.5 -62.001
s-16.5 -48.5 -16.5 -74.5v-625c0 -10.667 -4 -20.167 -12 -28.5s-17.667 -12.5 -29 -12.5h-102c-10.667 0 -20.167 4.16699 -28.5 12.5s-12.5 17.833 -12.5 28.5z" />
    <glyph glyph-name="i" unicode="i" horiz-adv-x="471" 
d="M133 1274l0.00195312 141c0 8 3.16699 15.5 9.5 22.5s14.166 10.5 23.499 10.5h139c9.33301 0 17.166 -3.5 23.499 -10.5s9.5 -14.5 9.5 -22.5v-141c0 -22 -11 -33 -33 -33h-139c-22 0 -33 11 -33 33zM143.002 41v942c0 10.667 4.16699 20.167 12.5 28.5
s17.833 12.5 28.5 12.5h107c10.667 0 20.167 -4.16699 28.5 -12.5s12.5 -17.833 12.5 -28.5v-942c0 -10.667 -4.16699 -20.167 -12.5 -28.5s-17.833 -12.5 -28.5 -12.5h-107c-10.667 0 -20.167 4.16699 -28.5 12.5s-12.5 17.833 -12.5 28.5z" />
    <glyph glyph-name="j" unicode="j" horiz-adv-x="509" 
d="M-154 -287c0 10.667 4.16797 20.168 12.501 28.501s17.833 12.5 28.5 12.5h107c52 0 95.667 16.833 131 50.5s53 78.5 53 134.5v1044c0 10.667 4.16699 20.167 12.5 28.5s17.833 12.5 28.5 12.5h109c10.667 0 20.167 -4.16699 28.5 -12.5s12.5 -17.833 12.5 -28.5v-1044
c0 -49.333 -9.33301 -96.5 -28 -141.5s-44.667 -84.333 -78 -118s-72.833 -60.334 -118.5 -80.001s-95.834 -29.5 -150.501 -29.5h-107c-10.667 0 -20.167 4 -28.5 12s-12.5 17.667 -12.5 29v102zM172.001 1274l0.000976562 141c0 8 3 15.5 9 22.5s14 10.5 24 10.5h139
c9.33301 0 17.166 -3.5 23.499 -10.5s9.5 -14.5 9.5 -22.5v-141c0 -22 -11 -33 -33 -33h-139c-22 0 -33 11 -33 33z" />
    <glyph glyph-name="k" unicode="k" horiz-adv-x="899" 
d="M133 41l-0.000976562 1366c0 10.667 4.16699 20.167 12.5 28.5s17.833 12.5 28.5 12.5h102c10.667 0 20.167 -4.16699 28.5 -12.5s12.5 -17.833 12.5 -28.5v-713c0 -5.33301 2.16699 -8.33301 6.5 -9s7.83301 1 10.5 5l293 307l18 17.5
c6.66699 6.33301 17.667 9.5 33 9.5h117c22 0 35.667 -8.5 41 -25.5s2.33301 -31.167 -9 -42.5l-370 -395c-15.333 -15.333 -15.333 -31.666 0 -48.999l409 -444c7.33301 -8 11 -16.667 11 -26c0 -6 -1.33301 -12 -4 -18c-7.33301 -16 -20.333 -24 -39 -24h-138
c-15.333 -0 -26.666 3.83301 -33.999 11.5l-19 19.5l-309 336c-2.66699 2.66699 -6.16699 4 -10.5 4s-6.5 -3 -6.5 -9v-321c0 -10.667 -4 -20.167 -12 -28.5s-17.667 -12.5 -29 -12.5h-102c-10.667 0 -20.167 4.16699 -28.5 12.5s-12.5 17.833 -12.5 28.5z" />
    <glyph glyph-name="l" unicode="l" horiz-adv-x="450" 
d="M133 41v1366c0 10.667 4.16699 20.167 12.5 28.5s17.833 12.5 28.5 12.5h102c10.667 0 20.167 -4.16699 28.5 -12.5s12.5 -17.833 12.5 -28.5v-1366c0 -10.667 -4 -20.167 -12 -28.5s-17.667 -12.5 -29 -12.5h-102c-10.667 0 -20.167 4.16699 -28.5 12.5
s-12.5 17.833 -12.5 28.5z" />
    <glyph glyph-name="m" unicode="m" horiz-adv-x="1574" 
d="M123 41l0.00195312 941.999c0 10.667 4 20.167 12 28.5s17.667 12.5 29 12.5h90c9.33301 0 19 -4.66699 29 -14l21 -21.5c7.33301 -7.66699 17.333 -11.5 30 -11.5c16.667 0 31.667 3.33301 45 10l45 23.5c16.667 9 35.167 16.833 55.5 23.5s46.166 10 77.499 10
c27.333 0 52.333 -3.33301 75 -10s43.167 -15.167 61.5 -25.5s34.666 -20.833 48.999 -31.5s26.833 -21 37.5 -31c15.333 -12 28.833 -18 40.5 -18s24.834 6 39.501 18c10.667 9.33301 24 19.5 40 30.5s33.5 21.667 52.5 32s40.833 18.833 65.5 25.5s52 10 82 10
c58.667 0 110.5 -9.5 155.5 -28.5s82.833 -45.833 113.5 -80.5s53.834 -75.667 69.501 -123s23.5 -99.666 23.5 -156.999v-614c0 -10.667 -4 -20.167 -12 -28.5s-17.667 -12.5 -29 -12.5h-102c-10.667 0 -20.167 4.16699 -28.5 12.5s-12.5 17.833 -12.5 28.5v614
c0 26 -4.5 51.667 -13.5 77s-22 47.166 -39 65.499s-37.833 33.333 -62.5 45s-52.667 17.5 -84 17.5s-58.833 -5.83301 -82.5 -17.5s-43.834 -26.667 -60.501 -45s-29.334 -39.166 -38.001 -62.499s-13 -46.333 -13 -69v-625c0 -10.667 -4.16699 -20.167 -12.5 -28.5
s-17.833 -12.5 -28.5 -12.5h-101c-10.667 0 -20.167 4.16699 -28.5 12.5s-12.5 17.833 -12.5 28.5v614c0 26 -4.66699 51.667 -14 77s-22.833 47.166 -40.5 65.499s-38.5 33.333 -62.5 45s-50.333 17.5 -79 17.5c-31.333 0 -59.333 -5.83301 -84 -17.5
s-45.5 -26.667 -62.5 -45s-30 -39.166 -39 -62.499s-13.5 -46.333 -13.5 -69v-625c0 -10.667 -4 -20.167 -12 -28.5s-17.667 -12.5 -29 -12.5h-102c-10.667 0 -20.167 4.16699 -28.5 12.5s-12.5 17.833 -12.5 28.5z" />
    <glyph glyph-name="n" unicode="n" 
d="M123 41v942c0 10.667 4 20.167 12 28.5s17.667 12.5 29 12.5h90c9.33301 0 19 -4.66699 29 -14l22 -21.5c8 -7.66699 17.667 -11.5 29 -11.5c15.333 0 28.333 3.33301 39 10l38.5 23.5c15 9 33.5 16.833 55.5 23.5s50.667 10 86 10
c57.333 0 109.833 -8.83301 157.5 -26.5s88.667 -43.167 123 -76.5s61 -74.333 80 -123s28.5 -103 28.5 -163v-614c0 -10.667 -4 -20.167 -12 -28.5s-17.667 -12.5 -29 -12.5h-102c-10.667 0 -20.167 4.16699 -28.5 12.5s-12.5 17.833 -12.5 28.5v614
c0 65.333 -21.5 115.833 -64.5 151.5s-96.833 53.5 -161.5 53.5c-64 0 -117.5 -17.333 -160.5 -52s-64.5 -82 -64.5 -142v-625c0 -10.667 -4 -20.167 -12 -28.5s-17.667 -12.5 -29 -12.5h-102c-10.667 0 -20.167 4.16699 -28.5 12.5s-12.5 17.833 -12.5 28.5z" />
    <glyph glyph-name="o" unicode="o" horiz-adv-x="1024" 
d="M88 512c0 54.667 1.33301 102.334 4 143.001c4 53.333 16.667 104 38 152s50 89.333 86 124s79 62.167 129 82.5s105.667 30.5 167 30.5s117 -10.167 167 -30.5s93 -47.833 129 -82.5s64.667 -76 86 -124s34 -98.667 38 -152c2.66699 -40.667 4 -88.334 4 -143.001
s-1.33301 -102.334 -4 -143.001c-4 -53.333 -16.667 -104 -38 -152s-50 -89.333 -86 -124s-79 -62.167 -129 -82.5s-105.667 -30.5 -167 -30.5s-117 10.167 -167 30.5s-93 47.833 -129 82.5s-64.667 76 -86 124s-34 98.667 -38 152c-2.66699 40.667 -4 88.334 -4 143.001z
M272 512c0 -53.333 1.33301 -101 4 -143c4 -54.667 26.667 -102.5 68 -143.5s97.333 -61.5 168 -61.5s126.5 20.5 167.5 61.5s63.833 88.833 68.5 143.5c2.66699 42 4 89.667 4 143s-1.33301 101 -4 143c-4 54.667 -26.667 102.5 -68 143.5s-97.333 61.5 -168 61.5
s-126.667 -20.5 -168 -61.5s-64 -88.833 -68 -143.5c-2.66699 -42 -4 -89.667 -4 -143z" />
    <glyph glyph-name="p" unicode="p" horiz-adv-x="1028" 
d="M127 -369v1352c0 10.667 4.16699 20.167 12.5 28.5s17.833 12.5 28.5 12.5h70c9.33301 0 18.666 -4.66699 27.999 -14l22.5 -21.5c8.33301 -7.66699 17.833 -11.5 28.5 -11.5c15.333 0 28.833 3.33301 40.5 10l40 23.5c15 9 34.167 16.833 57.5 23.5s54 10 92 10
c53.333 0 102.833 -10.167 148.5 -30.5s85.5 -47.833 119.5 -82.5s61.667 -76 83 -124s34 -98.667 38 -152c2.66699 -40.667 4 -88.334 4 -143.001s-1.33301 -102.334 -4 -143.001c-4 -53.333 -16.667 -104 -38 -152s-49 -89.333 -83 -124s-73.833 -62.167 -119.5 -82.5
s-95.167 -30.5 -148.5 -30.5c-23.333 0 -44.5 2.66699 -63.5 8s-36.333 11 -52 17s-29.667 11.833 -42 17.5s-23.5 8.5 -33.5 8.5c-15.333 0 -26.666 -3.83301 -33.999 -11.5s-11 -20.834 -11 -39.501v-349c0 -10.667 -4 -20.167 -12 -28.5s-17.667 -12.5 -29 -12.5h-102
c-10.667 0 -20.167 4.16699 -28.5 12.5s-12.5 17.833 -12.5 28.5zM287 512.003c0 -53.333 1.33301 -101 4 -143c4 -54.667 26.5 -102.5 67.5 -143.5s96.833 -61.5 167.5 -61.5s126.667 20.5 168 61.5s64 88.833 68 143.5c2.66699 42 4 89.667 4 143s-1.33301 101 -4 143
c-4 54.667 -26.5 102.5 -67.5 143.5s-97.167 61.5 -168.5 61.5c-70.667 0 -126.5 -20.5 -167.5 -61.5s-63.5 -88.833 -67.5 -143.5c-2.66699 -42 -4 -89.667 -4 -143z" />
    <glyph glyph-name="q" unicode="q" horiz-adv-x="1028" 
d="M88 512c0 54.667 1.33496 102.334 4.00195 143.001c4 53.333 16.667 104 38 152s49 89.333 83 124s73.833 62.167 119.5 82.5s95.167 30.5 148.5 30.5c38 0 68.667 -3.33301 92 -10s42.5 -14.5 57.5 -23.5l40 -23.5c11.667 -6.66699 25.167 -10 40.5 -10
c10.667 0 20.167 3.66699 28.5 11s15.833 14.666 22.5 21.999c9.33301 9.33301 19 14 29 14h69c10.667 0 20.167 -4.16699 28.5 -12.5s12.5 -17.833 12.5 -28.5v-1352c0 -10.667 -4 -20.167 -12 -28.5s-17.667 -12.5 -29 -12.5h-102c-10.667 0 -20.167 4.16699 -28.5 12.5
s-12.5 17.833 -12.5 28.5v349c0 19.333 -3.83301 32.666 -11.5 39.999s-18.834 11 -33.501 11c-10.667 0 -22.334 -2.83301 -35.001 -8.5s-26.5 -11.5 -41.5 -17.5s-32 -11.667 -51 -17s-40.167 -8 -63.5 -8c-53.333 0 -102.833 10.167 -148.5 30.5
s-85.5 47.833 -119.5 82.5s-61.667 76 -83 124s-34 98.667 -38 152c-2.66699 40.667 -4 88.334 -4 143.001zM262.002 512c0 -53.333 1.33301 -101 4 -143c4 -54.667 26.5 -102.5 67.5 -143.5s97.167 -61.5 168.5 -61.5c70.667 0 126.5 20.5 167.5 61.5
s63.5 88.833 67.5 143.5c2.66699 42 4 89.667 4 143s-1.33301 101 -4 143c-4 54.667 -26.5 102.5 -67.5 143.5s-96.833 61.5 -167.5 61.5s-126.667 -20.5 -168 -61.5s-64 -88.833 -68 -143.5c-2.66699 -42 -4 -89.667 -4 -143z" />
    <glyph glyph-name="r" unicode="r" horiz-adv-x="706" 
d="M123 41l-0.000976562 942.001c0 10.667 4 20.167 12 28.5s17.667 12.5 29 12.5h69c22 0 35.667 -13.667 41 -41l9.5 -46c3.66699 -17.333 12.834 -26 27.501 -26c12 0 24.333 5.83301 37 17.5s29.5 24.667 50.5 39s48.5 27.333 82.5 39s78.333 17.5 133 17.5h41
c10.667 0 20.167 -4.16699 28.5 -12.5s12.5 -17.833 12.5 -28.5v-100c0 -10.667 -4 -20.167 -12 -28.5s-17.667 -12.5 -29 -12.5h-41c-40.667 0 -79.5 -5.5 -116.5 -16.5s-69.5 -28.833 -97.5 -53.5s-50.5 -56.834 -67.5 -96.501s-25.5 -87.5 -25.5 -143.5v-491
c0 -10.667 -4 -20.167 -12 -28.5s-17.667 -12.5 -29 -12.5h-102c-10.667 0 -20.167 4.16699 -28.5 12.5s-12.5 17.833 -12.5 28.5z" />
    <glyph glyph-name="s" unicode="s" horiz-adv-x="940" 
d="M66 307l0.000976562 26.9971c0 10.667 4 20.167 12 28.5s17.333 12.5 28 12.5h103c10.667 0 20.167 -4.16699 28.5 -12.5s12.5 -17.833 12.5 -28.5v-27c0 -31.333 7.16699 -56.5 21.5 -75.5s32.333 -34.333 54 -46s45.5 -19.5 71.5 -23.5s50.667 -6 74 -6
c27.333 0 54.333 2 81 6s50.167 11.833 70.5 23.5s36.666 27 48.999 46s18.5 44.167 18.5 75.5c0 20.667 -5.83301 38.167 -17.5 52.5s-27.334 26.333 -47.001 36s-42.834 17.5 -69.501 23.5l-85 19c-42 8 -85 17.833 -129 29.5s-84 28.834 -120 51.501
s-65.333 52.167 -88 88.5s-34 83.166 -34 140.499c0 46.667 10.667 88 32 124s49.333 67 84 93s74.167 45.667 118.5 59s89.833 20 136.5 20c48 0 94.5 -6.66699 139.5 -20s84.833 -33.333 119.5 -60s62.667 -58.834 84 -96.501s32 -81.167 32 -130.5
c0 -10.667 -4.16699 -20.167 -12.5 -28.5s-17.833 -12.5 -28.5 -12.5h-103c-10.667 0 -20 4.16699 -28 12.5s-12 17.833 -12 28.5c0 35.333 -14.833 66.333 -44.5 93s-78.5 40 -146.5 40c-64 0 -110 -12.833 -138 -38.5s-42 -53.5 -42 -83.5
c0 -39.333 17.333 -67.666 52 -84.999s77.334 -30.666 128.001 -39.999c42 -8 87 -17.167 135 -27.5s91.833 -26.5 131.5 -48.5s72.334 -51.833 98.001 -89.5s38.5 -87.834 38.5 -150.501c0 -54.667 -10.833 -102.5 -32.5 -143.5s-51.334 -75.167 -89.001 -102.5
s-80.667 -47.666 -129 -60.999s-99.166 -20 -152.499 -20c-52 0 -102.167 6.33301 -150.5 19s-91.333 32.334 -129 59.001s-68 60.834 -91 102.501s-34.5 90.5 -34.5 146.5z" />
    <glyph glyph-name="t" unicode="t" horiz-adv-x="737" 
d="M10 870l0.000976562 102.999c0 10.667 4.16699 20.167 12.5 28.5s17.833 12.5 28.5 12.5h144c13.333 0 20 6.66699 20 20v318c0 10.667 4.16699 20.167 12.5 28.5s17.833 12.5 28.5 12.5h102c10.667 0 20.167 -4.16699 28.5 -12.5s12.5 -17.833 12.5 -28.5v-318
c0 -13.333 7 -20 21 -20h235c10.667 0 20.167 -4.16699 28.5 -12.5s12.5 -17.833 12.5 -28.5v-103c0 -10.667 -4 -20.167 -12 -28.5s-17.667 -12.5 -29 -12.5h-235c-13.333 0 -20.333 -6.66699 -21 -20v-481c0 -45.333 11.667 -81.666 35 -108.999s66.333 -41 129 -41h113
c10.667 0 20.167 -4 28.5 -12s12.5 -17.667 12.5 -29v-96c0 -10.667 -4.16699 -20.167 -12.5 -28.5s-17.833 -12.5 -28.5 -12.5h-113c-106.667 -0 -191.334 25.333 -254.001 76s-94 134.667 -94 252v481c0 13.333 -6.66699 20 -20 20h-144
c-10.667 0 -20.167 4.16699 -28.5 12.5s-12.5 17.833 -12.5 28.5z" />
    <glyph glyph-name="u" unicode="u" 
d="M113 369l-0.000976562 614c0 10.667 4 20.167 12 28.5s17.667 12.5 29 12.5h102c10.667 0 20.167 -4.16699 28.5 -12.5s12.5 -17.833 12.5 -28.5v-614c0 -60 19.833 -109.167 59.5 -147.5s94.834 -57.5 165.501 -57.5c64 0 117.667 17.333 161 52s65 82 65 142v625
c0 10.667 4 20.167 12 28.5s17.333 12.5 28 12.5h103c10.667 0 20.167 -4.16699 28.5 -12.5s12.5 -17.833 12.5 -28.5v-942c0 -10.667 -4.16699 -20.167 -12.5 -28.5s-17.833 -12.5 -28.5 -12.5h-90c-9.33301 0 -19 4.66699 -29 14l-22.5 21.5
c-8.33301 7.66699 -17.833 11.5 -28.5 11.5c-15.333 0 -28 -3.33301 -38 -10l-36.5 -23.5c-14.333 -9 -32.5 -16.833 -54.5 -23.5s-52 -10 -90 -10c-57.333 0 -110 9.5 -158 28.5s-89 45.833 -123 80.5s-60.5 76 -79.5 124s-28.5 100 -28.5 156z" />
    <glyph glyph-name="v" unicode="v" horiz-adv-x="962" 
d="M25 977c-1.33301 4 -2.00098 8 -2.00098 12c0 6 2 12.333 6 19c6.66699 10.667 18 16 34 16h127c19.333 0 32.333 -10.333 39 -31l238 -682c2.66699 -6.66699 7.5 -10 14.5 -10s11.833 3.33301 14.5 10l237 682c6.66699 20.667 19.667 31 39 31h127
c16.667 0 28.334 -5.33301 35.001 -16c4 -6.66699 6 -13 6 -19c0 -4 -0.666992 -8 -2 -12l-360 -946c-8 -20.667 -21 -31 -39 -31h-113c-18 -0 -31 10.333 -39 31z" />
    <glyph glyph-name="w" unicode="w" horiz-adv-x="1368" 
d="M33 977c-0.666992 3.33301 -0.999023 6.66406 -0.999023 9.99707c0 7.33301 2 14.333 6 21c6 10.667 17.333 16 34 16h116c20.667 0 33.667 -10.333 39 -31l158 -663c2.66699 -8 7.16699 -12.167 13.5 -12.5s10.833 3.83398 13.5 12.501l180 663
c5.33301 20.667 18.333 31 39 31h106c20.667 0 33.667 -10.333 39 -31l180 -663c2.66699 -8 7.16699 -12.167 13.5 -12.5s10.833 3.83398 13.5 12.501l158 663c5.33301 20.667 18.333 31 39 31h116c16.667 0 28 -5.33301 34 -16c4 -7.33301 6 -14.333 6 -21
c0 -3.33301 -0.333008 -6.66602 -1 -9.99902l-266 -946c-6.66699 -20.667 -19.667 -31 -39 -31h-112c-20.667 -0 -33.667 10.333 -39 31l-187 676c-1.33301 4 -4 6 -8 6s-6.66699 -2 -8 -6l-187 -676c-6.66699 -20.667 -19.334 -31 -38.001 -31h-113
c-20.667 -0 -33.667 10.333 -39 31z" />
    <glyph glyph-name="x" unicode="x" horiz-adv-x="946" 
d="M55 22c-2.66699 5.33301 -4 11 -4 17c0 9.33301 3.33301 19 10 29l289 458c5.33301 9.33301 6 18.333 2 27l-256 403c-10.667 16.667 -12.667 32.167 -6 46.5s19.667 21.5 39 21.5h115c15.333 0 26 -2 32 -6s10.333 -8.66699 13 -14l176 -297
c5.33301 -10.667 10.666 -10.667 15.999 0l176 297c2.66699 5.33301 7.16699 10 13.5 14s16.833 6 31.5 6h115c19.333 0 32.333 -7.16699 39 -21.5s4.66699 -29.833 -6 -46.5l-256 -403c-4 -8 -3.33301 -17 2 -27l289 -458c6.66699 -10 10 -19.667 10 -29
c0 -6 -1.33301 -11.667 -4 -17c-6.66699 -14.667 -19.667 -22 -39 -22h-119c-15.333 0 -26 2 -32 6s-10.333 8.66699 -13 14l-207 349c-5.33301 10.667 -10.666 10.667 -15.999 0l-207 -349c-2.66699 -5.33301 -7 -10 -13 -14s-16.667 -6 -32 -6h-119
c-19.333 -0 -32.333 7.33301 -39 22z" />
    <glyph glyph-name="y" unicode="y" horiz-adv-x="946" 
d="M14 977c-1.33301 4 -1.99902 8.00098 -1.99902 12.001c0 6.66699 2 13 6 19c7.33301 10.667 19 16 35 16h125c19.333 0 32.333 -10.333 39 -31l252 -665c5.33301 -13.333 10.666 -13.333 15.999 0l238 665c6.66699 20.667 19.667 31 39 31h121
c16.667 0 28.334 -5.33301 35.001 -16c4 -6 6 -12.333 6 -19c0 -4 -0.666992 -8 -2 -12l-521 -1356c-6.66699 -20.667 -19.667 -31 -39 -31h-110c-16.667 0 -28.334 5.16699 -35.001 15.5s-8 21.166 -4 32.499l152 417c4 10.667 4.66699 19.667 2 27z" />
    <glyph glyph-name="z" unicode="z" horiz-adv-x="942" 
d="M61 41v121c0 13.333 1.5 23.5 4.5 30.5s10.5 17.833 22.5 32.5l539 602c4 5.33301 5 10.166 3 14.499s-6.66699 6.5 -14 6.5h-493c-10.667 0 -20.167 4 -28.5 12s-12.5 17.667 -12.5 29v94c0 10.667 4 20.167 12 28.5s17.667 12.5 29 12.5h696
c10.667 0 20.167 -4.16699 28.5 -12.5s12.5 -17.833 12.5 -28.5v-117c0 -19.333 -4.33301 -35.333 -13 -48s-18 -24.667 -28 -36l-516 -585c-4 -5.33301 -5 -10.166 -3 -14.499s6.33301 -6.5 13 -6.5h527c10.667 0 20.167 -4 28.5 -12s12.5 -17.667 12.5 -29v-94
c0 -10.667 -4.16699 -20.167 -12.5 -28.5s-17.833 -12.5 -28.5 -12.5h-738c-10.667 0 -20.167 4.16699 -28.5 12.5s-12.5 17.833 -12.5 28.5z" />
    <glyph glyph-name="braceleft" unicode="{" horiz-adv-x="708" 
d="M82 614l-0.000976562 81.999c0 10.667 4 19.167 12 25.5s17.667 11.5 29 15.5l22 11c9.33301 4 17.833 9 25.5 15s11.5 14.333 11.5 25v256c0 56 9.33301 110 28 162s45.667 97.833 81 137.5s79 71.5 131 95.5s112 36 180 36h25c10.667 0 20.167 -4.16699 28.5 -12.5
s12.5 -17.833 12.5 -28.5v-99c0 -10.667 -4.16699 -20.167 -12.5 -28.5s-17.833 -12.5 -28.5 -12.5h-25c-66.667 0 -122.5 -22.5 -167.5 -67.5s-67.5 -105.833 -67.5 -182.5v-256c0 -18 -3.16699 -34 -9.5 -48s-13.833 -26.833 -22.5 -38.5s-17.834 -21.167 -27.501 -28.5
l-24.5 -18c6.66699 -4 14.834 -10 24.501 -18s18.834 -17.5 27.501 -28.5s16.167 -23.667 22.5 -38s9.5 -30.5 9.5 -48.5v-276c0 -76.667 22.5 -137.5 67.5 -182.5s100.833 -67.5 167.5 -67.5h45c10.667 0 20.167 -4.16699 28.5 -12.5s12.5 -17.833 12.5 -28.5v-98
c0 -10.667 -4 -20.167 -12 -28.5s-17.667 -12.5 -29 -12.5h-45c-68 0 -128 11.833 -180 35.5s-95.667 55.334 -131 95.001s-62.333 85.5 -81 137.5s-28 106 -28 162v276c0 10.667 -3.66699 19.167 -11 25.5s-16 11.5 -26 15.5l-22 10c-10.667 4 -20.167 9.16699 -28.5 15.5
s-12.5 14.833 -12.5 25.5z" />
    <glyph glyph-name="bar" unicode="|" horiz-adv-x="460" 
d="M143 -102v1536c0 10.667 4.16699 20.167 12.5 28.5s17.833 12.5 28.5 12.5h92c10.667 0 20.167 -4.16699 28.5 -12.5s12.5 -17.833 12.5 -28.5v-1536c0 -10.667 -4 -20.167 -12 -28.5s-17.667 -12.5 -29 -12.5h-92c-10.667 0 -20.167 4 -28.5 12s-12.5 17.667 -12.5 29z
" />
    <glyph glyph-name="braceright" unicode="}" horiz-adv-x="708" 
d="M20 -45c0 10.667 4.16699 20.168 12.5 28.501s17.833 12.5 28.5 12.5h45c66.667 0 122.667 22.5 168 67.5s68 105.833 68 182.5v276c0 18 3 34.167 9 48.5s13.5 27 22.5 38s18.333 20.5 28 28.5s17.834 14 24.501 18c-6.66699 4 -14.834 9.83301 -24.501 17.5
s-19 17.334 -28 29.001s-16.5 24.667 -22.5 39s-9 30.166 -9 47.499v256c0 76.667 -22.5 137.5 -67.5 182.5s-101.167 67.5 -168.5 67.5h-24c-10.667 0 -20.167 4.16699 -28.5 12.5s-12.5 17.833 -12.5 28.5v99c0 10.667 4.16699 20.167 12.5 28.5s17.833 12.5 28.5 12.5h24
c66.667 0 126.5 -12 179.5 -36s97.167 -55.833 132.5 -95.5s62.166 -85.5 80.499 -137.5s27.5 -106 27.5 -162v-256c0 -10.667 3.83301 -19 11.5 -25s16.167 -11 25.5 -15l23 -11c10.667 -4 20.167 -9 28.5 -15s12.5 -14.667 12.5 -26v-82c0 -10.667 -4.16699 -19 -12.5 -25
s-17.833 -11.333 -28.5 -16l-23 -10c-9.33301 -4 -17.833 -9 -25.5 -15s-11.5 -14.667 -11.5 -26v-276c0 -56 -9.16699 -110 -27.5 -162s-45.166 -97.833 -80.499 -137.5s-79.333 -71.334 -132 -95.001s-112.667 -35.5 -180 -35.5h-45c-10.667 0 -20.167 4 -28.5 12
s-12.5 17.667 -12.5 29v98z" />
    <glyph glyph-name="asciitilde" unicode="~" horiz-adv-x="1122" 
d="M143 446l-0.00292969 103.001c0 36.667 18.167 66.667 54.5 90s80.5 35 132.5 35c53.333 0 97.333 -4.83301 132 -14.5s67.334 -20.334 98.001 -32.001s63.834 -22.167 99.501 -31.5s81.5 -14 137.5 -14c23.333 0 47.5 5 72.5 15s43.167 22.667 54.5 38
c10.667 13.333 23.167 18.666 37.5 15.999s21.5 -14.334 21.5 -35.001v-102c0 -36.667 -18.167 -66.667 -54.5 -90s-80.166 -35 -131.499 -35c-53.333 0 -97.5 4.83301 -132.5 14.5s-67.833 20.334 -98.5 32.001s-64 22.167 -100 31.5s-81.333 14 -136 14
c-23.333 0 -47.666 -5 -72.999 -15s-43.333 -22.667 -54 -38c-10.667 -13.333 -23.334 -18.666 -38.001 -15.999s-22 14 -22 34z" />
    <glyph glyph-name="uni00A0" unicode="&#xa0;" horiz-adv-x="471" 
 />
    <glyph glyph-name="exclamdown" unicode="&#xa1;" horiz-adv-x="538" 
d="M143 834v170c0 10.667 4.16699 20 12.5 28s17.833 12 28.5 12h170c10.667 0 20.167 -4 28.5 -12s12.5 -17.333 12.5 -28v-170c0 -10.667 -4 -20.167 -12 -28.5s-17.667 -12.5 -29 -12.5h-170c-10.667 0 -20.167 4 -28.5 12s-12.5 17.667 -12.5 29zM170 -348v962
c0 10.667 4.16699 20.167 12.5 28.5s17.833 12.5 28.5 12.5h115c10.667 0 20.167 -4 28.5 -12s12.5 -17.667 12.5 -29v-962c0 -10.667 -4.16699 -20.167 -12.5 -28.5s-17.833 -12.5 -28.5 -12.5h-115c-10.667 0 -20.167 4 -28.5 12s-12.5 17.667 -12.5 29z" />
    <glyph glyph-name="cent" unicode="&#xa2;" horiz-adv-x="978" 
d="M88 512c0 54.667 1.33496 102.331 4.00195 142.998c6.66699 91.333 36.334 171.833 89.001 241.5s124.667 114.834 216 135.501c15.333 4 23 11 23 21v73c0 10.667 4 20.167 12 28.5s17.667 12.5 29 12.5h92c10.667 0 20.167 -4 28.5 -12s12.5 -17.667 12.5 -29v-73
c0 -10 6.66699 -17 20 -21c86 -23.333 154.667 -64.666 206 -123.999s77 -130 77 -212c0 -10.667 -3 -20.167 -9 -28.5s-14.667 -12.5 -26 -12.5h-110c-9.33301 0 -18.166 2.83301 -26.499 8.5s-12.5 13.834 -12.5 24.501c0 48 -19.167 88.667 -57.5 122s-89.5 50 -153.5 50
c-70.667 0 -124.834 -20.5 -162.501 -61.5s-58.834 -88.833 -63.501 -143.5c-2.66699 -42 -4 -89.667 -4 -143s1.33301 -101 4 -143c4 -54.667 24.833 -102.5 62.5 -143.5s92.167 -61.5 163.5 -61.5c62.667 0 113.167 16.333 151.5 49s57.5 73 57.5 121
c0 13.333 4 22.5 12 27.5s17 7.5 27 7.5h106c10.667 0 20.167 -4.16699 28.5 -12.5s12.5 -17.833 12.5 -28.5c0 -82 -25.667 -153.333 -77 -214s-120 -101.334 -206 -122.001c-13.333 -4 -20 -11 -20 -21v-73c0 -10.667 -4.16699 -20.167 -12.5 -28.5
s-17.833 -12.5 -28.5 -12.5h-92c-10.667 0 -20.167 4 -28.5 12s-12.5 17.667 -12.5 29v71c0 9.33301 -7 16.333 -21 21c-92.667 20.667 -165.334 65.667 -218.001 135s-82.334 150.666 -89.001 243.999c-2.66699 40.667 -4 88.334 -4 143.001z" />
    <glyph glyph-name="sterling" unicode="&#xa3;" horiz-adv-x="1075" 
d="M82 41l0.00195312 113c0 10.667 4 20.167 12 28.5s17.667 12.5 29 12.5h10c40.667 0 75.167 20.667 103.5 62s42.5 99 42.5 173v184c0 6.66699 -1.83301 12.5 -5.5 17.5s-8.83398 7.5 -15.501 7.5h-117c-10.667 0 -20.167 4.16699 -28.5 12.5s-12.5 17.833 -12.5 28.5
v104c0 10.667 4.16699 20.167 12.5 28.5s17.833 12.5 28.5 12.5h117c13.333 0 20.333 7 21 21v260c0 48 8.83301 93.167 26.5 135.5s42.167 79.166 73.5 110.499s68.166 56.166 110.499 74.499s87.5 27.5 135.5 27.5s93 -9.16699 135 -27.5s78.833 -43.166 110.5 -74.499
s56.667 -68.166 75 -110.499s27.5 -87.5 27.5 -135.5v-21c0 -10.667 -4.16699 -20.167 -12.5 -28.5s-17.833 -12.5 -28.5 -12.5h-111c-10.667 0 -20.167 4.16699 -28.5 12.5s-12.5 17.833 -12.5 28.5v21c0 44 -15 80.667 -45 110s-66.667 44 -110 44
c-44 0 -80.333 -14.833 -109 -44.5s-43 -66.167 -43 -109.5v-260c0 -13.333 7 -20.333 21 -21h278c10.667 0 20.167 -4 28.5 -12s12.5 -17.667 12.5 -29v-104c0 -10.667 -4.16699 -20.167 -12.5 -28.5s-17.833 -12.5 -28.5 -12.5h-278
c-6.66699 0 -11.834 -2.33301 -15.501 -7s-5.5 -10.667 -5.5 -18v-184c0 -19.333 -0.666992 -39.5 -2 -60.5s-4 -41.333 -8 -61s-9.16699 -38.5 -15.5 -56.5s-14.166 -31.667 -23.499 -41c-4 -4 -5.33301 -7.66699 -4 -11s5.33301 -5 12 -5h520
c10.667 0 20.167 -4.16699 28.5 -12.5s12.5 -17.833 12.5 -28.5v-113c0 -10.667 -4 -20.167 -12 -28.5s-17.667 -12.5 -29 -12.5h-827c-12 0 -22.167 4.16699 -30.5 12.5s-12.5 17.833 -12.5 28.5z" />
    <glyph glyph-name="currency" unicode="&#xa4;" horiz-adv-x="1359" 
d="M144.5 206.5c-1 11 2.83691 20.8359 11.5039 29.5029l153 153c-23.333 35.333 -41 73.166 -53 113.499s-18 83.166 -18 128.499c0 44 5.66699 85.667 17 125s28 76 50 110l-147 150c-8 8 -11.833 17.5 -11.5 28.5s4.16602 20.5 11.499 28.5l75 76
c8 6.66699 17.667 10.334 29 11.001s21 -3 29 -11l147 -148c35.333 23.333 73.166 41.166 113.499 53.499s83.166 18.5 128.499 18.5c44 0 86 -6.16699 126 -18.5s78 -30.166 114 -53.499l151 150c8 8 17.5 11.667 28.5 11s19.833 -5 26.5 -13l76 -76
c8 -6.66699 12.5 -15.5 13.5 -26.5s-2.83301 -20.5 -11.5 -28.5l-151 -150c22 -35.333 39 -72.833 51 -112.5s18 -81.167 18 -124.5c0 -88.667 -24.333 -169.334 -73 -242.001l153 -151c8 -8 11.667 -17.5 11 -28.5s-4.33398 -20.833 -11.001 -29.5l-76 -76
c-8 -6.66699 -17.5 -10.334 -28.5 -11.001s-20.5 3 -28.5 11l-154 152c-72.667 -45.333 -151 -68 -235 -68c-86 0 -165.333 22.667 -238 68l-153 -154c-8 -8 -17.5 -11.667 -28.5 -11s-20.167 5 -27.5 13l-75 76c-8 6.66699 -12.5 15.5 -13.5 26.5zM422.004 631.003
c0 -35.333 6.83301 -68.833 20.5 -100.5s32 -59 55 -82s50.333 -41.333 82 -55s65.167 -20.5 100.5 -20.5s68.666 6.83301 99.999 20.5s58.666 32 81.999 55s41.833 50.333 55.5 82s20.5 65.167 20.5 100.5s-6.83301 68.666 -20.5 99.999s-32.167 58.666 -55.5 81.999
s-50.666 41.833 -81.999 55.5s-64.666 20.5 -99.999 20.5s-68.833 -6.83301 -100.5 -20.5s-59 -32.167 -82 -55.5s-41.333 -50.666 -55 -81.999s-20.5 -64.666 -20.5 -99.999z" />
    <glyph glyph-name="yen" unicode="&#xa5;" horiz-adv-x="937" 
d="M25 1376c-6.66699 15.333 -6.33496 28.833 0.998047 40.5s17.666 17.5 30.999 17.5h136c19.333 0 32 -10.333 38 -31l232 -637c5.33301 -13.333 10.666 -13.333 15.999 0l228 637c6.66699 20.667 19.334 31 38.001 31h136c13.333 0 23.833 -5.83301 31.5 -17.5
s7.83398 -25.167 0.500977 -40.5l-168 -434c-2.66699 -6.66699 -2.5 -12.334 0.5 -17.001s7.83301 -7 14.5 -7h78c10.667 0 20.167 -4.16699 28.5 -12.5s12.5 -17.833 12.5 -28.5v-91c0 -10.667 -4.16699 -20.167 -12.5 -28.5s-17.833 -12.5 -28.5 -12.5h-156
c-9.33301 0 -15.333 -3.33301 -18 -10l-27 -76c-2.66699 -6.66699 -2.66699 -12.334 0 -17.001s7.33398 -7 14.001 -7h187c10.667 0 20.167 -4.16699 28.5 -12.5s12.5 -17.833 12.5 -28.5v-88c0 -10.667 -4.16699 -20.167 -12.5 -28.5s-17.833 -12.5 -28.5 -12.5h-248
c-13.333 0 -20.333 -7 -21 -21v-403c0 -10.667 -4 -20.167 -12 -28.5s-17.667 -12.5 -29 -12.5h-114c-10.667 0 -20.167 4.16699 -28.5 12.5s-12.5 17.833 -12.5 28.5v403c0 13.333 -7 20.333 -21 21h-252c-10.667 0 -20.167 4 -28.5 12s-12.5 17.667 -12.5 29v88
c0 10.667 4.16699 20.167 12.5 28.5s17.833 12.5 28.5 12.5h189c6.66699 0 11.334 2.33301 14.001 7s2.66699 10.334 0 17.001l-27 76c-2.66699 6.66699 -8.66699 10 -18 10h-158c-10.667 0 -20.167 4.16699 -28.5 12.5s-12.5 17.833 -12.5 28.5v91
c0 10.667 4.16699 20.167 12.5 28.5s17.833 12.5 28.5 12.5h80c6.66699 0 11.5 2.33301 14.5 7s3.16699 10.334 0.5 17.001z" />
    <glyph glyph-name="brokenbar" unicode="&#xa6;" horiz-adv-x="442" 
d="M133 41v547c0 10.667 4.16699 20.167 12.5 28.5s17.833 12.5 28.5 12.5h94c10.667 0 20.167 -4.16699 28.5 -12.5s12.5 -17.833 12.5 -28.5v-547c0 -10.667 -4 -20.167 -12 -28.5s-17.667 -12.5 -29 -12.5h-94c-10.667 0 -20.167 4.16699 -28.5 12.5
s-12.5 17.833 -12.5 28.5zM133 860v547c0 10.667 4.16699 20.167 12.5 28.5s17.833 12.5 28.5 12.5h94c10.667 0 20.167 -4.16699 28.5 -12.5s12.5 -17.833 12.5 -28.5v-547c0 -10.667 -4 -20.167 -12 -28.5s-17.667 -12.5 -29 -12.5h-94
c-10.667 0 -20.167 4.16699 -28.5 12.5s-12.5 17.833 -12.5 28.5z" />
    <glyph glyph-name="section" unicode="&#xa7;" horiz-adv-x="1085" 
d="M109 625c0 52 14.1641 98.3301 42.4971 138.997s64.5 77.334 108.5 110.001c18 12 19.333 28 4 48c-44 60 -65.667 123.333 -65 190c0 53.333 10.5 100.5 31.5 141.5s49 75.5 84 103.5s74.333 49.167 118 63.5s87.834 21.5 132.501 21.5
c49.333 0 95.833 -7.83301 139.5 -23.5s81.5 -38.167 113.5 -67.5s57.333 -65.166 76 -107.499s28 -89.5 28 -141.5v-37c0 -10.667 -4.16699 -20.167 -12.5 -28.5s-17.833 -12.5 -28.5 -12.5h-111c-10.667 0 -20.167 4.16699 -28.5 12.5s-12.5 17.833 -12.5 28.5v37
c0 44 -14.667 80.167 -44 108.5s-69.333 42.5 -120 42.5c-48 0 -87 -11.167 -117 -33.5s-45 -55.5 -45 -99.5c0 -60 22.667 -108.333 68 -145l387 -332c27.333 -23.333 49.5 -45.833 66.5 -67.5s30 -43.167 39 -64.5s15.167 -43.5 18.5 -66.5s5 -47.5 5 -73.5
c0 -54.667 -13.667 -104.167 -41 -148.5s-60.666 -82.166 -99.999 -113.499c-16.667 -12 -17.334 -28 -2.00098 -48c36.667 -46.667 55 -106 55 -178c0 -52 -10.5 -97.667 -31.5 -137s-48.667 -72.666 -83 -99.999s-73.666 -48.166 -117.999 -62.499
s-89.166 -21.5 -134.499 -21.5c-49.333 0 -96 6.83301 -140 20.5s-82.5 34.5 -115.5 62.5s-59.333 63.167 -79 105.5s-29.5 92.166 -29.5 149.499v59c0 10.667 4.16699 20.167 12.5 28.5s17.833 12.5 28.5 12.5h110c10.667 0 20.167 -4.16699 28.5 -12.5
s12.5 -17.833 12.5 -28.5v-59c0 -52 15.833 -90.333 47.5 -115s73.167 -37 124.5 -37c48 0 86.667 10.667 116 32s44 55.666 44 102.999c0 30 -7.16699 55 -21.5 75s-32.5 39.333 -54.5 58l-352 303c-34 30 -61.167 58 -81.5 84s-36 51 -47 75s-18.167 48 -21.5 72
s-5 49 -5 75zM300.997 615.997c0 -19.333 4.83398 -39.1641 14.501 -59.4971s26.167 -40.5 49.5 -60.5l307 -258c5.33301 -6.66699 11.666 -9.83398 18.999 -9.50098s14.666 3.5 21.999 9.5c26 20.667 46.5 42.167 61.5 64.5s22.5 47.166 22.5 74.499
c0 18 -4.5 37.5 -13.5 58.5s-25.167 41.167 -48.5 60.5l-309 266c-13.333 10.667 -27 10.667 -41 0c-23.333 -20.667 -43.166 -43.334 -59.499 -68.001s-24.5 -50.667 -24.5 -78z" />
    <glyph glyph-name="dieresis" unicode="&#xa8;" horiz-adv-x="815" 
d="M131 1274l0.00195312 141c0 8 3.16699 15.5 9.5 22.5s14.166 10.5 23.499 10.5h139c9.33301 0 17.166 -3.5 23.499 -10.5s9.5 -14.5 9.5 -22.5v-141c0 -22 -11 -33 -33 -33h-139c-22 0 -33 11 -33 33zM481.002 1274l0.00195312 141c0 8 3.16699 15.5 9.5 22.5
s14.166 10.5 23.499 10.5h139c9.33301 0 17.166 -3.5 23.499 -10.5s9.5 -14.5 9.5 -22.5v-141c0 -22 -11 -33 -33 -33h-139c-22 0 -33 11 -33 33z" />
    <glyph glyph-name="copyright" unicode="&#xa9;" horiz-adv-x="1597" 
d="M82 717c0 98 18.834 190.667 56.501 278s88.834 163.5 153.501 228.5s140.667 116.333 228 154s180.333 56.5 279 56.5c98 0 190.667 -18.833 278 -56.5s163.5 -89 228.5 -154s116.333 -141.167 154 -228.5s56.5 -180 56.5 -278s-18.833 -190.833 -56.5 -278.5
s-89 -163.834 -154 -228.501s-141.167 -115.834 -228.5 -153.501s-180 -56.5 -278 -56.5s-190.833 18.833 -278.5 56.5s-163.834 88.834 -228.501 153.501s-115.834 140.834 -153.501 228.501s-56.5 180.5 -56.5 278.5zM246.001 717c0 -76.667 14.333 -148.502 43 -215.502
s68.167 -125.667 118.5 -176s109 -89.833 176 -118.5s138.833 -43 215.5 -43s148.334 14.333 215.001 43s125.334 68.167 176.001 118.5s90.334 109 119.001 176s43 138.833 43 215.5s-14.333 148.334 -43 215.001s-68.334 125.334 -119.001 176.001
s-109.334 90.334 -176.001 119.001s-138.334 43 -215.001 43s-148.5 -14.333 -215.5 -43s-125.667 -68.334 -176 -119.001s-89.833 -109.5 -118.5 -176.5s-43 -138.5 -43 -214.5zM459.001 710.498c0 43.667 1.33105 82.4951 3.99805 116.495c4 42 13.833 82.333 29.5 121
s37.5 72.334 65.5 101.001s61.833 51.5 101.5 68.5s84.834 25.5 135.501 25.5c46.667 0 89.334 -7.16699 128.001 -21.5s72.334 -34.166 101.001 -59.499s50.834 -55.333 66.501 -90s23.5 -72 23.5 -112c0 -22 -9 -33 -27 -33h-110c-8 0 -15.5 1.83301 -22.5 5.5
s-10.5 10.167 -10.5 19.5c0 80.667 -49.667 121 -149 121c-57.333 0 -98 -13.333 -122 -40s-38 -62 -42 -106c-1.33301 -35.333 -2 -74.166 -2 -116.499s0.666992 -81.166 2 -116.499c4 -44 18 -79.167 42 -105.5s64.667 -39.5 122 -39.5c98 0 147 39.333 147 118
c0 10.667 3.5 17.834 10.5 21.501s14.5 5.5 22.5 5.5h106c22 0 33 -11 33 -33c0 -39.333 -7.83301 -76.5 -23.5 -111.5s-37.834 -65 -66.501 -90s-62.5 -44.667 -101.5 -59s-81.5 -21.5 -127.5 -21.5c-50.667 0 -95.834 8.16699 -135.501 24.5s-73.5 38.833 -101.5 67.5
s-49.833 62 -65.5 100s-25.5 79 -29.5 123c-2.66699 34 -4 72.833 -4 116.5z" />
    <glyph glyph-name="ordfeminine" unicode="&#xaa;" horiz-adv-x="641" 
d="M102 1081c0 42 14.667 80.833 44 116.5s74.333 53.5 135 53.5h125c6.66699 0 10 3.66699 10 11v18c0 23.333 -7.5 39.333 -22.5 48s-35.5 13 -61.5 13c-58.667 0 -88 -12.667 -88 -38c0 -8 -2.83301 -12.833 -8.5 -14.5s-10.5 -2.5 -14.5 -2.5h-76
c-13.333 0 -20 7 -20 21c0 23.333 5.83301 43.833 17.5 61.5s27 32.667 46 45s40.833 21.5 65.5 27.5s50.667 9 78 9c24.667 0 49.5 -3.83301 74.5 -11.5s47.167 -19 66.5 -34s35.166 -34 47.499 -57s18.5 -50.167 18.5 -81.5v-318c0 -13.333 -7 -20 -21 -20h-55
c-5.33301 0 -10 2 -14 6c-2.66699 4 -5.5 8.66699 -8.5 14s-7.16699 8 -12.5 8c-9.33301 0 -23.666 -6.33301 -42.999 -19s-48 -19 -86 -19c-64 0 -112.833 16.333 -146.5 49s-50.5 70.667 -50.5 114zM225 1085c0 -36.667 30 -55.001 90 -55.001
c27.333 0 52.333 6.83301 75 20.5s34 34.834 34 63.501v19c0 6.66699 -3.33301 10 -10 10h-113c-23.333 0 -41.833 -4.83301 -55.5 -14.5s-20.5 -24.167 -20.5 -43.5z" />
    <glyph glyph-name="guillemotleft" unicode="&#xab;" horiz-adv-x="1007" 
d="M104.5 532.5c-0.333008 8.33301 3.16699 17.832 10.5 28.499l196 330c2.66699 5.33301 8.16699 11.833 16.5 19.5s19.833 11.5 34.5 11.5h93c19.333 0 33 -6.16699 41 -18.5s5 -28.833 -9 -49.5l-174 -297c-10.667 -15.333 -10.667 -31.666 0 -48.999l174 -297
c13.333 -20.667 16 -37.167 8 -49.5s-21.333 -18.5 -40 -18.5h-93c-15.333 0 -27 3.83301 -35 11.5s-13.333 14.167 -16 19.5l-196 330c-6.66699 10.667 -10.167 20.167 -10.5 28.5zM469 532.499c0 8.33301 3.33301 17.832 10 28.499l197 330
c2.66699 5.33301 8.16699 11.833 16.5 19.5s19.833 11.5 34.5 11.5h92c19.333 0 33 -6.16699 41 -18.5s5.33301 -28.833 -8 -49.5l-174 -297c-10.667 -15.333 -10.667 -31.666 0 -48.999l174 -297c13.333 -20.667 16 -37.167 8 -49.5s-21.667 -18.5 -41 -18.5h-92
c-15.333 0 -27 3.83301 -35 11.5s-13.333 14.167 -16 19.5l-197 330c-6.66699 10.667 -10 20.167 -10 28.5z" />
    <glyph glyph-name="logicalnot" unicode="&#xac;" horiz-adv-x="1085" 
d="M102 471v102c0 10.667 4.16699 20.167 12.5 28.5s17.833 12.5 28.5 12.5h799c10.667 0 20.167 -4 28.5 -12s12.5 -17.667 12.5 -29v-348c0 -10.667 -4.16699 -20.167 -12.5 -28.5s-17.833 -12.5 -28.5 -12.5h-102c-10.667 0 -20.167 4.16699 -28.5 12.5
s-12.5 17.833 -12.5 28.5v185c0 13.333 -7 20 -21 20h-635c-10.667 0 -20.167 4.16699 -28.5 12.5s-12.5 17.833 -12.5 28.5z" />
    <glyph glyph-name="uni00AD" unicode="&#xad;" horiz-adv-x="927" 
d="M143 477v139c0 10.667 4.16699 20.167 12.5 28.5s17.833 12.5 28.5 12.5h559c10.667 0 20.167 -4 28.5 -12s12.5 -17.667 12.5 -29v-139c0 -10.667 -4 -20.167 -12 -28.5s-17.667 -12.5 -29 -12.5h-559c-10.667 0 -20.167 4.16699 -28.5 12.5s-12.5 17.833 -12.5 28.5z
" />
    <glyph glyph-name="registered" unicode="&#xae;" horiz-adv-x="1597" 
d="M82 717c0 98 18.834 190.667 56.501 278s88.834 163.5 153.501 228.5s140.667 116.333 228 154s180.333 56.5 279 56.5c98 0 190.667 -18.833 278 -56.5s163.5 -89 228.5 -154s116.333 -141.167 154 -228.5s56.5 -180 56.5 -278s-18.833 -190.833 -56.5 -278.5
s-89 -163.834 -154 -228.501s-141.167 -115.834 -228.5 -153.501s-180 -56.5 -278 -56.5s-190.833 18.833 -278.5 56.5s-163.834 88.834 -228.501 153.501s-115.834 140.834 -153.501 228.501s-56.5 180.5 -56.5 278.5zM246.001 717c0 -76.667 14.333 -148.502 43 -215.502
s68.167 -125.667 118.5 -176s109 -89.833 176 -118.5s138.833 -43 215.5 -43s148.334 14.333 215.001 43s125.334 68.167 176.001 118.5s90.334 109 119.001 176s43 138.833 43 215.5s-14.333 148.334 -43 215.001s-68.334 125.334 -119.001 176.001
s-109.334 90.334 -176.001 119.001s-138.334 43 -215.001 43s-148.5 -14.333 -215.5 -43s-125.667 -68.334 -176 -119.001s-89.833 -109.5 -118.5 -176.5s-43 -138.5 -43 -214.5zM543.001 331.998l0.000976562 772.003c0 9.33301 3.33301 17.166 10 23.499s14 9.5 22 9.5
h275c36.667 0 71.5 -7.16699 104.5 -21.5s61.667 -33.833 86 -58.5s43.666 -53.334 57.999 -86.001s21.5 -67.667 21.5 -105c0 -49.333 -12 -94.333 -36 -135s-55.667 -72.667 -95 -96c-15.333 -9.33301 -26.666 -16.5 -33.999 -21.5s-6.33301 -14.833 3 -29.5l138 -236
c6.66699 -12 7.33398 -23.167 2.00098 -33.5s-16.333 -15.5 -33 -15.5h-90c-13.333 0 -22.833 2.66699 -28.5 8s-11.834 13.666 -18.501 24.999l-140 239c-5.33301 13.333 -15.333 20.333 -30 21h-43c-10.667 0 -16.334 -5.66699 -17.001 -17v-243
c0 -22 -10.667 -33 -32 -33h-91c-8 0 -15.333 3 -22 9s-10 14 -10 24zM698.002 764.001c0 -10.667 5.66797 -15.999 17.001 -15.999h135c31.333 0 58.666 11.5 81.999 34.5s35 50.167 35 81.5s-11.667 58.666 -35 81.999s-50.666 35 -81.999 35h-135
c-10.667 0 -16.334 -5.33301 -17.001 -16v-201z" />
    <glyph glyph-name="macron" unicode="&#xaf;" horiz-adv-x="823" 
d="M123 1303v77c0 10.667 4 20.167 12 28.5s17.667 12.5 29 12.5h495c10.667 0 20.167 -4 28.5 -12s12.5 -17.667 12.5 -29v-77c0 -10.667 -4 -20.167 -12 -28.5s-17.667 -12.5 -29 -12.5h-495c-10.667 0 -20.167 4 -28.5 12s-12.5 17.667 -12.5 29z" />
    <glyph glyph-name="degree" unicode="&#xb0;" horiz-adv-x="757" 
d="M74 1198c0 42 7.83203 81.501 23.499 118.501s37.5 69.167 65.5 96.5s60.333 48.833 97 64.5s76.334 23.5 119.001 23.5c42 0 81.5 -7.83301 118.5 -23.5s69.167 -37.167 96.5 -64.5s48.833 -59.333 64.5 -96s23.5 -76.334 23.5 -119.001
c0 -42 -7.83301 -81.5 -23.5 -118.5s-37.167 -69.5 -64.5 -97.5s-59.5 -49.833 -96.5 -65.5s-76.5 -23.5 -118.5 -23.5s-81.5 7.83301 -118.5 23.5s-69.5 37.5 -97.5 65.5s-49.833 60.5 -65.5 97.5s-23.5 76.5 -23.5 118.5zM239.999 1198c0 -38 13.667 -70.667 41 -98
s60 -41 98 -41s70.667 13.667 98 41s41 60 41 98s-13.667 70.667 -41 98s-60 41 -98 41s-70.667 -13.667 -98 -41s-41 -60 -41 -98z" />
    <glyph glyph-name="plusminus" unicode="&#xb1;" horiz-adv-x="1105" 
d="M102 803v106c0 10.667 4.16699 20.167 12.5 28.5s17.833 12.5 28.5 12.5h295c13.333 0 20.333 7 21 21v295c0 10.667 4 20.167 12 28.5s17.667 12.5 29 12.5h106c10.667 0 20.167 -4.16699 28.5 -12.5s12.5 -17.833 12.5 -28.5v-295c0 -13.333 7 -20.333 21 -21h295
c10.667 0 20.167 -4 28.5 -12s12.5 -17.667 12.5 -29v-106c0 -10.667 -4.16699 -20.167 -12.5 -28.5s-17.833 -12.5 -28.5 -12.5h-295c-13.333 0 -20.333 -7 -21 -21v-295c0 -10.667 -4 -20 -12 -28s-17.667 -12 -29 -12h-106c-10.667 0 -20.167 4 -28.5 12
s-12.5 17.333 -12.5 28v295c0 13.333 -7 20.333 -21 21h-295c-10.667 0 -20.167 4 -28.5 12s-12.5 17.667 -12.5 29zM109 41v106c0 10.667 4 20.167 12 28.5s17.667 12.5 29 12.5h806c10.667 0 20.167 -4 28.5 -12s12.5 -17.667 12.5 -29v-106
c0 -10.667 -4 -20.167 -12 -28.5s-17.667 -12.5 -29 -12.5h-806c-10.667 0 -20.167 4.16699 -28.5 12.5s-12.5 17.833 -12.5 28.5z" />
    <glyph glyph-name="uni00B2" unicode="&#xb2;" horiz-adv-x="552" 
d="M51 729l-0.000976562 135c0 10.667 2.66699 19 8 25l275 285c2.66699 2.66699 6.66699 8.16699 12 16.5s8 18.5 8 30.5c0 19.333 -5.83301 35.333 -17.5 48s-28.167 19 -49.5 19c-53.333 0 -80 -22.333 -80 -67v-19c0 -13.333 -7 -20 -21 -20h-108
c-13.333 0 -20.333 6.66699 -21 20v17c0 30 5.83301 58.667 17.5 86s27.834 50.5 48.501 69.5s44.667 34.333 72 46s56.666 17.5 87.999 17.5c30 0 58.667 -5.83301 86 -17.5s50.833 -27 70.5 -46s35.334 -42.167 47.001 -69.5s17.5 -56 17.5 -86c0 -26 -5.5 -51 -16.5 -75
s-25.5 -45.667 -43.5 -65l-192 -198c-2.66699 -2.66699 -4 -7.16699 -4 -13.5s4.66699 -9.5 14 -9.5h219c13.333 0 20.333 -6.66699 21 -20v-109c0 -13.333 -7 -20 -21 -20h-409c-13.333 0 -20.333 6.66699 -21 20z" />
    <glyph glyph-name="uni00B3" unicode="&#xb3;" horiz-adv-x="557" 
d="M43 924l-0.000976562 12.001c0 13.333 6.66699 20 20 20h109c13.333 0 20.333 -6.66699 21 -20v-12c0 -52 27 -78 81 -78c24.667 0 44.5 6.5 59.5 19.5s22.5 32.5 22.5 58.5c0 27.333 -8.16699 46.666 -24.5 57.999s-35.5 17 -57.5 17h-12c-13.333 0 -20 7 -20 21v106
c0 13.333 6.66699 20.333 20 21h12c20.667 0 38.167 6.16699 52.5 18.5s21.5 30.166 21.5 53.499c0 22 -6.83301 39 -20.5 51s-31.5 18 -53.5 18s-39.667 -6.16699 -53 -18.5s-20 -29.166 -20 -50.499v-17c0 -13.333 -7 -20 -21 -20h-108c-13.333 0 -20.333 6.66699 -21 20
v17c0 30 5.83301 58.167 17.5 84.5s27.667 49.5 48 69.5s44.166 35.833 71.499 47.5s56 17.5 86 17.5s58.667 -5.83301 86 -17.5s51.333 -27.5 72 -47.5s36.834 -43.167 48.501 -69.5s17.5 -54.5 17.5 -84.5c0 -26 -5.16699 -50.667 -15.5 -74s-23.166 -43.333 -38.499 -60
c-6.66699 -6.66699 -6.66699 -12 0 -16c19.333 -15.333 34.5 -36.5 45.5 -63.5s16.5 -54.167 16.5 -81.5c0 -31.333 -6.16699 -61 -18.5 -89s-29 -52.333 -50 -73s-45.5 -36.834 -73.5 -48.501s-58 -17.5 -90 -17.5c-31.333 0 -61 5.83301 -89 17.5
s-52.5 27.834 -73.5 48.501s-37.667 45 -50 73s-18.5 57.667 -18.5 89z" />
    <glyph glyph-name="acute" unicode="&#xb4;" horiz-adv-x="608" 
d="M106 1239l156.003 222.999c5.33301 6.66699 11.833 13.834 19.5 21.501s18.834 11.5 33.501 11.5h162c13.333 0 22.166 -5.5 26.499 -16.5s3.16602 -19.833 -3.50098 -26.5l-221 -229c-6.66699 -6.66699 -13.834 -12.5 -21.501 -17.5s-21.167 -7.5 -40.5 -7.5h-82
c-13.333 0 -22.833 5.16699 -28.5 15.5s-5.83398 18.833 -0.500977 25.5z" />
    <glyph glyph-name="uni00B5" unicode="&#xb5;" horiz-adv-x="1069" 
d="M127 -369l-0.000976562 1352c0 10.667 4.16699 20.167 12.5 28.5s17.833 12.5 28.5 12.5h102c10.667 0 20.167 -4.16699 28.5 -12.5s12.5 -17.833 12.5 -28.5v-614c0 -60 21.5 -109.167 64.5 -147.5s96.833 -57.5 161.5 -57.5c64 0 117.5 17.333 160.5 52
s64.5 82 64.5 142v625c0 10.667 4 20.167 12 28.5s17.667 12.5 29 12.5h102c10.667 0 20.167 -4.16699 28.5 -12.5s12.5 -17.833 12.5 -28.5v-942c0 -10.667 -4 -20.167 -12 -28.5s-17.667 -12.5 -29 -12.5h-90c-9.33301 0 -19 4.66699 -29 14l-22 21.5
c-8 7.66699 -17.667 11.5 -29 11.5c-15.333 0 -28 -3.33301 -38 -10l-36.5 -23.5c-14.333 -9 -32.5 -16.833 -54.5 -23.5s-52 -10 -90 -10c-27.333 0 -54.666 5.66699 -81.999 17s-53.333 25.333 -78 42c-9.33301 6.66699 -19.833 8 -31.5 4s-17.5 -14.333 -17.5 -31v-381
c0 -10.667 -4 -20.167 -12 -28.5s-17.667 -12.5 -29 -12.5h-98c-10.667 0 -20.167 4.16699 -28.5 12.5s-12.5 17.833 -12.5 28.5z" />
    <glyph glyph-name="paragraph" unicode="&#xb6;" horiz-adv-x="1126" 
d="M102 1085c0 48 9.33301 93.1699 28 135.503s43.667 79.166 75 110.499s68.166 56.333 110.499 75s87.5 28 135.5 28h491c10.667 0 20.167 -4.16699 28.5 -12.5s12.5 -17.833 12.5 -28.5v-1557c0 -10.667 -4.16699 -20.167 -12.5 -28.5s-17.833 -12.5 -28.5 -12.5h-82
c-10.667 0 -20.167 4.16699 -28.5 12.5s-12.5 17.833 -12.5 28.5v1424c0 13.333 -6.66699 20 -20 20h-164c-13.333 0 -20.333 -6.66699 -21 -20v-1424c0 -10.667 -4 -20.167 -12 -28.5s-17.667 -12.5 -29 -12.5h-81c-10.667 0 -20.167 4.16699 -28.5 12.5
s-12.5 17.833 -12.5 28.5v881c0 13.333 -7 20 -21 20c-45.333 0 -87.666 9.66699 -126.999 29s-74 44.666 -104 75.999s-53.667 68.166 -71 110.499s-26 86.5 -26 132.5z" />
    <glyph glyph-name="periodcentered" unicode="&#xb7;" horiz-adv-x="890" 
d="M246 399v287c0 10.667 4 20.167 12 28.5s17.667 12.5 29 12.5h286c10.667 0 20.167 -4.16699 28.5 -12.5s12.5 -17.833 12.5 -28.5v-287c0 -10.667 -4 -20.167 -12 -28.5s-17.667 -12.5 -29 -12.5h-286c-10.667 0 -20.167 4.16699 -28.5 12.5s-12.5 17.833 -12.5 28.5z
" />
    <glyph glyph-name="cedilla" unicode="&#xb8;" horiz-adv-x="1024" 
d="M381 -373l78 248c5.33301 22 18.333 33 39 33h108c13.333 0 22.833 -3.83301 28.5 -11.5s7.16699 -16.167 4.5 -25.5l-57 -248c-5.33301 -22 -18.333 -33 -39 -33h-129c-13.333 0 -22.833 3.83301 -28.5 11.5s-7.16699 16.167 -4.5 25.5z" />
    <glyph glyph-name="uni00B9" unicode="&#xb9;" horiz-adv-x="464" 
d="M10 1063l0.00292969 115.001c0 8 1 15.667 3 23s6.66699 15.333 14 24l153 172c5.33301 6.66699 13.166 13 23.499 19s23.166 9 38.499 9h129c13.333 0 20 -6.66699 20 -20v-676c0 -13.333 -6.66699 -20 -20 -20h-117c-13.333 0 -20.333 6.66699 -21 20v471
c0 6.66699 -2.66699 10.667 -8 12s-9.33301 0.666016 -12 -2.00098l-164 -168c-6.66699 -6.66699 -14.834 -8 -24.501 -4s-14.5 12.333 -14.5 25z" />
    <glyph glyph-name="ordmasculine" unicode="&#xba;" horiz-adv-x="675" 
d="M98 1181.5c0 15 1.33398 32.833 4.00098 53.5c4 36.667 14 69 30 97s34.833 51.333 56.5 70s45.5 32.334 71.5 41.001s52 13 78 13s52 -4.33301 78 -13s49.833 -22.334 71.5 -41.001s40.334 -42 56.001 -70s25.5 -60.333 29.5 -97
c2.66699 -20.667 4.16699 -38.5 4.5 -53.5s-1.16699 -32.167 -4.5 -51.5c-4 -35.333 -13.5 -66.666 -28.5 -93.999s-33.333 -50.166 -55 -68.499s-45.834 -32.333 -72.501 -42s-53 -14.5 -79 -14.5s-52.333 4.83301 -79 14.5s-50.834 23.667 -72.501 42
s-40.167 41.166 -55.5 68.499s-25 58.666 -29 93.999c-2.66699 19.333 -4 36.5 -4 51.5zM221.001 1177.5c0 -19 1.33496 -36.167 4.00195 -51.5c5.33301 -26 18 -46.833 38 -62.5s45 -23.5 75 -23.5s54.833 7.83301 74.5 23.5s32.5 36.5 38.5 62.5
c2.66699 15.333 4 32.5 4 51.5s-1.33301 37.5 -4 55.5c-5.33301 28.667 -17.333 51.5 -36 68.5s-44.334 25.5 -77.001 25.5s-58.334 -8.5 -77.001 -25.5s-30.667 -39.833 -36 -68.5c-2.66699 -18 -4 -36.5 -4 -55.5z" />
    <glyph glyph-name="guillemotright" unicode="&#xbb;" horiz-adv-x="1007" 
d="M148 160.5c-7.33301 11.667 -4.66797 28.5 7.99902 50.5l174 297c10.667 18 10.667 34.333 0 49l-174 297c-12 22 -14.333 38.833 -7 50.5s20.333 17.5 39 17.5h93c15.333 0 27 -3.83301 35 -11.5s13.333 -14.167 16 -19.5l196 -330
c6.66699 -10.667 10.167 -20.167 10.5 -28.5s-3.16699 -17.833 -10.5 -28.5l-196 -330c-2.66699 -5.33301 -8.16699 -11.833 -16.5 -19.5s-19.833 -11.5 -34.5 -11.5h-93c-19.333 0 -32.666 5.83301 -39.999 17.5zM512.998 160.5c-7.33301 11.667 -5 28.5 7 50.5l174 297
c10.667 18 10.667 34.333 0 49l-174 297c-12 22 -14.333 38.833 -7 50.5s20.666 17.5 39.999 17.5h92c15.333 0 27 -3.83301 35 -11.5s13.333 -14.167 16 -19.5l197 -330c6.66699 -10.667 10 -20.167 10 -28.5s-3.33301 -17.833 -10 -28.5l-197 -330
c-2.66699 -5.33301 -8 -11.833 -16 -19.5s-19.667 -11.5 -35 -11.5h-92c-19.333 0 -32.666 5.83301 -39.999 17.5z" />
    <glyph glyph-name="onequarter" unicode="&#xbc;" horiz-adv-x="1308" 
d="M92 1102l-0.000976562 119.002c0 9.33301 2.33301 18.166 7 26.499s9.33398 13.833 14.001 16.5l176 161c2.66699 2.66699 5.66699 5.16699 9 7.5s7 3.5 11 3.5h105c13.333 0 20 -7 20 -21v-676c0 -13.333 -6.66699 -20 -20 -20h-97c-13.333 0 -20 6.66699 -20 20v506
c0 2.66699 -1 4.66699 -3 6s-3.66699 0.666016 -5 -2.00098l-174 -155c-4 -4 -8.83301 -5 -14.5 -3s-8.5 5.66699 -8.5 11zM156.499 17.502c-9 11.667 -8.5 24.833 1.5 39.5l874 1346c12 20.667 27 31 45 31h78c13.333 0 24.5 -6.16699 33.5 -18.5s8.83301 -25.5 -0.5 -39.5
l-873 -1345c-12 -20.667 -26.333 -31 -43 -31h-82c-13.333 0 -24.5 5.83301 -33.5 17.5zM728.999 154.001v86c0 6.66699 1.66699 13 5 19l11 20l285 423c5.33301 9.33301 13 14.333 23 15h104c13.333 0 20.333 -7 21 -21v-426c0 -6.66699 3.33301 -10 10 -10h49
c13.333 0 20 -6.66699 20 -20v-86c0 -13.333 -6.66699 -20.333 -20 -21h-49c-6.66699 0 -10 -3.33301 -10 -10v-103c0 -13.333 -7 -20 -21 -20h-90c-13.333 0 -20 6.66699 -20 20v103c0 6.66699 -3.66699 10 -11 10h-286c-13.333 0 -20.333 7 -21 21zM880.999 268.001
c-5.33301 -5.33301 -4.00195 -8.00098 3.99805 -8.00098h151c6.66699 0 10.334 3.33301 11.001 10v240c0 2.66699 -1.16699 4.33398 -3.5 5.00098s-4.16602 -0.333008 -5.49902 -3z" />
    <glyph glyph-name="onehalf" unicode="&#xbd;" horiz-adv-x="1351" 
d="M92 1102l-0.000976562 119.002c0 9.33301 2.33301 18.166 7 26.499s9.33398 13.833 14.001 16.5l176 161c2.66699 2.66699 5.66699 5.16699 9 7.5s7 3.5 11 3.5h105c13.333 0 20 -7 20 -21v-676c0 -13.333 -6.66699 -20 -20 -20h-97c-13.333 0 -20 6.66699 -20 20v506
c0 2.66699 -1 4.66699 -3 6s-3.66699 0.666016 -5 -2.00098l-174 -155c-4 -4 -8.83301 -5 -14.5 -3s-8.5 5.66699 -8.5 11zM157.499 17.502c-8.33301 11.667 -8.16797 24.833 0.499023 39.5l874 1346c12 20.667 27 31 45 31h78c13.333 0 24.5 -6.16699 33.5 -18.5
s8.83301 -25.5 -0.5 -39.5l-873 -1345c-12 -20.667 -26.333 -31 -43 -31h-82c-13.333 0 -24.166 5.83301 -32.499 17.5zM826.997 20.001l0.00292969 90.999c0 8 1.16699 13.667 3.5 17s4.83301 6.33301 7.5 9l241 250c23.333 23.333 40.166 44.833 50.499 64.5
s15.5 43.167 15.5 70.5s-9.16699 47.833 -27.5 61.5s-37.166 20.5 -56.499 20.5c-16.667 0 -34.167 -6.16699 -52.5 -18.5s-27.5 -32.166 -27.5 -59.499v-24c0 -13.333 -6.66699 -20.333 -20 -21h-95c-13.333 0 -20 7 -20 21v35c0 27.333 6.16699 52.833 18.5 76.5
s28.333 44.334 48 62.001s42.5 31.667 68.5 42s52.667 15.5 80 15.5s54 -5.16699 80 -15.5s49.167 -24.333 69.5 -42s36.666 -38.334 48.999 -62.001s18.5 -49.167 18.5 -76.5c0 -48 -8.5 -88 -25.5 -120s-41.167 -66 -72.5 -102l-154 -168
c-2.66699 -2.66699 -3.33398 -6 -2.00098 -10s4.66602 -6 9.99902 -6h236c13.333 0 20 -6.66699 20 -20v-91c0 -13.333 -6.66699 -20 -20 -20h-422c-13.333 0 -20.333 6.66699 -21 20z" />
    <glyph glyph-name="threequarters" unicode="&#xbe;" horiz-adv-x="1329" 
d="M41 918l0.00292969 26c0 13.333 6.66699 20.333 20 21h99c13.333 0 20 -7 20 -21v-26c0 -24.667 10.667 -44.167 32 -58.5s43.666 -21.5 66.999 -21.5c31.333 0 55.166 9.5 71.499 28.5s24.5 40.167 24.5 63.5s-7.16699 45.833 -21.5 67.5s-38.5 32.5 -72.5 32.5h-13
c-13.333 0 -20 7 -20 21v86c0 13.333 6.66699 20 20 20h13c28.667 0 49 9.5 61 28.5s18 41.5 18 67.5c0 19.333 -7.5 36.833 -22.5 52.5s-34.5 23.5 -58.5 23.5c-20.667 0 -39.834 -7.16699 -57.501 -21.5s-26.5 -32.5 -26.5 -54.5v-34c0 -13.333 -7 -20.333 -21 -21h-96
c-13.333 0 -20.333 7 -21 21v34c0 27.333 6.16699 53 18.5 77s28.833 44.833 49.5 62.5s44.334 31.667 71.001 42s54.334 15.5 83.001 15.5c27.333 0 54.166 -5.16699 80.499 -15.5s49.833 -24.333 70.5 -42s37.167 -38.5 49.5 -62.5s18.5 -49.667 18.5 -77
s-4.5 -53.833 -13.5 -79.5s-26.5 -48.167 -52.5 -67.5c-8 -6.66699 -8 -13 0 -19c23.333 -16.667 42.833 -39.167 58.5 -67.5s23.5 -58.166 23.5 -89.499c0 -30 -5.16699 -58.333 -15.5 -85s-25.333 -50.334 -45 -71.001s-44.167 -37 -73.5 -49s-63 -18 -101 -18
c-30 0 -59.5 5.33301 -88.5 16s-54.333 25.667 -76 45s-39.334 41.5 -53.001 66.5s-20.5 52.833 -20.5 83.5zM156.503 17.5c-9 11.667 -8.5 24.833 1.5 39.5l874 1346c12 20.667 27 31 45 31h78c13.333 0 24.5 -6.16699 33.5 -18.5s8.83301 -25.5 -0.5 -39.5l-873 -1345
c-12 -20.667 -26.333 -31 -43 -31h-82c-13.333 -0 -24.5 5.83301 -33.5 17.5zM729.003 153.999v86c0 6.66699 1.66699 13 5 19l11 20l285 423c5.33301 9.33301 13 14.333 23 15h104c13.333 0 20.333 -7 21 -21v-426c0 -6.66699 3.33301 -10 10 -10h49
c13.333 0 20 -6.66699 20 -20v-86c0 -13.333 -6.66699 -20.333 -20 -21h-49c-6.66699 0 -10 -3.33301 -10 -10v-103c0 -13.333 -7 -20 -21 -20h-90c-13.333 0 -20 6.66699 -20 20v103c0 6.66699 -3.66699 10 -11 10h-286c-13.333 0 -20.333 7 -21 21zM881.003 267.999
c-5.33301 -5.33301 -4.00195 -8.00098 3.99805 -8.00098h151c6.66699 0 10.334 3.33301 11.001 10v240c0 2.66699 -1.16699 4.33398 -3.5 5.00098s-4.16602 -0.333008 -5.49902 -3z" />
    <glyph glyph-name="questiondown" unicode="&#xbf;" horiz-adv-x="952" 
d="M92 -14c0 74 15.999 136.5 47.999 187.5s76.667 98.167 134 141.5l45.5 31.5c15 10.333 28.667 21.333 41 33s22.5 24.667 30.5 39s12 31.833 12 52.5v143c0 10.667 4.16699 20.167 12.5 28.5s17.833 12.5 28.5 12.5h105c10.667 0 20.167 -4 28.5 -12
s12.5 -17.667 12.5 -29v-172c0 -54.667 -12.333 -96.334 -37 -125.001c-18 -20.667 -34.833 -37.334 -50.5 -50.001s-31 -24.167 -46 -34.5l-45 -32c-15 -11 -30.5 -23.833 -46.5 -38.5c-22 -22 -41.5 -48 -58.5 -78s-25.5 -62.667 -25.5 -98c0 -56 17 -104.5 51 -145.5
s82.333 -61.5 145 -61.5c28.667 0 55.334 6.16699 80.001 18.5s45.5 28 62.5 47s30.333 41.167 40 66.5s14.5 50.333 14.5 75v30c0 10.667 4 20.167 12 28.5s17.667 12.5 29 12.5h104c10.667 0 20.167 -4 28.5 -12s12.5 -17.667 12.5 -29v-30
c0 -54.667 -9.5 -106 -28.5 -154s-45.667 -90 -80 -126s-75 -64.333 -122 -85s-97.833 -31 -152.5 -31s-105.5 9.66699 -152.5 29s-87.5 46.333 -121.5 81s-61 76.334 -81 125.001s-30 102.334 -30 161.001zM368.999 834v170c0 10.667 4 20 12 28s17.667 12 29 12h170
c10.667 0 20.167 -4 28.5 -12s12.5 -17.333 12.5 -28v-170c0 -10.667 -4.16699 -20.167 -12.5 -28.5s-17.833 -12.5 -28.5 -12.5h-170c-10.667 0 -20.167 4 -28.5 12s-12.5 17.667 -12.5 29z" />
    <glyph glyph-name="Agrave" unicode="&#xc0;" horiz-adv-x="999" 
d="M8 41l381.002 1362c4 20.667 17 31 39 31h143c22 0 35 -10.333 39 -31l381 -1362c2.66699 -9.33301 0.666992 -18.5 -6 -27.5s-18.334 -13.5 -35.001 -13.5h-112c-19.333 -0 -32.333 10.333 -39 31l-90 313c-4 19.333 -17 29 -39 29h-340
c-19.333 0 -32.333 -9.66699 -39 -29l-90 -313c-6.66699 -20.667 -19.667 -31 -39 -31h-113c-16.667 0 -28.334 4.5 -35.001 13.5s-8.66699 18.167 -6 27.5zM254.002 1816.5c4 11 13.001 16.5 27.001 16.5h161c15.333 0 26.666 -3.83301 33.999 -11.5l20 -21.5l155 -223
c5.33301 -6.66699 5.33301 -15.167 0 -25.5s-14.666 -15.5 -27.999 -15.5h-82c-19.333 0 -32.833 2.33301 -40.5 7s-14.834 10.667 -21.501 18l-221 229c-6.66699 6.66699 -8 15.5 -4 26.5zM356.003 586c-4 -15.333 1.66895 -23 17.002 -23h254
c15.333 0 20.666 7.66699 15.999 23l-133 571c-2.66699 8 -5.33398 12 -8.00098 12h-4c-4 0 -7 -4 -9 -12z" />
    <glyph glyph-name="Aacute" unicode="&#xc1;" horiz-adv-x="999" 
d="M8 41l381.002 1362c4 20.667 17 31 39 31h143c22 0 35 -10.333 39 -31l381 -1362c2.66699 -9.33301 0.666992 -18.5 -6 -27.5s-18.334 -13.5 -35.001 -13.5h-112c-19.333 -0 -32.333 10.333 -39 31l-90 313c-4 19.333 -17 29 -39 29h-340
c-19.333 0 -32.333 -9.66699 -39 -29l-90 -313c-6.66699 -20.667 -19.667 -31 -39 -31h-113c-16.667 0 -28.334 4.5 -35.001 13.5s-8.66699 18.167 -6 27.5zM356.002 586c-4 -15.333 1.66895 -23 17.002 -23h254c15.333 0 20.666 7.66699 15.999 23l-133 571
c-2.66699 8 -5.33398 12 -8.00098 12h-4c-4 0 -7 -4 -9 -12zM362.004 1577l156.003 222.999c5.33301 6.66699 11.833 13.834 19.5 21.501s18.834 11.5 33.501 11.5h162c13.333 0 22.166 -5.5 26.499 -16.5s3.16602 -19.833 -3.50098 -26.5l-221 -229
c-6.66699 -6.66699 -13.834 -12.5 -21.501 -17.5s-21.167 -7.5 -40.5 -7.5h-82c-13.333 0 -22.833 5.16699 -28.5 15.5s-5.83398 18.833 -0.500977 25.5z" />
    <glyph glyph-name="Acircumflex" unicode="&#xc2;" horiz-adv-x="999" 
d="M8 41l381.002 1362c4 20.667 17 31 39 31h143c22 0 35 -10.333 39 -31l381 -1362c2.66699 -9.33301 0.666992 -18.5 -6 -27.5s-18.334 -13.5 -35.001 -13.5h-112c-19.333 -0 -32.333 10.333 -39 31l-90 313c-4 19.333 -17 29 -39 29h-340
c-19.333 0 -32.333 -9.66699 -39 -29l-90 -313c-6.66699 -20.667 -19.667 -31 -39 -31h-113c-16.667 0 -28.334 4.5 -35.001 13.5s-8.66699 18.167 -6 27.5zM172.502 1554.5c-4.33301 11 -3.16992 19.833 3.49707 26.5l221 229c6.66699 6.66699 13.834 12.5 21.501 17.5
s21.167 7.5 40.5 7.5h86c18 0 30.667 -2.33301 38 -7s14.333 -10.667 21 -18l221 -229c6.66699 -6.66699 8 -15.5 4 -26.5s-12.667 -16.5 -26 -16.5h-121c-15.333 0 -28 3.83301 -38 11.5s-18.667 14.834 -26 21.501l-104 100c-9.33301 9.33301 -19 9.33301 -29 0l-102 -100
c-6.66699 -6.66699 -15.167 -13.834 -25.5 -21.501s-23.166 -11.5 -38.499 -11.5h-120c-13.333 0 -22.166 5.5 -26.499 16.5zM355.998 586c-4 -15.333 1.66895 -23 17.002 -23h254c15.333 0 20.666 7.66699 15.999 23l-133 571c-2.66699 8 -5.33398 12 -8.00098 12h-4
c-4 0 -7 -4 -9 -12z" />
    <glyph glyph-name="Atilde" unicode="&#xc3;" horiz-adv-x="999" 
d="M8 41l381.002 1362c4 20.667 17 31 39 31h143c22 0 35 -10.333 39 -31l381 -1362c2.66699 -9.33301 0.666992 -18.5 -6 -27.5s-18.334 -13.5 -35.001 -13.5h-112c-19.333 -0 -32.333 10.333 -39 31l-90 313c-4 19.333 -17 29 -39 29h-340
c-19.333 0 -32.333 -9.66699 -39 -29l-90 -313c-6.66699 -20.667 -19.667 -31 -39 -31h-113c-16.667 0 -28.334 4.5 -35.001 13.5s-8.66699 18.167 -6 27.5zM211.002 1585l-0.000976562 81.998c0 27.333 14 51.666 42 72.999s62.333 32 103 32
c32.667 0 59.667 -2.83301 81 -8.5s41.166 -11.5 59.499 -17.5s38.5 -11.833 60.5 -17.5s50.667 -8.5 86 -8.5c26 0 46.167 4.5 60.5 13.5s25.5 18.833 33.5 29.5s18.5 13.334 31.5 8.00098s19.5 -17.333 19.5 -36v-82c0 -27.333 -13.833 -51.666 -41.5 -72.999
s-62.167 -32 -103.5 -32c-32.667 0 -59.667 2.83301 -81 8.5s-41.166 11.5 -59.499 17.5s-38.666 11.667 -60.999 17s-50.833 8 -85.5 8c-23.333 0 -42 -3.66699 -56 -11s-26.667 -18 -38 -32c-8 -9.33301 -18.5 -11.666 -31.5 -6.99902s-19.5 16.667 -19.5 36z
M356.001 585.998c-4 -15.333 1.66895 -23 17.002 -23h254c15.333 0 20.666 7.66699 15.999 23l-133 571c-2.66699 8 -5.33398 12 -8.00098 12h-4c-4 0 -7 -4 -9 -12z" />
    <glyph glyph-name="Adieresis" unicode="&#xc4;" horiz-adv-x="999" 
d="M8 41l381.002 1362c4 20.667 17 31 39 31h143c22 0 35 -10.333 39 -31l381 -1362c2.66699 -9.33301 0.666992 -18.5 -6 -27.5s-18.334 -13.5 -35.001 -13.5h-112c-19.333 -0 -32.333 10.333 -39 31l-90 313c-4 19.333 -17 29 -39 29h-340
c-19.333 0 -32.333 -9.66699 -39 -29l-90 -313c-6.66699 -20.667 -19.667 -31 -39 -31h-113c-16.667 0 -28.334 4.5 -35.001 13.5s-8.66699 18.167 -6 27.5zM221.002 1569l0.00195312 141c0 8 3.16699 15.5 9.5 22.5s14.166 10.5 23.499 10.5h139
c9.33301 0 17.166 -3.5 23.499 -10.5s9.5 -14.5 9.5 -22.5v-141c0 -22 -11 -33 -33 -33h-139c-22 0 -33 11 -33 33zM356.004 586c-4 -15.333 1.66895 -23 17.002 -23h254c15.333 0 20.666 7.66699 15.999 23l-133 571c-2.66699 8 -5.33398 12 -8.00098 12h-4
c-4 0 -7 -4 -9 -12zM571.006 1569l0.00195312 141c0 8 3.16699 15.5 9.5 22.5s14.166 10.5 23.499 10.5h139c9.33301 0 17.166 -3.5 23.499 -10.5s9.5 -14.5 9.5 -22.5v-141c0 -22 -11 -33 -33 -33h-139c-22 0 -33 11 -33 33z" />
    <glyph glyph-name="Aring" unicode="&#xc5;" horiz-adv-x="999" 
d="M8 41l381.002 1362c4 20.667 17 31 39 31h143c22 0 35 -10.333 39 -31l381 -1362c2.66699 -9.33301 0.666992 -18.5 -6 -27.5s-18.334 -13.5 -35.001 -13.5h-112c-19.333 -0 -32.333 10.333 -39 31l-90 313c-4 19.333 -17 29 -39 29h-340
c-19.333 0 -32.333 -9.66699 -39 -29l-90 -313c-6.66699 -20.667 -19.667 -31 -39 -31h-113c-16.667 0 -28.334 4.5 -35.001 13.5s-8.66699 18.167 -6 27.5zM274.002 1720c0 31.333 5.83301 60.666 17.5 87.999s27.834 51.333 48.501 72s44.667 36.834 72 48.501
s56.666 17.5 87.999 17.5s60.666 -5.83301 87.999 -17.5s51.166 -27.834 71.499 -48.501s36.333 -44.667 48 -72s17.5 -56.666 17.5 -87.999s-5.83301 -60.666 -17.5 -87.999s-27.667 -51.166 -48 -71.499s-44.166 -36.333 -71.499 -48s-56.666 -17.5 -87.999 -17.5
s-60.666 5.83301 -87.999 17.5s-51.333 27.667 -72 48s-36.834 44.166 -48.501 71.499s-17.5 56.666 -17.5 87.999zM356.002 586c-4 -15.333 1.66895 -23 17.002 -23h254c15.333 0 20.666 7.66699 15.999 23l-133 571c-2.66699 8 -5.33398 12 -8.00098 12h-4
c-4 0 -7 -4 -9 -12zM418.004 1720c0 -23.333 7.83301 -42.833 23.5 -58.5s35.167 -23.5 58.5 -23.5s42.833 8 58.5 24s23.5 35.333 23.5 58c0 23.333 -7.83301 42.833 -23.5 58.5s-35.167 23.5 -58.5 23.5s-42.833 -7.83301 -58.5 -23.5s-23.5 -35.167 -23.5 -58.5z" />
    <glyph glyph-name="AE" unicode="&#xc6;" horiz-adv-x="1480" 
d="M8 41l375.001 1339c2.66699 9.33301 9.5 20.666 20.5 33.999s27.5 20 49.5 20h901c10.667 0 20.167 -4.16699 28.5 -12.5s12.5 -17.833 12.5 -28.5v-113c0 -10.667 -4.16699 -20.167 -12.5 -28.5s-17.833 -12.5 -28.5 -12.5h-488c-13.333 0 -20 -6.66699 -20 -20v-369
c0 -13.333 6.66699 -20.333 20 -21h465c10.667 0 20.167 -4 28.5 -12s12.5 -17.667 12.5 -29v-112c0 -10.667 -4 -20.167 -12 -28.5s-17.667 -12.5 -29 -12.5h-465c-13.333 0 -20 -7 -20 -21v-399c0 -13.333 6.66699 -20 20 -20h492c10.667 0 20.167 -4.16699 28.5 -12.5
s12.5 -17.833 12.5 -28.5v-113c0 -10.667 -4.16699 -20.167 -12.5 -28.5s-17.833 -12.5 -28.5 -12.5h-666c-10.667 0 -20.167 4.16699 -28.5 12.5s-12.5 17.833 -12.5 28.5v299c0 22 -13 33 -39 33h-282c-22 0 -35 -9.66699 -39 -29l-90 -313c-4 -20.667 -17 -31 -39 -31
h-113c-16.667 0 -28.334 4.5 -35.001 13.5s-8.66699 18.167 -6 27.5zM356.001 586.001c-4 -15.333 1.66699 -23 17 -23h258c13.333 0 20 7.66699 20 23v633c0 13.333 -6.66699 20 -20 20h-88c-9.33301 0 -15.833 -2.33301 -19.5 -7s-6.16699 -9 -7.5 -13z" />
    <glyph glyph-name="Ccedilla" unicode="&#xc7;" horiz-adv-x="1112" 
d="M92 718c0 56.667 1.33398 111.669 4.00098 165.002s7 100.333 13 141c6.66699 56 21.5 109.667 44.5 161s54 96.666 93 135.999s85.5 70.666 139.5 93.999s115 35 183 35c61.333 0 120 -9.5 176 -28.5s104.833 -47 146.5 -84s75.167 -81.833 100.5 -134.5
s38 -112.334 38 -179.001v-29c0 -10.667 -4 -20.167 -12 -28.5s-17.667 -12.5 -29 -12.5h-112c-10.667 0 -20.167 4.16699 -28.5 12.5s-12.5 17.833 -12.5 28.5v29c0 30 -6.16699 59 -18.5 87s-30.166 52.667 -53.499 74s-51.333 38.333 -84 51s-69.667 19 -111 19
c-66.667 0 -125.334 -19.667 -176.001 -59s-80.667 -96.666 -90 -171.999c-5.33301 -42 -9.33301 -89.667 -12 -143s-4 -108 -4 -164s1.33301 -110.667 4 -164s6.66699 -101 12 -143c4 -30 12.5 -59 25.5 -87s30.833 -52.667 53.5 -74s49.667 -38.5 81 -51.5
s66.666 -19.5 105.999 -19.5c34 0 67.167 5.16699 99.5 15.5s60.833 25 85.5 44s44.5 43.167 59.5 72.5s22.5 62.666 22.5 99.999v28c0 10.667 4 20.167 12 28.5s17.667 12.5 29 12.5h112c10.667 0 20.167 -4 28.5 -12s12.5 -17.667 12.5 -29v-28
c0 -57.333 -11.167 -111.666 -33.5 -162.999s-54 -96.5 -95 -135.5s-89.833 -70 -146.5 -93s-118.667 -34.5 -186 -34.5c-61.333 0 -118.333 9.83301 -171 29.5s-99 48 -139 85s-73 81.667 -99 134s-43 111.5 -51 177.5c-5.33301 40.667 -9.5 88 -12.5 142
s-4.5 109.333 -4.5 166zM387.001 -372.998l78 248c5.33301 22 18.333 33 39 33h108c13.333 0 22.833 -3.83301 28.5 -11.5s7.16699 -16.167 4.5 -25.5l-57 -248c-5.33301 -22 -18.333 -33 -39 -33h-129c-13.333 0 -22.833 3.83301 -28.5 11.5s-7.16699 16.167 -4.5 25.5z
" />
    <glyph glyph-name="Egrave" unicode="&#xc8;" horiz-adv-x="962" 
d="M133 41v1352c0 10.667 4.16699 20.167 12.5 28.5s17.833 12.5 28.5 12.5h662c10.667 0 20.167 -4.16699 28.5 -12.5s12.5 -17.833 12.5 -28.5v-113c0 -10.667 -4.16699 -20.167 -12.5 -28.5s-17.833 -12.5 -28.5 -12.5h-488c-13.333 0 -20 -6.66699 -20 -20v-369
c0 -13.333 6.66699 -20.333 20 -21h465c10.667 0 20.167 -4 28.5 -12s12.5 -17.667 12.5 -29v-112c0 -10.667 -4.16699 -20.167 -12.5 -28.5s-17.833 -12.5 -28.5 -12.5h-465c-13.333 0 -20 -7 -20 -21v-399c0 -13.333 6.66699 -20 20 -20h492
c10.667 0 20.167 -4.16699 28.5 -12.5s12.5 -17.833 12.5 -28.5v-113c0 -10.667 -4.16699 -20.167 -12.5 -28.5s-17.833 -12.5 -28.5 -12.5h-666c-10.667 0 -20.167 4.16699 -28.5 12.5s-12.5 17.833 -12.5 28.5zM219 1816.5c4 11 12.999 16.501 26.999 16.501h162
c15.333 0 26.666 -3.83301 33.999 -11.5s13.666 -14.834 18.999 -21.501l155 -223c5.33301 -6.66699 5.33301 -15.167 0 -25.5s-14.666 -15.5 -27.999 -15.5h-82c-19.333 0 -32.666 2.33301 -39.999 7s-14.666 10.667 -21.999 18l-221 229c-6.66699 6.66699 -8 15.5 -4 26.5
z" />
    <glyph glyph-name="Eacute" unicode="&#xc9;" horiz-adv-x="962" 
d="M133 41v1352c0 10.667 4.16699 20.167 12.5 28.5s17.833 12.5 28.5 12.5h662c10.667 0 20.167 -4.16699 28.5 -12.5s12.5 -17.833 12.5 -28.5v-113c0 -10.667 -4.16699 -20.167 -12.5 -28.5s-17.833 -12.5 -28.5 -12.5h-488c-13.333 0 -20 -6.66699 -20 -20v-369
c0 -13.333 6.66699 -20.333 20 -21h465c10.667 0 20.167 -4 28.5 -12s12.5 -17.667 12.5 -29v-112c0 -10.667 -4.16699 -20.167 -12.5 -28.5s-17.833 -12.5 -28.5 -12.5h-465c-13.333 0 -20 -7 -20 -21v-399c0 -13.333 6.66699 -20 20 -20h492
c10.667 0 20.167 -4.16699 28.5 -12.5s12.5 -17.833 12.5 -28.5v-113c0 -10.667 -4.16699 -20.167 -12.5 -28.5s-17.833 -12.5 -28.5 -12.5h-666c-10.667 0 -20.167 4.16699 -28.5 12.5s-12.5 17.833 -12.5 28.5zM373 1551.5
c-5.33301 10.333 -5.33105 18.832 0.00195312 25.499l155 223c5.33301 6.66699 11.833 13.834 19.5 21.501s19.167 11.5 34.5 11.5h161c13.333 0 22.166 -5.5 26.499 -16.5s3.16602 -19.833 -3.50098 -26.5l-221 -229c-6.66699 -6.66699 -13.834 -12.5 -21.501 -17.5
s-21.167 -7.5 -40.5 -7.5h-82c-13.333 0 -22.666 5.16699 -27.999 15.5z" />
    <glyph glyph-name="Ecircumflex" unicode="&#xca;" horiz-adv-x="962" 
d="M133 41v1352c0 10.667 4.16699 20.167 12.5 28.5s17.833 12.5 28.5 12.5h662c10.667 0 20.167 -4.16699 28.5 -12.5s12.5 -17.833 12.5 -28.5v-113c0 -10.667 -4.16699 -20.167 -12.5 -28.5s-17.833 -12.5 -28.5 -12.5h-488c-13.333 0 -20 -6.66699 -20 -20v-369
c0 -13.333 6.66699 -20.333 20 -21h465c10.667 0 20.167 -4 28.5 -12s12.5 -17.667 12.5 -29v-112c0 -10.667 -4.16699 -20.167 -12.5 -28.5s-17.833 -12.5 -28.5 -12.5h-465c-13.333 0 -20 -7 -20 -21v-399c0 -13.333 6.66699 -20 20 -20h492
c10.667 0 20.167 -4.16699 28.5 -12.5s12.5 -17.833 12.5 -28.5v-113c0 -10.667 -4.16699 -20.167 -12.5 -28.5s-17.833 -12.5 -28.5 -12.5h-666c-10.667 0 -20.167 4.16699 -28.5 12.5s-12.5 17.833 -12.5 28.5zM176.5 1552.5c-4.33301 11 -3.16895 19.833 3.49805 26.5
l221 229c6.66699 6.66699 13.834 12.5 21.501 17.5s21.167 7.5 40.5 7.5h86c18 0 30.667 -2.33301 38 -7s14.333 -10.667 21 -18l221 -229c6.66699 -6.66699 8 -15.5 4 -26.5s-12.667 -16.5 -26 -16.5h-121c-15.333 0 -28 3.83301 -38 11.5s-18.333 14.834 -25 21.501
l-105 100c-9.33301 9.33301 -19 9.33301 -29 0l-102 -100c-6.66699 -6.66699 -15.167 -13.834 -25.5 -21.501s-22.833 -11.5 -37.5 -11.5h-121c-13.333 0 -22.166 5.5 -26.499 16.5z" />
    <glyph glyph-name="Edieresis" unicode="&#xcb;" horiz-adv-x="962" 
d="M133 41v1352c0 10.667 4.16699 20.167 12.5 28.5s17.833 12.5 28.5 12.5h662c10.667 0 20.167 -4.16699 28.5 -12.5s12.5 -17.833 12.5 -28.5v-113c0 -10.667 -4.16699 -20.167 -12.5 -28.5s-17.833 -12.5 -28.5 -12.5h-488c-13.333 0 -20 -6.66699 -20 -20v-369
c0 -13.333 6.66699 -20.333 20 -21h465c10.667 0 20.167 -4 28.5 -12s12.5 -17.667 12.5 -29v-112c0 -10.667 -4.16699 -20.167 -12.5 -28.5s-17.833 -12.5 -28.5 -12.5h-465c-13.333 0 -20 -7 -20 -21v-399c0 -13.333 6.66699 -20 20 -20h492
c10.667 0 20.167 -4.16699 28.5 -12.5s12.5 -17.833 12.5 -28.5v-113c0 -10.667 -4.16699 -20.167 -12.5 -28.5s-17.833 -12.5 -28.5 -12.5h-666c-10.667 0 -20.167 4.16699 -28.5 12.5s-12.5 17.833 -12.5 28.5zM219 1569l0.00195312 141c0 8 3.16699 15.5 9.5 22.5
s14.166 10.5 23.499 10.5h139c9.33301 0 17.166 -3.5 23.499 -10.5s9.5 -14.5 9.5 -22.5v-141c0 -22 -11 -33 -33 -33h-139c-22 0 -33 11 -33 33zM569.002 1569l0.00195312 141c0 8 3.16699 15.5 9.5 22.5s14.166 10.5 23.499 10.5h139c9.33301 0 17.166 -3.5 23.499 -10.5
s9.5 -14.5 9.5 -22.5v-141c0 -22 -11 -33 -33 -33h-139c-22 0 -33 11 -33 33z" />
    <glyph glyph-name="Igrave" unicode="&#xcc;" horiz-adv-x="460" 
d="M-22 1816.5c4 11 12.668 16.501 26.001 16.501h162c15.333 0 26.666 -3.83301 33.999 -11.5s13.666 -14.834 18.999 -21.501l156 -223c5.33301 -6.66699 5.33301 -15.167 0 -25.5s-15 -15.5 -29 -15.5h-82c-19.333 0 -32.666 2.33301 -39.999 7s-14.333 10.667 -21 18
l-221 229c-6.66699 6.66699 -8 15.5 -4 26.5zM133.001 41.001v1352c0 10.667 4.16699 20.167 12.5 28.5s17.833 12.5 28.5 12.5h113c10.667 0 20.167 -4.16699 28.5 -12.5s12.5 -17.833 12.5 -28.5v-1352c0 -10.667 -4.16699 -20.167 -12.5 -28.5s-17.833 -12.5 -28.5 -12.5
h-113c-10.667 0 -20.167 4.16699 -28.5 12.5s-12.5 17.833 -12.5 28.5z" />
    <glyph glyph-name="Iacute" unicode="&#xcd;" horiz-adv-x="460" 
d="M114.5 1551.5c-5.66699 10.333 -5.49707 18.832 0.50293 25.499l155 223c5.33301 6.66699 11.833 13.834 19.5 21.501s19.167 11.5 34.5 11.5h161c13.333 0 22.166 -5.5 26.499 -16.5s3.16602 -19.833 -3.50098 -26.5l-221 -229
c-6.66699 -6.66699 -13.834 -12.5 -21.501 -17.5s-21.167 -7.5 -40.5 -7.5h-82c-13.333 0 -22.833 5.16699 -28.5 15.5zM133.003 40.999v1352c0 10.667 4.16699 20.167 12.5 28.5s17.833 12.5 28.5 12.5h113c10.667 0 20.167 -4.16699 28.5 -12.5s12.5 -17.833 12.5 -28.5
v-1352c0 -10.667 -4.16699 -20.167 -12.5 -28.5s-17.833 -12.5 -28.5 -12.5h-113c-10.667 0 -20.167 4.16699 -28.5 12.5s-12.5 17.833 -12.5 28.5z" />
    <glyph glyph-name="Icircumflex" unicode="&#xce;" horiz-adv-x="460" 
d="M-98 1552.5c-4 11 -2.67188 19.833 3.99512 26.5l221 229c6.66699 6.66699 13.834 12.5 21.501 17.5s20.834 7.5 39.501 7.5h86c18 0 30.833 -2.33301 38.5 -7s14.834 -10.667 21.501 -18l221 -229c6.66699 -6.66699 8 -15.5 4 -26.5s-13 -16.5 -27 -16.5h-120
c-15.333 0 -28.166 3.83301 -38.499 11.5s-18.833 14.834 -25.5 21.501l-104 100c-9.33301 9.33301 -19 9.33301 -29 0l-102 -100c-6.66699 -6.66699 -15.167 -13.834 -25.5 -21.501s-23.166 -11.5 -38.499 -11.5h-121c-13.333 0 -22 5.5 -26 16.5zM132.995 41v1352
c0 10.667 4.16699 20.167 12.5 28.5s17.833 12.5 28.5 12.5h113c10.667 0 20.167 -4.16699 28.5 -12.5s12.5 -17.833 12.5 -28.5v-1352c0 -10.667 -4.16699 -20.167 -12.5 -28.5s-17.833 -12.5 -28.5 -12.5h-113c-10.667 0 -20.167 4.16699 -28.5 12.5
s-12.5 17.833 -12.5 28.5z" />
    <glyph glyph-name="Idieresis" unicode="&#xcf;" horiz-adv-x="460" 
d="M-47 1569l0.000976562 141c0 8 3 15.5 9 22.5s14 10.5 24 10.5h139c9.33301 0 17.166 -3.5 23.499 -10.5s9.5 -14.5 9.5 -22.5v-141c0 -22 -11 -33 -33 -33h-139c-22 0 -33 11 -33 33zM133.001 41v1352c0 10.667 4.16699 20.167 12.5 28.5s17.833 12.5 28.5 12.5h113
c10.667 0 20.167 -4.16699 28.5 -12.5s12.5 -17.833 12.5 -28.5v-1352c0 -10.667 -4.16699 -20.167 -12.5 -28.5s-17.833 -12.5 -28.5 -12.5h-113c-10.667 0 -20.167 4.16699 -28.5 12.5s-12.5 17.833 -12.5 28.5zM303.001 1569l0.00195312 141c0 8 3.16699 15.5 9.5 22.5
s14.166 10.5 23.499 10.5h139c9.33301 0 17.166 -3.5 23.499 -10.5s9.5 -14.5 9.5 -22.5v-141c0 -22 -11 -33 -33 -33h-139c-22 0 -33 11 -33 33z" />
    <glyph glyph-name="Eth" unicode="&#xd0;" horiz-adv-x="1101" 
d="M6 676v112.003c0 10.667 4.16699 20.167 12.5 28.5s17.833 12.5 28.5 12.5h66c13.333 0 20 7 20 21v543c0 10.667 4.16699 20.167 12.5 28.5s17.833 12.5 28.5 12.5h389c58.667 0 113 -11.333 163 -34s93.333 -53.5 130 -92.5s67 -84.667 91 -137
s39.333 -107.833 46 -166.5c5.33301 -40.667 9.16602 -86 11.499 -136s3.5 -100.667 3.5 -152s-1.5 -101.5 -4.5 -150.5s-6.5 -94.167 -10.5 -135.5c-6.66699 -58.667 -21.667 -114.334 -45 -167.001s-53.666 -98.334 -90.999 -137.001s-81 -69.334 -131 -92.001
s-104.333 -34 -163 -34h-389c-10.667 0 -20.167 4.16699 -28.5 12.5s-12.5 17.833 -12.5 28.5v573c0 13.333 -6.66699 20.333 -20 21h-66c-10.667 0 -20.167 4 -28.5 12s-12.5 17.667 -12.5 29zM328 215.003c0 -13.333 6.66699 -20 20 -20h215
c31.333 0 60.666 6.33301 87.999 19s51.333 30 72 52s37.5 47 50.5 75s21.5 57.667 25.5 89c5.33301 40.667 9 85.667 11 135s3 99.666 3 150.999s-1 101.833 -3 151.5s-5.66699 95.167 -11 136.5c-4 30 -12.5 59.333 -25.5 88s-29.833 53.834 -50.5 75.501
s-44.667 39 -72 52s-56.666 19.5 -87.999 19.5h-215c-13.333 0 -20 -6.66699 -20 -20v-369c0 -13.333 6.66699 -20.333 20 -21h205c10.667 0 20.167 -4 28.5 -12s12.5 -17.667 12.5 -29v-112c0 -10.667 -4.16699 -20.167 -12.5 -28.5s-17.833 -12.5 -28.5 -12.5h-205
c-13.333 0 -20 -7 -20 -21v-399z" />
    <glyph glyph-name="Ntilde" unicode="&#xd1;" horiz-adv-x="1126" 
d="M133 41l0.000976562 1352c0 10.667 4.16699 20.167 12.5 28.5s17.833 12.5 28.5 12.5h170c10.667 0 19.167 -2.16699 25.5 -6.5s12.166 -13.833 17.499 -28.5l404 -1010c2.66699 -4 6 -5.66699 10 -5s6 3.66699 6 9v1000c0 10.667 4 20.167 12 28.5s17.667 12.5 29 12.5
h104c10.667 0 20.167 -4.16699 28.5 -12.5s12.5 -17.833 12.5 -28.5v-1352c0 -10.667 -4 -20.167 -12 -28.5s-17.667 -12.5 -29 -12.5h-170c-10.667 0 -19 2 -25 6s-12 13.667 -18 29l-403 1014c-2.66699 4 -6.16699 5.66699 -10.5 5s-6.5 -4 -6.5 -10v-1003
c0 -10.667 -4 -20.167 -12 -28.5s-17.333 -12.5 -28 -12.5h-105c-10.667 0 -20.167 4.16699 -28.5 12.5s-12.5 17.833 -12.5 28.5zM272.001 1585l-0.00195312 81.998c0 27.333 14 51.666 42 72.999s62.667 32 104 32c32.667 0 59.5 -2.83301 80.5 -8.5
s40.833 -11.5 59.5 -17.5s39 -11.833 61 -17.5s50.667 -8.5 86 -8.5c26 0 46 4.5 60 13.5s25.333 18.833 34 29.5c8 10.667 18.5 13.334 31.5 8.00098s19.5 -17.333 19.5 -36v-82c0 -27.333 -14 -51.666 -42 -72.999s-62.333 -32 -103 -32
c-32.667 0 -59.667 2.83301 -81 8.5s-41.166 11.5 -59.499 17.5s-38.833 11.667 -61.5 17s-51 8 -85 8c-23.333 0 -42.166 -3.66699 -56.499 -11s-26.833 -18 -37.5 -32c-8 -9.33301 -18.667 -11.666 -32 -6.99902s-20 16.667 -20 36z" />
    <glyph glyph-name="Ograve" unicode="&#xd2;" horiz-adv-x="1138" 
d="M92 718c0 56.667 1.33398 111.669 4.00098 165.002s7 100.333 13 141c6.66699 56 21.5 109.667 44.5 161s54 96.666 93 135.999s85.5 70.666 139.5 93.999s115 35 183 35c61.333 0 118.333 -9.83301 171 -29.5s99.167 -48 139.5 -85s73.5 -81.833 99.5 -134.5
s43 -111.667 51 -177c5.33301 -40.667 9 -88 11 -142s3 -109 3 -165s-1.33301 -111 -4 -165s-6 -101.333 -10 -142c-6.66699 -56 -21.667 -110 -45 -162s-54.333 -97.5 -93 -136.5s-85.334 -70 -140.001 -93s-115.667 -34.5 -183 -34.5
c-61.333 0 -118.333 9.83301 -171 29.5s-99 48 -139 85s-73 81.667 -99 134s-43 111.5 -51 177.5c-5.33301 40.667 -9.5 88 -12.5 142s-4.5 109.333 -4.5 166zM287.001 717.002c0 -56 1.33594 -110.668 4.00293 -164.001s6.66699 -101 12 -143c4 -30 12.5 -59 25.5 -87
s30.833 -52.667 53.5 -74s49.667 -38.5 81 -51.5s66.666 -19.5 105.999 -19.5c69.333 0 128.333 20.167 177 60.5s78.667 97.5 90 171.5c5.33301 42 9.66602 89.667 12.999 143s5 108 5 164s-1.66699 110.667 -5 164s-7.66602 101 -12.999 143c-4 30 -12.5 59 -25.5 87
s-30.833 52.667 -53.5 74s-49.334 38.333 -80.001 51s-66.667 19 -108 19c-66.667 0 -125.334 -19.667 -176.001 -59s-80.667 -96.666 -90 -171.999c-5.33301 -42 -9.33301 -89.667 -12 -143s-4 -108 -4 -164zM287.004 1816.5c4 11 12.668 16.501 26.001 16.501h162
c15.333 0 26.666 -3.83301 33.999 -11.5s13.666 -14.834 18.999 -21.501l156 -223c5.33301 -6.66699 5.33301 -15.167 0 -25.5s-15 -15.5 -29 -15.5h-82c-19.333 0 -32.666 2.33301 -39.999 7s-14.333 10.667 -21 18l-221 229c-6.66699 6.66699 -8 15.5 -4 26.5z" />
    <glyph glyph-name="Oacute" unicode="&#xd3;" horiz-adv-x="1138" 
d="M92 718c0 56.667 1.33398 111.669 4.00098 165.002s7 100.333 13 141c6.66699 56 21.5 109.667 44.5 161s54 96.666 93 135.999s85.5 70.666 139.5 93.999s115 35 183 35c61.333 0 118.333 -9.83301 171 -29.5s99.167 -48 139.5 -85s73.5 -81.833 99.5 -134.5
s43 -111.667 51 -177c5.33301 -40.667 9 -88 11 -142s3 -109 3 -165s-1.33301 -111 -4 -165s-6 -101.333 -10 -142c-6.66699 -56 -21.667 -110 -45 -162s-54.333 -97.5 -93 -136.5s-85.334 -70 -140.001 -93s-115.667 -34.5 -183 -34.5
c-61.333 0 -118.333 9.83301 -171 29.5s-99 48 -139 85s-73 81.667 -99 134s-43 111.5 -51 177.5c-5.33301 40.667 -9.5 88 -12.5 142s-4.5 109.333 -4.5 166zM287.001 717.002c0 -56 1.33594 -110.668 4.00293 -164.001s6.66699 -101 12 -143c4 -30 12.5 -59 25.5 -87
s30.833 -52.667 53.5 -74s49.667 -38.5 81 -51.5s66.666 -19.5 105.999 -19.5c69.333 0 128.333 20.167 177 60.5s78.667 97.5 90 171.5c5.33301 42 9.66602 89.667 12.999 143s5 108 5 164s-1.66699 110.667 -5 164s-7.66602 101 -12.999 143c-4 30 -12.5 59 -25.5 87
s-30.833 52.667 -53.5 74s-49.334 38.333 -80.001 51s-66.667 19 -108 19c-66.667 0 -125.334 -19.667 -176.001 -59s-80.667 -96.666 -90 -171.999c-5.33301 -42 -9.33301 -89.667 -12 -143s-4 -108 -4 -164zM452.504 1551.5
c-5.66699 10.333 -5.49707 18.832 0.50293 25.499l155 223c5.33301 6.66699 11.833 13.834 19.5 21.501s19.167 11.5 34.5 11.5h161c13.333 0 22.166 -5.5 26.499 -16.5s3.16602 -19.833 -3.50098 -26.5l-221 -229c-6.66699 -6.66699 -13.834 -12.5 -21.501 -17.5
s-21.167 -7.5 -40.5 -7.5h-82c-13.333 0 -22.833 5.16699 -28.5 15.5z" />
    <glyph glyph-name="Ocircumflex" unicode="&#xd4;" horiz-adv-x="1138" 
d="M92 718c0 56.667 1.33398 111.669 4.00098 165.002s7 100.333 13 141c6.66699 56 21.5 109.667 44.5 161s54 96.666 93 135.999s85.5 70.666 139.5 93.999s115 35 183 35c61.333 0 118.333 -9.83301 171 -29.5s99.167 -48 139.5 -85s73.5 -81.833 99.5 -134.5
s43 -111.667 51 -177c5.33301 -40.667 9 -88 11 -142s3 -109 3 -165s-1.33301 -111 -4 -165s-6 -101.333 -10 -142c-6.66699 -56 -21.667 -110 -45 -162s-54.333 -97.5 -93 -136.5s-85.334 -70 -140.001 -93s-115.667 -34.5 -183 -34.5
c-61.333 0 -118.333 9.83301 -171 29.5s-99 48 -139 85s-73 81.667 -99 134s-43 111.5 -51 177.5c-5.33301 40.667 -9.5 88 -12.5 142s-4.5 109.333 -4.5 166zM242.001 1552.5c-4 11 -2.67188 19.833 3.99512 26.5l221 229c6.66699 6.66699 13.834 12.5 21.501 17.5
s20.834 7.5 39.501 7.5h86c18 0 30.833 -2.33301 38.5 -7s14.834 -10.667 21.501 -18l221 -229c6.66699 -6.66699 8 -15.5 4 -26.5s-13 -16.5 -27 -16.5h-120c-15.333 0 -28.166 3.83301 -38.499 11.5s-18.833 14.834 -25.5 21.501l-104 100
c-9.33301 9.33301 -19 9.33301 -29 0l-102 -100c-6.66699 -6.66699 -15.167 -13.834 -25.5 -21.501s-23.166 -11.5 -38.499 -11.5h-121c-13.333 0 -22 5.5 -26 16.5zM286.996 717.002c0 -56 1.33594 -110.668 4.00293 -164.001s6.66699 -101 12 -143
c4 -30 12.5 -59 25.5 -87s30.833 -52.667 53.5 -74s49.667 -38.5 81 -51.5s66.666 -19.5 105.999 -19.5c69.333 0 128.333 20.167 177 60.5s78.667 97.5 90 171.5c5.33301 42 9.66602 89.667 12.999 143s5 108 5 164s-1.66699 110.667 -5 164s-7.66602 101 -12.999 143
c-4 30 -12.5 59 -25.5 87s-30.833 52.667 -53.5 74s-49.334 38.333 -80.001 51s-66.667 19 -108 19c-66.667 0 -125.334 -19.667 -176.001 -59s-80.667 -96.666 -90 -171.999c-5.33301 -42 -9.33301 -89.667 -12 -143s-4 -108 -4 -164z" />
    <glyph glyph-name="Otilde" unicode="&#xd5;" horiz-adv-x="1138" 
d="M92 718c0 56.667 1.33398 111.669 4.00098 165.002s7 100.333 13 141c6.66699 56 21.5 109.667 44.5 161s54 96.666 93 135.999s85.5 70.666 139.5 93.999s115 35 183 35c61.333 0 118.333 -9.83301 171 -29.5s99.167 -48 139.5 -85s73.5 -81.833 99.5 -134.5
s43 -111.667 51 -177c5.33301 -40.667 9 -88 11 -142s3 -109 3 -165s-1.33301 -111 -4 -165s-6 -101.333 -10 -142c-6.66699 -56 -21.667 -110 -45 -162s-54.333 -97.5 -93 -136.5s-85.334 -70 -140.001 -93s-115.667 -34.5 -183 -34.5
c-61.333 0 -118.333 9.83301 -171 29.5s-99 48 -139 85s-73 81.667 -99 134s-43 111.5 -51 177.5c-5.33301 40.667 -9.5 88 -12.5 142s-4.5 109.333 -4.5 166zM281.001 1585l-0.000976562 81.998c0 27.333 14 51.666 42 72.999s62.333 32 103 32
c32.667 0 59.667 -2.83301 81 -8.5s41.166 -11.5 59.499 -17.5s38.5 -11.833 60.5 -17.5s50.667 -8.5 86 -8.5c26 0 46.167 4.5 60.5 13.5s25.5 18.833 33.5 29.5s18.5 13.334 31.5 8.00098s19.5 -17.333 19.5 -36v-82c0 -27.333 -14 -51.666 -42 -72.999
s-62.333 -32 -103 -32c-32.667 0 -59.667 2.83301 -81 8.5s-41.166 11.5 -59.499 17.5s-38.833 11.667 -61.5 17s-51 8 -85 8c-23.333 0 -42.166 -3.66699 -56.499 -11s-26.833 -18 -37.5 -32c-8 -9.33301 -18.5 -11.666 -31.5 -6.99902s-19.5 16.667 -19.5 36zM287 717
c0 -56 1.33594 -110.668 4.00293 -164.001s6.66699 -101 12 -143c4 -30 12.5 -59 25.5 -87s30.833 -52.667 53.5 -74s49.667 -38.5 81 -51.5s66.666 -19.5 105.999 -19.5c69.333 0 128.333 20.167 177 60.5s78.667 97.5 90 171.5c5.33301 42 9.66602 89.667 12.999 143
s5 108 5 164s-1.66699 110.667 -5 164s-7.66602 101 -12.999 143c-4 30 -12.5 59 -25.5 87s-30.833 52.667 -53.5 74s-49.334 38.333 -80.001 51s-66.667 19 -108 19c-66.667 0 -125.334 -19.667 -176.001 -59s-80.667 -96.666 -90 -171.999
c-5.33301 -42 -9.33301 -89.667 -12 -143s-4 -108 -4 -164z" />
    <glyph glyph-name="Odieresis" unicode="&#xd6;" horiz-adv-x="1138" 
d="M92 718c0 56.667 1.33398 111.669 4.00098 165.002s7 100.333 13 141c6.66699 56 21.5 109.667 44.5 161s54 96.666 93 135.999s85.5 70.666 139.5 93.999s115 35 183 35c61.333 0 118.333 -9.83301 171 -29.5s99.167 -48 139.5 -85s73.5 -81.833 99.5 -134.5
s43 -111.667 51 -177c5.33301 -40.667 9 -88 11 -142s3 -109 3 -165s-1.33301 -111 -4 -165s-6 -101.333 -10 -142c-6.66699 -56 -21.667 -110 -45 -162s-54.333 -97.5 -93 -136.5s-85.334 -70 -140.001 -93s-115.667 -34.5 -183 -34.5
c-61.333 0 -118.333 9.83301 -171 29.5s-99 48 -139 85s-73 81.667 -99 134s-43 111.5 -51 177.5c-5.33301 40.667 -9.5 88 -12.5 142s-4.5 109.333 -4.5 166zM287.001 717.002c0 -56 1.33594 -110.668 4.00293 -164.001s6.66699 -101 12 -143c4 -30 12.5 -59 25.5 -87
s30.833 -52.667 53.5 -74s49.667 -38.5 81 -51.5s66.666 -19.5 105.999 -19.5c69.333 0 128.333 20.167 177 60.5s78.667 97.5 90 171.5c5.33301 42 9.66602 89.667 12.999 143s5 108 5 164s-1.66699 110.667 -5 164s-7.66602 101 -12.999 143c-4 30 -12.5 59 -25.5 87
s-30.833 52.667 -53.5 74s-49.334 38.333 -80.001 51s-66.667 19 -108 19c-66.667 0 -125.334 -19.667 -176.001 -59s-80.667 -96.666 -90 -171.999c-5.33301 -42 -9.33301 -89.667 -12 -143s-4 -108 -4 -164zM291.004 1569l0.000976562 141c0 8 3 15.5 9 22.5
s14 10.5 24 10.5h139c9.33301 0 17.166 -3.5 23.499 -10.5s9.5 -14.5 9.5 -22.5v-141c0 -22 -11 -33 -33 -33h-139c-22 0 -33 11 -33 33zM641.005 1569l0.000976562 141c0 8 3 15.5 9 22.5s14 10.5 24 10.5h139c9.33301 0 17.166 -3.5 23.499 -10.5s9.5 -14.5 9.5 -22.5
v-141c0 -22 -11 -33 -33 -33h-139c-22 0 -33 11 -33 33z" />
    <glyph glyph-name="multiply" unicode="&#xd7;" horiz-adv-x="987" 
d="M102.5 786.5c-0.333008 11 3.83398 20.5 12.501 28.5l75 76c19.333 19.333 38.666 19.333 57.999 0l231 -232c9.33301 -9.33301 19 -9.33301 29 0l229 230c8 8 17.5 12 28.5 12s20.833 -4 29.5 -12l75 -76c8 -8 12.167 -17.5 12.5 -28.5s-3.83398 -20.5 -12.501 -28.5
l-229 -230c-9.33301 -9.33301 -9.33301 -18.666 0 -27.999l231 -232c19.333 -19.333 19.333 -38.333 0 -57l-75 -76c-8 -8 -17.5 -12 -28.5 -12s-20.833 4 -29.5 12l-231 232c-9.33301 9.33301 -19 9.33301 -29 0l-229 -230c-8 -8 -17.5 -12 -28.5 -12s-20.5 4 -28.5 12
l-76 76c-8 8 -12.167 17.5 -12.5 28.5s3.83398 20.5 12.501 28.5l229 230c9.33301 9.33301 9.33301 18.666 0 27.999l-231 232c-8 8 -12.167 17.5 -12.5 28.5z" />
    <glyph glyph-name="Oslash" unicode="&#xd8;" horiz-adv-x="1138" 
d="M75 17.5c-9.33301 11.667 -8.99902 24.835 1.00098 39.502l84 136c6.66699 10.667 9 18.667 7 24s-4.33301 9.33301 -7 12c-12 27.333 -22.5 55.666 -31.5 84.999s-15.5 61.333 -19.5 96c-5.33301 40.667 -9.5 88 -12.5 142s-4.5 109.333 -4.5 166s1.33301 111.667 4 165
s7 100.333 13 141c6.66699 56 21.5 109.667 44.5 161s54 96.666 93 135.999s85.5 70.666 139.5 93.999s115 35 183 35c106.667 0 198.334 -28 275.001 -84c2.66699 -2.66699 5.66699 -4.33398 9 -5.00098s7.66602 2.33301 12.999 9l23 33
c6.66699 10.667 12.334 18.5 17.001 23.5s12 7.5 22 7.5h106c13.333 0 24.166 -6.16699 32.499 -18.5s8.5 -25.5 0.5 -39.5l-92 -145c-4 -6.66699 -5.33301 -11.5 -4 -14.5s2.66602 -5.83301 3.99902 -8.5c26 -53.333 44.333 -114.666 55 -183.999
c5.33301 -40.667 9 -88 11 -142s3 -109 3 -165s-1.33301 -111 -4 -165s-6 -101.333 -10 -142c-6.66699 -56 -21.667 -110 -45 -162s-54.333 -97.5 -93 -136.5s-85.334 -70 -140.001 -93s-115.667 -34.5 -183 -34.5c-105.333 0 -195.333 26.333 -270 79l-9 4.5
c-3.33301 1.66699 -8 -1.16602 -14 -8.49902l-18 -28c-12 -20.667 -26.333 -31 -43 -31h-106c-13.333 -0 -24.666 5.83301 -33.999 17.5zM288.001 747.501c-0.666992 -50.333 -0.331055 -100.499 1.00195 -150.499s4 -96 8 -138c0 -6.66699 1.66699 -11.834 5 -15.501
s8.33301 0.166016 15 11.499l242 401l189 315c5.33301 8 7 13.833 5 17.5s-4.66699 6.16699 -8 7.5c-22 18 -47.667 32.333 -77 43s-62.333 16 -99 16c-66.667 0 -125.334 -19.667 -176.001 -59s-80.667 -96.666 -90 -171.999c-4 -38 -7.33301 -81 -10 -129
s-4.33398 -97.167 -5.00098 -147.5zM396.004 238.502c3.33301 -5 6.66699 -8.83594 10 -11.5029c44 -32.667 98.333 -49 163 -49c69.333 0 128.5 20.167 177.5 60.5s78.833 97.5 89.5 171.5c5.33301 38 9.33301 80.5 12 127.5s4.33398 95.833 5.00098 146.5
s0 100.834 -2 150.501s-5 95.834 -9 138.501c0 2.66699 -1.83301 5.33398 -5.5 8.00098s-8.16699 0 -13.5 -8l-422 -711c-6.66699 -10.667 -8.33398 -18.5 -5.00098 -23.5z" />
    <glyph glyph-name="Ugrave" unicode="&#xd9;" horiz-adv-x="1142" 
d="M111 410v983.001c0 10.667 4 20.167 12 28.5s17.667 12.5 29 12.5h112c10.667 0 20.167 -4.16699 28.5 -12.5s12.5 -17.833 12.5 -28.5v-983c0 -40.667 7.5 -75.834 22.5 -105.501s35.167 -53.667 60.5 -72s54 -32 86 -41s64.333 -13.5 97 -13.5
c38 0 73.5 5.83301 106.5 17.5s61.5 28 85.5 49s42.5 45.5 55.5 73.5s19.5 58.667 19.5 92v983c0 10.667 4 20.167 12 28.5s17.667 12.5 29 12.5h112c10.667 0 20.167 -4.16699 28.5 -12.5s12.5 -17.833 12.5 -28.5v-983c0 -61.333 -12.333 -118 -37 -170
s-58.167 -97.167 -100.5 -135.5s-91.333 -68 -147 -89s-114.5 -31.5 -176.5 -31.5c-65.333 0 -126.333 10.5 -183 31.5s-105.5 50.667 -146.5 89s-73 83.333 -96 135s-34.5 108.5 -34.5 170.5zM289 1816.5c4 11 12.668 16.501 26.001 16.501h162
c15.333 0 26.666 -3.83301 33.999 -11.5s13.666 -14.834 18.999 -21.501l156 -223c5.33301 -6.66699 5.33301 -15.167 0 -25.5s-15 -15.5 -29 -15.5h-82c-19.333 0 -32.666 2.33301 -39.999 7s-14.333 10.667 -21 18l-221 229c-6.66699 6.66699 -8 15.5 -4 26.5z" />
    <glyph glyph-name="Uacute" unicode="&#xda;" horiz-adv-x="1142" 
d="M111 410v983.001c0 10.667 4 20.167 12 28.5s17.667 12.5 29 12.5h112c10.667 0 20.167 -4.16699 28.5 -12.5s12.5 -17.833 12.5 -28.5v-983c0 -40.667 7.5 -75.834 22.5 -105.501s35.167 -53.667 60.5 -72s54 -32 86 -41s64.333 -13.5 97 -13.5
c38 0 73.5 5.83301 106.5 17.5s61.5 28 85.5 49s42.5 45.5 55.5 73.5s19.5 58.667 19.5 92v983c0 10.667 4 20.167 12 28.5s17.667 12.5 29 12.5h112c10.667 0 20.167 -4.16699 28.5 -12.5s12.5 -17.833 12.5 -28.5v-983c0 -61.333 -12.333 -118 -37 -170
s-58.167 -97.167 -100.5 -135.5s-91.333 -68 -147 -89s-114.5 -31.5 -176.5 -31.5c-65.333 0 -126.333 10.5 -183 31.5s-105.5 50.667 -146.5 89s-73 83.333 -96 135s-34.5 108.5 -34.5 170.5zM454.5 1551.5c-5.66699 10.333 -5.49707 18.832 0.50293 25.499l155 223
c5.33301 6.66699 11.833 13.834 19.5 21.501s19.167 11.5 34.5 11.5h161c13.333 0 22.166 -5.5 26.499 -16.5s3.16602 -19.833 -3.50098 -26.5l-221 -229c-6.66699 -6.66699 -13.834 -12.5 -21.501 -17.5s-21.167 -7.5 -40.5 -7.5h-82c-13.333 0 -22.833 5.16699 -28.5 15.5
z" />
    <glyph glyph-name="Ucircumflex" unicode="&#xdb;" horiz-adv-x="1142" 
d="M111 410v983.001c0 10.667 4 20.167 12 28.5s17.667 12.5 29 12.5h112c10.667 0 20.167 -4.16699 28.5 -12.5s12.5 -17.833 12.5 -28.5v-983c0 -40.667 7.5 -75.834 22.5 -105.501s35.167 -53.667 60.5 -72s54 -32 86 -41s64.333 -13.5 97 -13.5
c38 0 73.5 5.83301 106.5 17.5s61.5 28 85.5 49s42.5 45.5 55.5 73.5s19.5 58.667 19.5 92v983c0 10.667 4 20.167 12 28.5s17.667 12.5 29 12.5h112c10.667 0 20.167 -4.16699 28.5 -12.5s12.5 -17.833 12.5 -28.5v-983c0 -61.333 -12.333 -118 -37 -170
s-58.167 -97.167 -100.5 -135.5s-91.333 -68 -147 -89s-114.5 -31.5 -176.5 -31.5c-65.333 0 -126.333 10.5 -183 31.5s-105.5 50.667 -146.5 89s-73 83.333 -96 135s-34.5 108.5 -34.5 170.5zM242 1552.5c-4 11 -2.67188 19.833 3.99512 26.5l221 229
c6.66699 6.66699 13.834 12.5 21.501 17.5s20.834 7.5 39.501 7.5h86c18 0 30.833 -2.33301 38.5 -7s14.834 -10.667 21.501 -18l221 -229c6.66699 -6.66699 8 -15.5 4 -26.5s-13 -16.5 -27 -16.5h-120c-15.333 0 -28.166 3.83301 -38.499 11.5s-18.833 14.834 -25.5 21.501
l-104 100c-9.33301 9.33301 -19 9.33301 -29 0l-102 -100c-6.66699 -6.66699 -15.167 -13.834 -25.5 -21.501s-23.166 -11.5 -38.499 -11.5h-121c-13.333 0 -22 5.5 -26 16.5z" />
    <glyph glyph-name="Udieresis" unicode="&#xdc;" horiz-adv-x="1142" 
d="M111 410v983.001c0 10.667 4 20.167 12 28.5s17.667 12.5 29 12.5h112c10.667 0 20.167 -4.16699 28.5 -12.5s12.5 -17.833 12.5 -28.5v-983c0 -40.667 7.5 -75.834 22.5 -105.501s35.167 -53.667 60.5 -72s54 -32 86 -41s64.333 -13.5 97 -13.5
c38 0 73.5 5.83301 106.5 17.5s61.5 28 85.5 49s42.5 45.5 55.5 73.5s19.5 58.667 19.5 92v983c0 10.667 4 20.167 12 28.5s17.667 12.5 29 12.5h112c10.667 0 20.167 -4.16699 28.5 -12.5s12.5 -17.833 12.5 -28.5v-983c0 -61.333 -12.333 -118 -37 -170
s-58.167 -97.167 -100.5 -135.5s-91.333 -68 -147 -89s-114.5 -31.5 -176.5 -31.5c-65.333 0 -126.333 10.5 -183 31.5s-105.5 50.667 -146.5 89s-73 83.333 -96 135s-34.5 108.5 -34.5 170.5zM297 1569l0.000976562 141c0 8 3 15.5 9 22.5s14 10.5 24 10.5h139
c9.33301 0 17.166 -3.5 23.499 -10.5s9.5 -14.5 9.5 -22.5v-141c0 -22 -11 -33 -33 -33h-139c-22 0 -33 11 -33 33zM647.001 1569l0.00195312 141c0 8 3.16699 15.5 9.5 22.5s14.166 10.5 23.499 10.5h139c9.33301 0 17.166 -3.5 23.499 -10.5s9.5 -14.5 9.5 -22.5v-141
c0 -22 -11 -33 -33 -33h-139c-22 0 -33 11 -33 33z" />
    <glyph glyph-name="Yacute" unicode="&#xdd;" horiz-adv-x="937" 
d="M25 1376c-6.66699 15.333 -6.33301 28.833 1 40.5s17.666 17.5 30.999 17.5h136c19.333 0 32 -10.333 38 -31l232 -637c5.33301 -13.333 10.666 -13.333 15.999 0l228 637c6.66699 20.667 19.334 31 38.001 31h136c13.333 0 23.833 -5.83301 31.5 -17.5
s7.83398 -25.167 0.500977 -40.5l-344 -882v-453c0 -10.667 -4 -20.167 -12 -28.5s-17.667 -12.5 -29 -12.5h-114c-10.667 0 -20.167 4.16699 -28.5 12.5s-12.5 17.833 -12.5 28.5v451zM373.001 1551.5c-5.33301 10.333 -5.33105 18.832 0.00195312 25.499l155 223
c5.33301 6.66699 11.833 13.834 19.5 21.501s19.167 11.5 34.5 11.5h161c13.333 0 22.166 -5.5 26.499 -16.5s3.16602 -19.833 -3.50098 -26.5l-221 -229c-6.66699 -6.66699 -13.834 -12.5 -21.501 -17.5s-21.167 -7.5 -40.5 -7.5h-82
c-13.333 0 -22.666 5.16699 -27.999 15.5z" />
    <glyph glyph-name="Thorn" unicode="&#xde;" horiz-adv-x="1044" 
d="M133 41v1352c0 10.667 4.16699 20.167 12.5 28.5s17.833 12.5 28.5 12.5h113c10.667 0 20.167 -4.16699 28.5 -12.5s12.5 -17.833 12.5 -28.5v-164c0 -13.333 6.66699 -20.333 20 -21h174c58.667 0 114.334 -11.167 167.001 -33.5s98.5 -53 137.5 -92
s69.667 -84.833 92 -137.5s33.5 -108.334 33.5 -167.001v-102c0 -60 -11.167 -116 -33.5 -168s-53 -97.5 -92 -136.5s-84.833 -69.667 -137.5 -92s-108.334 -33.5 -167.001 -33.5h-174c-13.333 0 -20 -7 -20 -21v-184c0 -10.667 -4.16699 -20.167 -12.5 -28.5
s-17.833 -12.5 -28.5 -12.5h-113c-10.667 0 -20.167 4.16699 -28.5 12.5s-12.5 17.833 -12.5 28.5zM328 461.001c0 -13.333 6.66699 -20.333 20 -21h174c32.667 0 63 6.16699 91 18.5s53 29.5 75 51.5s39.167 47 51.5 75s18.5 58.333 18.5 91v102
c0 32.667 -6.16699 63 -18.5 91s-29.5 53 -51.5 75s-47 39.167 -75 51.5s-58.333 18.5 -91 18.5h-174c-13.333 0 -20 -7 -20 -21v-532z" />
    <glyph glyph-name="germandbls" unicode="&#xdf;" horiz-adv-x="1058" 
d="M133 41l0.00195312 1017.99c0 54.667 10.667 105.834 32 153.501s50 89.667 86 126s78.667 64.666 128 84.999s102 30.5 158 30.5s108.167 -10.167 156.5 -30.5s90.5 -48.666 126.5 -84.999s64.333 -78.333 85 -126s31 -98.834 31 -153.501
c0 -57.333 -11 -109.666 -33 -156.999s-50.667 -88.666 -86 -123.999c-6.66699 -6.66699 -11 -14.5 -13 -23.5s1.66699 -17.5 11 -25.5c45.333 -39.333 82 -84.666 110 -135.999s42 -113.666 42 -186.999c0 -58.667 -11.333 -113 -34 -163s-53.5 -92.833 -92.5 -128.5
s-84.667 -63.667 -137 -84s-107.833 -30.5 -166.5 -30.5h-41c-10.667 0 -20.167 4.16699 -28.5 12.5s-12.5 17.833 -12.5 28.5v102c0 10.667 4 20.167 12 28.5s17.667 12.5 29 12.5h41c34 0 66 5.83301 96 17.5s56.167 27.5 78.5 47.5s39.666 43.167 51.999 69.5
s18.5 55.5 18.5 87.5c0 28.667 -4 58 -12 88s-21.667 56.833 -41 80.5s-44.333 43.334 -75 59.001s-68.334 23.5 -113.001 23.5h-25c-10.667 0 -20.167 4.16699 -28.5 12.5s-12.5 17.833 -12.5 28.5v101c0 10.667 4.16699 20.167 12.5 28.5s17.833 12.5 28.5 12.5h25
c35.333 0 66.333 6.16699 93 18.5s48.5 28.333 65.5 48s30 42.834 39 69.501s13.5 54.334 13.5 83.001c0 57.333 -19.5 106.833 -58.5 148.5s-91.167 62.5 -156.5 62.5c-66.667 0 -119.167 -20.833 -157.5 -62.5s-57.5 -91.167 -57.5 -148.5v-1018
c0 -10.667 -4.16699 -20.167 -12.5 -28.5s-17.833 -12.5 -28.5 -12.5h-107c-10.667 0 -20.167 4.16699 -28.5 12.5s-12.5 17.833 -12.5 28.5z" />
    <glyph glyph-name="agrave" unicode="&#xe0;" horiz-adv-x="997" 
d="M88 307c0 42 7.50293 81.833 22.5029 119.5s36.833 70.834 65.5 99.501s64.167 51.167 106.5 67.5s90.166 24.5 143.499 24.5h250c13.333 0 20 7 20 21v78c0 56 -17.333 97.333 -52 124s-80.667 40 -138 40c-18 0 -37.833 -2.16699 -59.5 -6.5s-42.5 -11.5 -62.5 -21.5
s-36.5 -23.333 -49.5 -40s-19.5 -37 -19.5 -61c0 -18 -5.33301 -28.333 -16 -31s-21 -4 -31 -4h-92c-27.333 0 -41 13.667 -41 41c0 48 11.333 89.667 34 125s51.667 65 87 89s74.833 42 118.5 54s87.5 18 131.5 18c116 0 207.5 -25.833 274.5 -77.5
s100.5 -134.834 100.5 -249.501v-676c0 -10.667 -4.16699 -20.167 -12.5 -28.5s-17.833 -12.5 -28.5 -12.5h-70c-10.667 0 -20.334 4.66699 -29.001 14c-6.66699 8 -12.334 17.167 -17.001 27.5s-12.667 15.5 -24 15.5c-9.33301 0 -19.833 -4 -31.5 -12
s-26.667 -16.833 -45 -26.5s-40.5 -18.5 -66.5 -26.5s-58 -12 -96 -12c-62.667 0 -117.667 8.83301 -165 26.5s-86.333 41.5 -117 71.5s-53.5 64.833 -68.5 104.5s-22.5 81.167 -22.5 124.5zM272.003 309c0 -50.667 15.5 -89.833 46.5 -117.5s76.5 -41.5 136.5 -41.5
c94 0 160.5 18.333 199.5 55s58.5 90 58.5 160v65c0 13.333 -7 20.333 -21 21h-266c-52 0 -90.667 -12.667 -116 -38s-38 -60 -38 -104zM299.003 1478.5c4 11 12.998 16.499 26.998 16.499h161c15.333 0 26.666 -3.66699 33.999 -11s14 -14.666 20 -21.999l155 -223
c5.33301 -6.66699 5.33301 -15.167 0 -25.5s-14.666 -15.5 -27.999 -15.5h-82c-19.333 0 -32.666 2.33301 -39.999 7s-14.666 10.667 -21.999 18l-221 229c-6.66699 6.66699 -8 15.5 -4 26.5z" />
    <glyph glyph-name="aacute" unicode="&#xe1;" horiz-adv-x="997" 
d="M88 307c0 42 7.50293 81.833 22.5029 119.5s36.833 70.834 65.5 99.501s64.167 51.167 106.5 67.5s90.166 24.5 143.499 24.5h250c13.333 0 20 7 20 21v78c0 56 -17.333 97.333 -52 124s-80.667 40 -138 40c-18 0 -37.833 -2.16699 -59.5 -6.5s-42.5 -11.5 -62.5 -21.5
s-36.5 -23.333 -49.5 -40s-19.5 -37 -19.5 -61c0 -18 -5.33301 -28.333 -16 -31s-21 -4 -31 -4h-92c-27.333 0 -41 13.667 -41 41c0 48 11.333 89.667 34 125s51.667 65 87 89s74.833 42 118.5 54s87.5 18 131.5 18c116 0 207.5 -25.833 274.5 -77.5
s100.5 -134.834 100.5 -249.501v-676c0 -10.667 -4.16699 -20.167 -12.5 -28.5s-17.833 -12.5 -28.5 -12.5h-70c-10.667 0 -20.334 4.66699 -29.001 14c-6.66699 8 -12.334 17.167 -17.001 27.5s-12.667 15.5 -24 15.5c-9.33301 0 -19.833 -4 -31.5 -12
s-26.667 -16.833 -45 -26.5s-40.5 -18.5 -66.5 -26.5s-58 -12 -96 -12c-62.667 0 -117.667 8.83301 -165 26.5s-86.333 41.5 -117 71.5s-53.5 64.833 -68.5 104.5s-22.5 81.167 -22.5 124.5zM272.003 309c0 -50.667 15.5 -89.833 46.5 -117.5s76.5 -41.5 136.5 -41.5
c94 0 160.5 18.333 199.5 55s58.5 90 58.5 160v65c0 13.333 -7 20.333 -21 21h-266c-52 0 -90.667 -12.667 -116 -38s-38 -60 -38 -104zM383.003 1239l156.005 222.999c5.33301 6.66699 11.666 13.834 18.999 21.501s18.666 11.5 33.999 11.5h162c13.333 0 22 -5.5 26 -16.5
s2.66699 -19.833 -4 -26.5l-221 -229c-6.66699 -6.66699 -13.834 -12.5 -21.501 -17.5s-20.834 -7.5 -39.501 -7.5h-82c-13.333 0 -22.833 5.16699 -28.5 15.5s-5.83398 18.833 -0.500977 25.5z" />
    <glyph glyph-name="acircumflex" unicode="&#xe2;" horiz-adv-x="997" 
d="M88 307c0 42 7.50293 81.833 22.5029 119.5s36.833 70.834 65.5 99.501s64.167 51.167 106.5 67.5s90.166 24.5 143.499 24.5h250c13.333 0 20 7 20 21v78c0 56 -17.333 97.333 -52 124s-80.667 40 -138 40c-18 0 -37.833 -2.16699 -59.5 -6.5s-42.5 -11.5 -62.5 -21.5
s-36.5 -23.333 -49.5 -40s-19.5 -37 -19.5 -61c0 -18 -5.33301 -28.333 -16 -31s-21 -4 -31 -4h-92c-27.333 0 -41 13.667 -41 41c0 48 11.333 89.667 34 125s51.667 65 87 89s74.833 42 118.5 54s87.5 18 131.5 18c116 0 207.5 -25.833 274.5 -77.5
s100.5 -134.834 100.5 -249.501v-676c0 -10.667 -4.16699 -20.167 -12.5 -28.5s-17.833 -12.5 -28.5 -12.5h-70c-10.667 0 -20.334 4.66699 -29.001 14c-6.66699 8 -12.334 17.167 -17.001 27.5s-12.667 15.5 -24 15.5c-9.33301 0 -19.833 -4 -31.5 -12
s-26.667 -16.833 -45 -26.5s-40.5 -18.5 -66.5 -26.5s-58 -12 -96 -12c-62.667 0 -117.667 8.83301 -165 26.5s-86.333 41.5 -117 71.5s-53.5 64.833 -68.5 104.5s-22.5 81.167 -22.5 124.5zM180.503 1214.5c-4.33301 11 -3.16992 19.833 3.49707 26.5l222 229
c6.66699 6.66699 13.667 12.5 21 17.5s20.666 7.5 39.999 7.5h86c18 0 30.667 -2.33301 38 -7s14.333 -10.667 21 -18l222 -229c6.66699 -6.66699 7.83398 -15.5 3.50098 -26.5s-13.166 -16.5 -26.499 -16.5h-121c-15.333 0 -28 3.83301 -38 11.5s-18.333 14.834 -25 21.501
l-105 100c-9.33301 9.33301 -18.666 9.33301 -27.999 0l-103 -100c-6.66699 -6.66699 -15.167 -13.834 -25.5 -21.501s-22.833 -11.5 -37.5 -11.5h-121c-13.333 0 -22.166 5.5 -26.499 16.5zM271.999 309c0 -50.667 15.5 -89.833 46.5 -117.5s76.5 -41.5 136.5 -41.5
c94 0 160.5 18.333 199.5 55s58.5 90 58.5 160v65c0 13.333 -7 20.333 -21 21h-266c-52 0 -90.667 -12.667 -116 -38s-38 -60 -38 -104z" />
    <glyph glyph-name="atilde" unicode="&#xe3;" horiz-adv-x="997" 
d="M88 307c0 42 7.50293 81.833 22.5029 119.5s36.833 70.834 65.5 99.501s64.167 51.167 106.5 67.5s90.166 24.5 143.499 24.5h250c13.333 0 20 7 20 21v78c0 56 -17.333 97.333 -52 124s-80.667 40 -138 40c-18 0 -37.833 -2.16699 -59.5 -6.5s-42.5 -11.5 -62.5 -21.5
s-36.5 -23.333 -49.5 -40s-19.5 -37 -19.5 -61c0 -18 -5.33301 -28.333 -16 -31s-21 -4 -31 -4h-92c-27.333 0 -41 13.667 -41 41c0 48 11.333 89.667 34 125s51.667 65 87 89s74.833 42 118.5 54s87.5 18 131.5 18c116 0 207.5 -25.833 274.5 -77.5
s100.5 -134.834 100.5 -249.501v-676c0 -10.667 -4.16699 -20.167 -12.5 -28.5s-17.833 -12.5 -28.5 -12.5h-70c-10.667 0 -20.334 4.66699 -29.001 14c-6.66699 8 -12.334 17.167 -17.001 27.5s-12.667 15.5 -24 15.5c-9.33301 0 -19.833 -4 -31.5 -12
s-26.667 -16.833 -45 -26.5s-40.5 -18.5 -66.5 -26.5s-58 -12 -96 -12c-62.667 0 -117.667 8.83301 -165 26.5s-86.333 41.5 -117 71.5s-53.5 64.833 -68.5 104.5s-22.5 81.167 -22.5 124.5zM231.003 1266l-0.00195312 81.9971c0 27.333 14 51.5 42 72.5
s62.667 31.5 104 31.5c32.667 0 59.5 -2.66699 80.5 -8s40.833 -11.166 59.5 -17.499s39 -12.166 61 -17.499s50.667 -8 86 -8c26 0 46 4.33301 60 13s25.333 18.667 34 30c8 10.667 18.5 13.334 31.5 8.00098s19.5 -17.666 19.5 -36.999v-82c0 -27.333 -14 -51.5 -42 -72.5
s-62.333 -31.5 -103 -31.5c-32.667 0 -59.667 2.66699 -81 8s-41.166 11.166 -59.499 17.499s-38.833 12.166 -61.5 17.499s-51 8 -85 8c-23.333 0 -42.166 -3.83301 -56.499 -11.5s-26.833 -18.167 -37.5 -31.5c-8 -9.33301 -18.667 -11.666 -32 -6.99902
s-20 16.667 -20 36zM272.001 308.997c0 -50.667 15.5 -89.833 46.5 -117.5s76.5 -41.5 136.5 -41.5c94 0 160.5 18.333 199.5 55s58.5 90 58.5 160v65c0 13.333 -7 20.333 -21 21h-266c-52 0 -90.667 -12.667 -116 -38s-38 -60 -38 -104z" />
    <glyph glyph-name="adieresis" unicode="&#xe4;" horiz-adv-x="997" 
d="M88 307c0 42 7.50293 81.833 22.5029 119.5s36.833 70.834 65.5 99.501s64.167 51.167 106.5 67.5s90.166 24.5 143.499 24.5h250c13.333 0 20 7 20 21v78c0 56 -17.333 97.333 -52 124s-80.667 40 -138 40c-18 0 -37.833 -2.16699 -59.5 -6.5s-42.5 -11.5 -62.5 -21.5
s-36.5 -23.333 -49.5 -40s-19.5 -37 -19.5 -61c0 -18 -5.33301 -28.333 -16 -31s-21 -4 -31 -4h-92c-27.333 0 -41 13.667 -41 41c0 48 11.333 89.667 34 125s51.667 65 87 89s74.833 42 118.5 54s87.5 18 131.5 18c116 0 207.5 -25.833 274.5 -77.5
s100.5 -134.834 100.5 -249.501v-676c0 -10.667 -4.16699 -20.167 -12.5 -28.5s-17.833 -12.5 -28.5 -12.5h-70c-10.667 0 -20.334 4.66699 -29.001 14c-6.66699 8 -12.334 17.167 -17.001 27.5s-12.667 15.5 -24 15.5c-9.33301 0 -19.833 -4 -31.5 -12
s-26.667 -16.833 -45 -26.5s-40.5 -18.5 -66.5 -26.5s-58 -12 -96 -12c-62.667 0 -117.667 8.83301 -165 26.5s-86.333 41.5 -117 71.5s-53.5 64.833 -68.5 104.5s-22.5 81.167 -22.5 124.5zM242.003 1274v141c0 8 3 15.5 9 22.5s13.667 10.5 23 10.5h140
c9.33301 0 17 -3.5 23 -10.5s9 -14.5 9 -22.5v-141c0 -22 -10.667 -33 -32 -33h-140c-22 0 -32.667 11 -32 33zM272.003 309c0 -50.667 15.5 -89.833 46.5 -117.5s76.5 -41.5 136.5 -41.5c94 0 160.5 18.333 199.5 55s58.5 90 58.5 160v65c0 13.333 -7 20.333 -21 21h-266
c-52 0 -90.667 -12.667 -116 -38s-38 -60 -38 -104zM592.003 1274l0.000976562 141c0 8 3 15.5 9 22.5s14 10.5 24 10.5h139c9.33301 0 17.166 -3.5 23.499 -10.5s9.5 -14.5 9.5 -22.5v-141c0 -22 -11 -33 -33 -33h-139c-22 0 -33 11 -33 33z" />
    <glyph glyph-name="aring" unicode="&#xe5;" horiz-adv-x="997" 
d="M88 307c0 42 7.50293 81.833 22.5029 119.5s36.833 70.834 65.5 99.501s64.167 51.167 106.5 67.5s90.166 24.5 143.499 24.5h250c13.333 0 20 7 20 21v78c0 56 -17.333 97.333 -52 124s-80.667 40 -138 40c-18 0 -37.833 -2.16699 -59.5 -6.5s-42.5 -11.5 -62.5 -21.5
s-36.5 -23.333 -49.5 -40s-19.5 -37 -19.5 -61c0 -18 -5.33301 -28.333 -16 -31s-21 -4 -31 -4h-92c-27.333 0 -41 13.667 -41 41c0 48 11.333 89.667 34 125s51.667 65 87 89s74.833 42 118.5 54s87.5 18 131.5 18c116 0 207.5 -25.833 274.5 -77.5
s100.5 -134.834 100.5 -249.501v-676c0 -10.667 -4.16699 -20.167 -12.5 -28.5s-17.833 -12.5 -28.5 -12.5h-70c-10.667 0 -20.334 4.66699 -29.001 14c-6.66699 8 -12.334 17.167 -17.001 27.5s-12.667 15.5 -24 15.5c-9.33301 0 -19.833 -4 -31.5 -12
s-26.667 -16.833 -45 -26.5s-40.5 -18.5 -66.5 -26.5s-58 -12 -96 -12c-62.667 0 -117.667 8.83301 -165 26.5s-86.333 41.5 -117 71.5s-53.5 64.833 -68.5 104.5s-22.5 81.167 -22.5 124.5zM272.003 309c0 -50.667 15.5 -89.833 46.5 -117.5s76.5 -41.5 136.5 -41.5
c94 0 160.5 18.333 199.5 55s58.5 90 58.5 160v65c0 13.333 -7 20.333 -21 21h-266c-52 0 -90.667 -12.667 -116 -38s-38 -60 -38 -104zM295.003 1372c0 31.333 5.83301 60.666 17.5 87.999s27.667 51.333 48 72s44.166 36.667 71.499 48s56.666 17 87.999 17
s60.666 -5.66699 87.999 -17s51.333 -27.333 72 -48s36.667 -44.667 48 -72s17 -56.666 17 -87.999s-5.66699 -60.666 -17 -87.999s-27.333 -51.166 -48 -71.499s-44.667 -36.333 -72 -48s-56.666 -17.5 -87.999 -17.5s-60.666 5.83301 -87.999 17.5
s-51.166 27.667 -71.499 48s-36.333 44.166 -48 71.499s-17.5 56.666 -17.5 87.999zM438.003 1372c0 -23.333 7.83301 -42.833 23.5 -58.5s35.167 -23.5 58.5 -23.5s42.833 7.83301 58.5 23.5s23.5 35.167 23.5 58.5s-7.83301 42.833 -23.5 58.5s-35.167 23.5 -58.5 23.5
s-42.833 -7.83301 -58.5 -23.5s-23.5 -35.167 -23.5 -58.5z" />
    <glyph glyph-name="ae" unicode="&#xe6;" horiz-adv-x="1626" 
d="M88 307c0 42 7.50098 81.832 22.501 119.499s36.833 70.5 65.5 98.5s64.167 50.167 106.5 66.5s90.166 24.5 143.499 24.5h260c13.333 0 20.333 7 21 21v70c0 58.667 -19.833 102.334 -59.5 131.001s-85.5 43 -137.5 43c-16.667 0 -36.167 -1.83301 -58.5 -5.5
s-43.833 -10.167 -64.5 -19.5s-37.834 -22.5 -51.501 -39.5s-20.5 -38.5 -20.5 -64.5c0 -18 -5.33301 -28.333 -16 -31s-21 -4 -31 -4h-92c-27.333 0 -41 13.667 -41 41c0 48 11.333 89.667 34 125s52 65 88 89s76.167 42 120.5 54s88.5 18 132.5 18
c62.667 0 119.667 -12.833 171 -38.5s88.666 -52.834 111.999 -81.501c6.66699 -9.33301 16.167 -14 28.5 -14s23.166 4.66699 32.499 14c31.333 34 70.833 62.5 118.5 85.5s100.167 34.5 157.5 34.5s111 -10.833 161 -32.5s93.5 -51 130.5 -88s66 -80.333 87 -130
s31.5 -102.5 31.5 -158.5v-141c-1.33301 -10.667 -5.66602 -20.167 -12.999 -28.5s-16.666 -12.5 -27.999 -12.5h-586c-13.333 0 -20 -7 -20 -21c0 -94 21.833 -162.167 65.5 -204.5s100.834 -63.5 171.501 -63.5c53.333 0 98.833 12 136.5 36s62.5 55 74.5 93
c4 13.333 10.5 22.5 19.5 27.5s18.5 7.5 28.5 7.5h104c10.667 0 19.834 -3.16699 27.501 -9.5s10.167 -16.833 7.5 -31.5c-6.66699 -45.333 -21 -86.833 -43 -124.5s-50.333 -70 -85 -97s-75 -48 -121 -63s-95.667 -22.5 -149 -22.5c-60 0 -113.833 9.16699 -161.5 27.5
s-89.167 43.833 -124.5 76.5c-26 22 -52 21.333 -78 -2c-32.667 -27.333 -74.334 -51.166 -125.001 -71.499s-110.667 -30.5 -180 -30.5c-62.667 0 -117.667 8.83301 -165 26.5s-86.333 41.5 -117 71.5s-53.5 64.833 -68.5 104.5s-22.5 81.167 -22.5 124.5zM272.001 308.999
c0 -50.667 15.5 -89.833 46.5 -117.5s76.5 -41.5 136.5 -41.5c94 0 162.167 18.333 204.5 55s63.5 90 63.5 160v67c0 13.333 -7 20.333 -21 21h-276c-52 0 -90.667 -13 -116 -39s-38 -61 -38 -105zM897.001 637c0 -13.333 7 -20.333 21 -21h425c13.333 0 20.333 7 21 21
c0 70.667 -22.5 125.5 -67.5 164.5s-99.5 58.5 -163.5 58.5c-70.667 0 -127.667 -21.5 -171 -64.5s-65 -95.833 -65 -158.5z" />
    <glyph glyph-name="ccedilla" unicode="&#xe7;" horiz-adv-x="978" 
d="M88 512c0 54.667 1.33398 102.333 4.00098 143c4 53.333 16 104 36 152s47.333 89.333 82 124s76.667 62.167 126 82.5s104.666 30.5 165.999 30.5c57.333 0 110.166 -8.83301 158.499 -26.5s90 -41.834 125 -72.501s62.333 -67.5 82 -110.5s29.5 -89.167 29.5 -138.5
c0 -10.667 -3 -20.167 -9 -28.5s-14.667 -12.5 -26 -12.5h-110c-9.33301 0 -18.166 2.83301 -26.499 8.5s-12.5 13.834 -12.5 24.501c0 48 -19.167 88.667 -57.5 122s-89.5 50 -153.5 50c-70.667 0 -124.834 -20.5 -162.501 -61.5s-58.834 -88.833 -63.501 -143.5
c-2.66699 -42 -4 -89.667 -4 -143s1.33301 -101 4 -143c4 -54.667 24.833 -102.5 62.5 -143.5s92.167 -61.5 163.5 -61.5c62.667 0 113.167 16.333 151.5 49s57.5 73 57.5 121c0 13.333 4 22.5 12 27.5s17 7.5 27 7.5h106c10.667 0 20.167 -4.16699 28.5 -12.5
s12.5 -17.833 12.5 -28.5c0 -49.333 -9.83301 -95.5 -29.5 -138.5s-47 -79.833 -82 -110.5s-76.667 -54.834 -125 -72.501s-101.166 -26.5 -158.499 -26.5c-61.333 0 -116.666 10.167 -165.999 30.5s-91.333 47.833 -126 82.5s-62 76 -82 124s-32 98.667 -36 152
c-2.66699 40.667 -4 88.334 -4 143.001zM322.001 -373.001l77.001 248c5.33301 22 18.333 33 39 33h109c13.333 0 22.833 -3.83301 28.5 -11.5s7.16699 -16.167 4.5 -25.5l-58 -248c-5.33301 -22 -18.333 -33 -39 -33h-129c-13.333 0 -22.833 3.83301 -28.5 11.5
s-6.83398 16.167 -3.50098 25.5z" />
    <glyph glyph-name="egrave" unicode="&#xe8;" horiz-adv-x="1007" 
d="M88 512c0 54.667 1.33301 102.332 4 142.999c4 53.333 16.667 104 38 152s50 89.333 86 124s79 62.167 129 82.5s105.667 30.5 167 30.5c124 0 223.333 -36.167 298 -108.5s112 -172.5 112 -300.5v-141c0 -10.667 -4.16699 -20.167 -12.5 -28.5
s-17.833 -12.5 -28.5 -12.5h-586c-13.333 0 -20.333 -7 -21 -21c0 -94 22 -162.167 66 -204.5s101.333 -63.5 172 -63.5c53.333 0 98.833 12 136.5 36s62.5 55 74.5 93c4 13.333 10.5 22.5 19.5 27.5s18.167 7.5 27.5 7.5h104c10.667 0 19.834 -3.16699 27.501 -9.5
s10.167 -16.833 7.5 -31.5c-6.66699 -45.333 -20.834 -86.833 -42.501 -124.5s-50 -70 -85 -97s-75.333 -48 -121 -63s-95.167 -22.5 -148.5 -22.5c-61.333 0 -117 10.167 -167 30.5s-93 47.833 -129 82.5s-64.667 76 -86 124s-34 98.667 -38 152
c-2.66699 40.667 -4 88.334 -4 143.001zM262 1478.5c4 11 12.999 16.499 26.999 16.499h162c15.333 0 26.666 -3.66699 33.999 -11s13.666 -14.666 18.999 -21.999l155 -223c5.33301 -6.66699 5.33301 -15.167 0 -25.5s-14.666 -15.5 -27.999 -15.5h-82
c-19.333 0 -32.666 2.33301 -39.999 7s-14.666 10.667 -21.999 18l-221 229c-6.66699 6.66699 -8 15.5 -4 26.5zM278.999 636.997c0 -13.333 6.66699 -20.333 20 -21h426c13.333 0 20 7 20 21c0 70.667 -22.5 125.5 -67.5 164.5s-99.5 58.5 -163.5 58.5
c-70.667 0 -127.5 -21.5 -170.5 -64.5s-64.5 -95.833 -64.5 -158.5z" />
    <glyph glyph-name="eacute" unicode="&#xe9;" horiz-adv-x="1007" 
d="M88 512c0 54.667 1.33301 102.332 4 142.999c4 53.333 16.667 104 38 152s50 89.333 86 124s79 62.167 129 82.5s105.667 30.5 167 30.5c124 0 223.333 -36.167 298 -108.5s112 -172.5 112 -300.5v-141c0 -10.667 -4.16699 -20.167 -12.5 -28.5
s-17.833 -12.5 -28.5 -12.5h-586c-13.333 0 -20.333 -7 -21 -21c0 -94 22 -162.167 66 -204.5s101.333 -63.5 172 -63.5c53.333 0 98.833 12 136.5 36s62.5 55 74.5 93c4 13.333 10.5 22.5 19.5 27.5s18.167 7.5 27.5 7.5h104c10.667 0 19.834 -3.16699 27.501 -9.5
s10.167 -16.833 7.5 -31.5c-6.66699 -45.333 -20.834 -86.833 -42.501 -124.5s-50 -70 -85 -97s-75.333 -48 -121 -63s-95.167 -22.5 -148.5 -22.5c-61.333 0 -117 10.167 -167 30.5s-93 47.833 -129 82.5s-64.667 76 -86 124s-34 98.667 -38 152
c-2.66699 40.667 -4 88.334 -4 143.001zM279 636.998c0 -13.333 6.66699 -20.333 20 -21h426c13.333 0 20 7 20 21c0 70.667 -22.5 125.5 -67.5 164.5s-99.5 58.5 -163.5 58.5c-70.667 0 -127.5 -21.5 -170.5 -64.5s-64.5 -95.833 -64.5 -158.5zM387 1239l156.006 222.999
c5.33301 6.66699 11.666 13.834 18.999 21.501s18.666 11.5 33.999 11.5h162c13.333 0 22.166 -5.5 26.499 -16.5s2.83301 -19.833 -4.5 -26.5l-221 -229c-6.66699 -6.66699 -13.834 -12.5 -21.501 -17.5s-20.834 -7.5 -39.501 -7.5h-82
c-13.333 0 -22.833 5.16699 -28.5 15.5s-5.83398 18.833 -0.500977 25.5z" />
    <glyph glyph-name="ecircumflex" unicode="&#xea;" horiz-adv-x="1007" 
d="M88 512c0 54.667 1.33301 102.332 4 142.999c4 53.333 16.667 104 38 152s50 89.333 86 124s79 62.167 129 82.5s105.667 30.5 167 30.5c124 0 223.333 -36.167 298 -108.5s112 -172.5 112 -300.5v-141c0 -10.667 -4.16699 -20.167 -12.5 -28.5
s-17.833 -12.5 -28.5 -12.5h-586c-13.333 0 -20.333 -7 -21 -21c0 -94 22 -162.167 66 -204.5s101.333 -63.5 172 -63.5c53.333 0 98.833 12 136.5 36s62.5 55 74.5 93c4 13.333 10.5 22.5 19.5 27.5s18.167 7.5 27.5 7.5h104c10.667 0 19.834 -3.16699 27.501 -9.5
s10.167 -16.833 7.5 -31.5c-6.66699 -45.333 -20.834 -86.833 -42.501 -124.5s-50 -70 -85 -97s-75.333 -48 -121 -63s-95.167 -22.5 -148.5 -22.5c-61.333 0 -117 10.167 -167 30.5s-93 47.833 -129 82.5s-64.667 76 -86 124s-34 98.667 -38 152
c-2.66699 40.667 -4 88.334 -4 143.001zM196.5 1214.5c-4.33301 11 -2.83691 19.833 4.49609 26.5l221 229c6.66699 6.66699 13.834 12.5 21.501 17.5s20.834 7.5 39.501 7.5h86c18 0 30.667 -2.33301 38 -7s14.666 -10.667 21.999 -18l221 -229
c6.66699 -6.66699 8 -15.5 4 -26.5s-13 -16.5 -27 -16.5h-120c-15.333 0 -28.166 3.83301 -38.499 11.5s-18.833 14.834 -25.5 21.501l-104 100c-9.33301 9.33301 -19 9.33301 -29 0l-102 -100c-6.66699 -6.66699 -15.167 -13.834 -25.5 -21.501
s-23.166 -11.5 -38.499 -11.5h-121c-13.333 0 -22.166 5.5 -26.499 16.5zM278.996 636.998c0 -13.333 6.66699 -20.333 20 -21h426c13.333 0 20 7 20 21c0 70.667 -22.5 125.5 -67.5 164.5s-99.5 58.5 -163.5 58.5c-70.667 0 -127.5 -21.5 -170.5 -64.5
s-64.5 -95.833 -64.5 -158.5z" />
    <glyph glyph-name="edieresis" unicode="&#xeb;" horiz-adv-x="1007" 
d="M88 512c0 54.667 1.33301 102.332 4 142.999c4 53.333 16.667 104 38 152s50 89.333 86 124s79 62.167 129 82.5s105.667 30.5 167 30.5c124 0 223.333 -36.167 298 -108.5s112 -172.5 112 -300.5v-141c0 -10.667 -4.16699 -20.167 -12.5 -28.5
s-17.833 -12.5 -28.5 -12.5h-586c-13.333 0 -20.333 -7 -21 -21c0 -94 22 -162.167 66 -204.5s101.333 -63.5 172 -63.5c53.333 0 98.833 12 136.5 36s62.5 55 74.5 93c4 13.333 10.5 22.5 19.5 27.5s18.167 7.5 27.5 7.5h104c10.667 0 19.834 -3.16699 27.501 -9.5
s10.167 -16.833 7.5 -31.5c-6.66699 -45.333 -20.834 -86.833 -42.501 -124.5s-50 -70 -85 -97s-75.333 -48 -121 -63s-95.167 -22.5 -148.5 -22.5c-61.333 0 -117 10.167 -167 30.5s-93 47.833 -129 82.5s-64.667 76 -86 124s-34 98.667 -38 152
c-2.66699 40.667 -4 88.334 -4 143.001zM246 1274l0.000976562 141c0 8 3 15.5 9 22.5s14 10.5 24 10.5h139c9.33301 0 17.166 -3.5 23.499 -10.5s9.5 -14.5 9.5 -22.5v-141c0 -22 -11 -33 -33 -33h-139c-22 0 -33 11 -33 33zM279.001 636.998
c0 -13.333 6.66699 -20.333 20 -21h426c13.333 0 20 7 20 21c0 70.667 -22.5 125.5 -67.5 164.5s-99.5 58.5 -163.5 58.5c-70.667 0 -127.5 -21.5 -170.5 -64.5s-64.5 -95.833 -64.5 -158.5zM596.001 1274l0.000976562 141c0 8 3 15.5 9 22.5s14 10.5 24 10.5h139
c9.33301 0 17.166 -3.5 23.499 -10.5s9.5 -14.5 9.5 -22.5v-141c0 -22 -11 -33 -33 -33h-139c-22 0 -33 11 -33 33z" />
    <glyph glyph-name="igrave" unicode="&#xec;" horiz-adv-x="471" 
d="M-4 1478.5c4 11 13.001 16.499 27.001 16.499h161c15.333 0 26.666 -3.66699 33.999 -11s14 -14.666 20 -21.999l155 -223c5.33301 -6.66699 5.33301 -15.167 0 -25.5s-14.666 -15.5 -27.999 -15.5h-82c-19.333 0 -32.833 2.33301 -40.5 7s-14.834 10.667 -21.501 18
l-221 229c-6.66699 6.66699 -8 15.5 -4 26.5zM143.001 40.999v942c0 10.667 4.16699 20.167 12.5 28.5s17.833 12.5 28.5 12.5h107c10.667 0 20.167 -4.16699 28.5 -12.5s12.5 -17.833 12.5 -28.5v-942c0 -10.667 -4.16699 -20.167 -12.5 -28.5s-17.833 -12.5 -28.5 -12.5
h-107c-10.667 0 -20.167 4.16699 -28.5 12.5s-12.5 17.833 -12.5 28.5z" />
    <glyph glyph-name="iacute" unicode="&#xed;" horiz-adv-x="471" 
d="M100 1239l156.001 222.999c5.33301 6.66699 11.833 13.834 19.5 21.501s18.834 11.5 33.501 11.5h162c13.333 0 22.166 -5.5 26.499 -16.5s3.16602 -19.833 -3.50098 -26.5l-222 -229c-6.66699 -6.66699 -13.667 -12.5 -21 -17.5s-20.666 -7.5 -39.999 -7.5h-82
c-13.333 0 -22.833 5.16699 -28.5 15.5s-5.83398 18.833 -0.500977 25.5zM143.001 40.999v942c0 10.667 4.16699 20.167 12.5 28.5s17.833 12.5 28.5 12.5h107c10.667 0 20.167 -4.16699 28.5 -12.5s12.5 -17.833 12.5 -28.5v-942c0 -10.667 -4.16699 -20.167 -12.5 -28.5
s-17.833 -12.5 -28.5 -12.5h-107c-10.667 0 -20.167 4.16699 -28.5 12.5s-12.5 17.833 -12.5 28.5z" />
    <glyph glyph-name="icircumflex" unicode="&#xee;" horiz-adv-x="471" 
d="M-92 1214.5c-4 11 -2.66895 19.833 3.99805 26.5l221 229c6.66699 6.66699 13.834 12.5 21.501 17.5s21.167 7.5 40.5 7.5h86c18 0 30.667 -2.33301 38 -7s14.333 -10.667 21 -18l221 -229c6.66699 -6.66699 8 -15.5 4 -26.5s-12.667 -16.5 -26 -16.5h-121
c-15.333 0 -28 3.83301 -38 11.5s-18.667 14.834 -26 21.501l-104 100c-9.33301 9.33301 -19 9.33301 -29 0l-102 -100c-6.66699 -6.66699 -15.167 -13.834 -25.5 -21.501s-23.166 -11.5 -38.499 -11.5h-121c-13.333 0 -22 5.5 -26 16.5zM142.998 41v942
c0 10.667 4.16699 20.167 12.5 28.5s17.833 12.5 28.5 12.5h107c10.667 0 20.167 -4.16699 28.5 -12.5s12.5 -17.833 12.5 -28.5v-942c0 -10.667 -4.16699 -20.167 -12.5 -28.5s-17.833 -12.5 -28.5 -12.5h-107c-10.667 0 -20.167 4.16699 -28.5 12.5
s-12.5 17.833 -12.5 28.5z" />
    <glyph glyph-name="idieresis" unicode="&#xef;" horiz-adv-x="471" 
d="M-41 1274l0.000976562 141c0 8 3 15.5 9 22.5s14 10.5 24 10.5h139c9.33301 0 17.166 -3.5 23.499 -10.5s9.5 -14.5 9.5 -22.5v-141c0 -22 -11 -33 -33 -33h-139c-22 0 -33 11 -33 33zM143.001 41v942c0 10.667 4.16699 20.167 12.5 28.5s17.833 12.5 28.5 12.5h107
c10.667 0 20.167 -4.16699 28.5 -12.5s12.5 -17.833 12.5 -28.5v-942c0 -10.667 -4.16699 -20.167 -12.5 -28.5s-17.833 -12.5 -28.5 -12.5h-107c-10.667 0 -20.167 4.16699 -28.5 12.5s-12.5 17.833 -12.5 28.5zM309.001 1274l0.00195312 141c0 8 3.16699 15.5 9.5 22.5
s14.166 10.5 23.499 10.5h139c9.33301 0 17.166 -3.5 23.499 -10.5s9.5 -14.5 9.5 -22.5v-141c0 -22 -11 -33 -33 -33h-139c-22 0 -33 11 -33 33z" />
    <glyph glyph-name="eth" unicode="&#xf0;" horiz-adv-x="1009" 
d="M74 460.5c0 12.333 0.333008 25.665 1 39.998s1.66699 31.833 3 52.5c4 53.333 16.5 103.833 37.5 151.5s49.667 89 86 124s79.5 62.667 129.5 83s105.667 30.5 167 30.5c40.667 0 75 -5.16699 103 -15.5s53 -21.5 75 -33.5c18 -6.66699 25.333 -4 22 8
c-4 39.333 -10.333 76.5 -19 111.5s-20.667 66.833 -36 95.5c-6.66699 12 -13.334 14.667 -20.001 8l-150 -84c-10.667 -6.66699 -22.834 -7.33398 -36.501 -2.00098s-20.5 15.666 -20.5 30.999v63c0 10.667 1 20.834 3 30.501s11 18.834 27 27.501l50 24
c9.33301 5.33301 12.166 11.833 8.49902 19.5s-10.167 12.834 -19.5 15.501c-20.667 5.33301 -44.334 8 -71.001 8h-74c-10.667 0 -20.167 4.16699 -28.5 12.5s-12.5 17.833 -12.5 28.5v103c0 10.667 4.16699 20.167 12.5 28.5s17.833 12.5 28.5 12.5h74
c58.667 0 109.834 -6.5 153.501 -19.5s82.5 -31.833 116.5 -56.5c6.66699 -2.66699 12.667 -2 18 2l146 84c10.667 6.66699 21.834 7 33.501 1s17.5 -16 17.5 -30v-84c0 -13.333 -1.66699 -23.166 -5 -29.499s-10.666 -12.833 -21.999 -19.5l-63 -39
c-10.667 -8 -14 -14.667 -10 -20c23.333 -45.333 43.5 -98.333 60.5 -159s30.833 -128.667 41.5 -204c24.667 -164 26.667 -327.667 6 -491c-6.66699 -53.333 -20.167 -104 -40.5 -152s-47.666 -89.333 -81.999 -124s-75.333 -62.167 -123 -82.5
s-102.167 -30.5 -163.5 -30.5s-117 10.167 -167 30.5s-93.167 47.833 -129.5 82.5s-65 76 -86 124s-33.5 98.667 -37.5 152c-1.33301 20.667 -2.33301 38 -3 52s-1 27.167 -1 39.5zM258 460.499c0 -12.333 0.333008 -25.667 1 -40s1.66699 -31.5 3 -51.5
c4 -54.667 26.667 -102.5 68 -143.5s97.333 -61.5 168 -61.5s126.5 20.5 167.5 61.5s63.5 88.833 67.5 143.5c1.33301 20.667 2.33301 38 3 52s1 27.167 1 39.5s-0.333008 25.666 -1 39.999s-1.66699 31.833 -3 52.5c-4 54.667 -26.5 102.5 -67.5 143.5
s-96.833 61.5 -167.5 61.5s-126.667 -20.5 -168 -61.5s-64 -88.833 -68 -143.5c-1.33301 -20.667 -2.33301 -38.167 -3 -52.5s-1 -27.666 -1 -39.999z" />
    <glyph glyph-name="ntilde" unicode="&#xf1;" 
d="M123 41v942c0 10.667 4 20.167 12 28.5s17.667 12.5 29 12.5h90c9.33301 0 19 -4.66699 29 -14l22 -21.5c8 -7.66699 17.667 -11.5 29 -11.5c15.333 0 28.333 3.33301 39 10l38.5 23.5c15 9 33.5 16.833 55.5 23.5s50.667 10 86 10
c57.333 0 109.833 -8.83301 157.5 -26.5s88.667 -43.167 123 -76.5s61 -74.333 80 -123s28.5 -103 28.5 -163v-614c0 -10.667 -4 -20.167 -12 -28.5s-17.667 -12.5 -29 -12.5h-102c-10.667 0 -20.167 4.16699 -28.5 12.5s-12.5 17.833 -12.5 28.5v614
c0 65.333 -21.5 115.833 -64.5 151.5s-96.833 53.5 -161.5 53.5c-64 0 -117.5 -17.333 -160.5 -52s-64.5 -82 -64.5 -142v-625c0 -10.667 -4 -20.167 -12 -28.5s-17.667 -12.5 -29 -12.5h-102c-10.667 0 -20.167 4.16699 -28.5 12.5s-12.5 17.833 -12.5 28.5zM238 1266
l-0.000976562 81.9971c0 27.333 14 51.5 42 72.5s62.333 31.5 103 31.5c32.667 0 59.667 -2.66699 81 -8s41.166 -11.166 59.499 -17.499s38.5 -12.166 60.5 -17.499s50.667 -8 86 -8c26 0 46.167 4.33301 60.5 13s25.5 18.667 33.5 30c8 10.667 18.5 13.334 31.5 8.00098
s19.5 -17.666 19.5 -36.999v-82c0 -27.333 -14 -51.5 -42 -72.5s-62.333 -31.5 -103 -31.5c-32.667 0 -59.667 2.66699 -81 8s-41.166 11.166 -59.499 17.499s-38.833 12.166 -61.5 17.499s-51 8 -85 8c-23.333 0 -42.166 -3.83301 -56.499 -11.5
s-26.833 -18.167 -37.5 -31.5c-8 -9.33301 -18.5 -11.666 -31.5 -6.99902s-19.5 16.667 -19.5 36z" />
    <glyph glyph-name="ograve" unicode="&#xf2;" horiz-adv-x="1024" 
d="M88 512c0 54.667 1.33301 102.334 4 143.001c4 53.333 16.667 104 38 152s50 89.333 86 124s79 62.167 129 82.5s105.667 30.5 167 30.5s117 -10.167 167 -30.5s93 -47.833 129 -82.5s64.667 -76 86 -124s34 -98.667 38 -152c2.66699 -40.667 4 -88.334 4 -143.001
s-1.33301 -102.334 -4 -143.001c-4 -53.333 -16.667 -104 -38 -152s-50 -89.333 -86 -124s-79 -62.167 -129 -82.5s-105.667 -30.5 -167 -30.5s-117 10.167 -167 30.5s-93 47.833 -129 82.5s-64.667 76 -86 124s-34 98.667 -38 152c-2.66699 40.667 -4 88.334 -4 143.001z
M229.5 1478.5c4.33301 11 13.1699 16.499 26.5029 16.499h162c15.333 0 26.666 -3.66699 33.999 -11s13.666 -14.666 18.999 -21.999l156 -223c5.33301 -6.66699 5.16602 -15.167 -0.500977 -25.5s-15.167 -15.5 -28.5 -15.5h-82c-19.333 0 -32.666 2.33301 -39.999 7
s-14.333 10.667 -21 18l-222 229c-6.66699 6.66699 -7.83398 15.5 -3.50098 26.5zM272.004 511.999c0 -53.333 1.33301 -101 4 -143c4 -54.667 26.667 -102.5 68 -143.5s97.333 -61.5 168 -61.5s126.5 20.5 167.5 61.5s63.833 88.833 68.5 143.5c2.66699 42 4 89.667 4 143
s-1.33301 101 -4 143c-4 54.667 -26.667 102.5 -68 143.5s-97.333 61.5 -168 61.5s-126.667 -20.5 -168 -61.5s-64 -88.833 -68 -143.5c-2.66699 -42 -4 -89.667 -4 -143z" />
    <glyph glyph-name="oacute" unicode="&#xf3;" horiz-adv-x="1024" 
d="M88 512c0 54.667 1.33301 102.334 4 143.001c4 53.333 16.667 104 38 152s50 89.333 86 124s79 62.167 129 82.5s105.667 30.5 167 30.5s117 -10.167 167 -30.5s93 -47.833 129 -82.5s64.667 -76 86 -124s34 -98.667 38 -152c2.66699 -40.667 4 -88.334 4 -143.001
s-1.33301 -102.334 -4 -143.001c-4 -53.333 -16.667 -104 -38 -152s-50 -89.333 -86 -124s-79 -62.167 -129 -82.5s-105.667 -30.5 -167 -30.5s-117 10.167 -167 30.5s-93 47.833 -129 82.5s-64.667 76 -86 124s-34 98.667 -38 152c-2.66699 40.667 -4 88.334 -4 143.001z
M272 512c0 -53.333 1.33301 -101 4 -143c4 -54.667 26.667 -102.5 68 -143.5s97.333 -61.5 168 -61.5s126.5 20.5 167.5 61.5s63.833 88.833 68.5 143.5c2.66699 42 4 89.667 4 143s-1.33301 101 -4 143c-4 54.667 -26.667 102.5 -68 143.5s-97.333 61.5 -168 61.5
s-126.667 -20.5 -168 -61.5s-64 -88.833 -68 -143.5c-2.66699 -42 -4 -89.667 -4 -143zM395 1239l156 222.999c5.33301 6.66699 11.833 13.834 19.5 21.501s18.834 11.5 33.501 11.5h162c13.333 0 22.166 -5.5 26.499 -16.5s2.83301 -19.833 -4.5 -26.5l-221 -229
c-6.66699 -6.66699 -13.667 -12.5 -21 -17.5s-20.666 -7.5 -39.999 -7.5h-82c-13.333 0 -22.833 5.16699 -28.5 15.5s-5.83398 18.833 -0.500977 25.5z" />
    <glyph glyph-name="ocircumflex" unicode="&#xf4;" horiz-adv-x="1024" 
d="M88 512c0 54.667 1.33301 102.334 4 143.001c4 53.333 16.667 104 38 152s50 89.333 86 124s79 62.167 129 82.5s105.667 30.5 167 30.5s117 -10.167 167 -30.5s93 -47.833 129 -82.5s64.667 -76 86 -124s34 -98.667 38 -152c2.66699 -40.667 4 -88.334 4 -143.001
s-1.33301 -102.334 -4 -143.001c-4 -53.333 -16.667 -104 -38 -152s-50 -89.333 -86 -124s-79 -62.167 -129 -82.5s-105.667 -30.5 -167 -30.5s-117 10.167 -167 30.5s-93 47.833 -129 82.5s-64.667 76 -86 124s-34 98.667 -38 152c-2.66699 40.667 -4 88.334 -4 143.001z
M184.5 1214.5c-4.33301 11 -3.16797 19.833 3.49902 26.5l222 229c6.66699 6.66699 13.667 12.5 21 17.5s20.666 7.5 39.999 7.5h86c18 0 30.667 -2.33301 38 -7s14.333 -10.667 21 -18l222 -229c6.66699 -6.66699 8 -15.5 4 -26.5s-13 -16.5 -27 -16.5h-121
c-15.333 0 -28 3.83301 -38 11.5s-18.333 14.834 -25 21.501l-105 100c-9.33301 9.33301 -18.666 9.33301 -27.999 0l-103 -100c-6.66699 -6.66699 -15.167 -13.834 -25.5 -21.501s-22.833 -11.5 -37.5 -11.5h-121c-13.333 0 -22.166 5.5 -26.499 16.5zM271.998 512
c0 -53.333 1.33301 -101 4 -143c4 -54.667 26.667 -102.5 68 -143.5s97.333 -61.5 168 -61.5s126.5 20.5 167.5 61.5s63.833 88.833 68.5 143.5c2.66699 42 4 89.667 4 143s-1.33301 101 -4 143c-4 54.667 -26.667 102.5 -68 143.5s-97.333 61.5 -168 61.5
s-126.667 -20.5 -168 -61.5s-64 -88.833 -68 -143.5c-2.66699 -42 -4 -89.667 -4 -143z" />
    <glyph glyph-name="otilde" unicode="&#xf5;" horiz-adv-x="1024" 
d="M88 512c0 54.667 1.33301 102.334 4 143.001c4 53.333 16.667 104 38 152s50 89.333 86 124s79 62.167 129 82.5s105.667 30.5 167 30.5s117 -10.167 167 -30.5s93 -47.833 129 -82.5s64.667 -76 86 -124s34 -98.667 38 -152c2.66699 -40.667 4 -88.334 4 -143.001
s-1.33301 -102.334 -4 -143.001c-4 -53.333 -16.667 -104 -38 -152s-50 -89.333 -86 -124s-79 -62.167 -129 -82.5s-105.667 -30.5 -167 -30.5s-117 10.167 -167 30.5s-93 47.833 -129 82.5s-64.667 76 -86 124s-34 98.667 -38 152c-2.66699 40.667 -4 88.334 -4 143.001z
M223 1266l-0.00292969 81.9971c0 27.333 14 51.5 42 72.5s62.667 31.5 104 31.5c32.667 0 59.5 -2.66699 80.5 -8s40.833 -11.166 59.5 -17.499s38.834 -12.166 60.501 -17.499s50.167 -8 85.5 -8c26 0 46.167 4.33301 60.5 13s25.833 18.667 34.5 30
c8 10.667 18.5 13.334 31.5 8.00098s19.5 -17.666 19.5 -36.999v-82c0 -27.333 -14 -51.5 -42 -72.5s-62.667 -31.5 -104 -31.5c-32.667 0 -59.5 2.66699 -80.5 8s-40.833 11.166 -59.5 17.499s-39.167 12.166 -61.5 17.499s-50.5 8 -84.5 8
c-23.333 0 -42.166 -3.83301 -56.499 -11.5s-27.166 -18.167 -38.499 -31.5c-8 -9.33301 -18.5 -11.666 -31.5 -6.99902s-19.5 16.667 -19.5 36zM271.997 511.997c0 -53.333 1.33301 -101 4 -143c4 -54.667 26.667 -102.5 68 -143.5s97.333 -61.5 168 -61.5
s126.5 20.5 167.5 61.5s63.833 88.833 68.5 143.5c2.66699 42 4 89.667 4 143s-1.33301 101 -4 143c-4 54.667 -26.667 102.5 -68 143.5s-97.333 61.5 -168 61.5s-126.667 -20.5 -168 -61.5s-64 -88.833 -68 -143.5c-2.66699 -42 -4 -89.667 -4 -143z" />
    <glyph glyph-name="odieresis" unicode="&#xf6;" horiz-adv-x="1024" 
d="M88 512c0 54.667 1.33301 102.334 4 143.001c4 53.333 16.667 104 38 152s50 89.333 86 124s79 62.167 129 82.5s105.667 30.5 167 30.5s117 -10.167 167 -30.5s93 -47.833 129 -82.5s64.667 -76 86 -124s34 -98.667 38 -152c2.66699 -40.667 4 -88.334 4 -143.001
s-1.33301 -102.334 -4 -143.001c-4 -53.333 -16.667 -104 -38 -152s-50 -89.333 -86 -124s-79 -62.167 -129 -82.5s-105.667 -30.5 -167 -30.5s-117 10.167 -167 30.5s-93 47.833 -129 82.5s-64.667 76 -86 124s-34 98.667 -38 152c-2.66699 40.667 -4 88.334 -4 143.001z
M233 1274l0.000976562 141c0 8 3.16699 15.5 9.5 22.5s14.166 10.5 23.499 10.5h140c9.33301 0 17 -3.5 23 -10.5s9 -14.5 9 -22.5v-141c0 -22 -10.667 -33 -32 -33h-140c-22 0 -33 11 -33 33zM272.001 512c0 -53.333 1.33301 -101 4 -143
c4 -54.667 26.667 -102.5 68 -143.5s97.333 -61.5 168 -61.5s126.5 20.5 167.5 61.5s63.833 88.833 68.5 143.5c2.66699 42 4 89.667 4 143s-1.33301 101 -4 143c-4 54.667 -26.667 102.5 -68 143.5s-97.333 61.5 -168 61.5s-126.667 -20.5 -168 -61.5
s-64 -88.833 -68 -143.5c-2.66699 -42 -4 -89.667 -4 -143zM584.001 1274v141c0 8 3 15.5 9 22.5s13.667 10.5 23 10.5h140c9.33301 0 17 -3.5 23 -10.5s9 -14.5 9 -22.5v-141c0 -22 -10.667 -33 -32 -33h-140c-22 0 -32.667 11 -32 33z" />
    <glyph glyph-name="divide" unicode="&#xf7;" horiz-adv-x="1064" 
d="M102 455v112c0 10.667 4.16699 20.167 12.5 28.5s17.833 12.5 28.5 12.5h779c10.667 0 20.167 -4 28.5 -12s12.5 -17.667 12.5 -29v-112c0 -10.667 -4.16699 -20.167 -12.5 -28.5s-17.833 -12.5 -28.5 -12.5h-779c-10.667 0 -20.167 4 -28.5 12s-12.5 17.667 -12.5 29z
M420 41v170c0 10.667 4 20.167 12 28.5s17.667 12.5 29 12.5h170c10.667 0 20.167 -4.16699 28.5 -12.5s12.5 -17.833 12.5 -28.5v-170c0 -10.667 -4.16699 -20.167 -12.5 -28.5s-17.833 -12.5 -28.5 -12.5h-170c-10.667 0 -20.167 4.16699 -28.5 12.5
s-12.5 17.833 -12.5 28.5zM420 793v170c0 10.667 4 20.167 12 28.5s17.667 12.5 29 12.5h170c10.667 0 20.167 -4.16699 28.5 -12.5s12.5 -17.833 12.5 -28.5v-170c0 -10.667 -4.16699 -20.167 -12.5 -28.5s-17.833 -12.5 -28.5 -12.5h-170c-10.667 0 -20.167 4 -28.5 12
s-12.5 17.667 -12.5 29z" />
    <glyph glyph-name="oslash" unicode="&#xf8;" horiz-adv-x="1024" 
d="M28.5 22.5c-8.33301 15 -6.83301 29.502 4.5 43.502l100 118c5.33301 6.66699 7.33301 11.5 6 14.5s-2.66602 5.83301 -3.99902 8.5c-24.667 49.333 -39 103.333 -43 162c-2.66699 40.667 -4 88.334 -4 143.001s1.33301 102.334 4 143.001c4 53.333 16.667 104 38 152
s50 89.333 86 124s79 62.167 129 82.5s105.667 30.5 167 30.5c96.667 0 179.334 -24.333 248.001 -73c2.66699 -1.33301 5 -2.66602 7 -3.99902s5.66699 0.666992 11 6l19 20c16.667 20.667 33 31 49 31h96c13.333 0 24.166 -7.16699 32.499 -21.5
s7.16602 -27.5 -3.50098 -39.5l-86 -105c-5.33301 -6.66699 -7.33301 -12.334 -6 -17.001s2.66602 -8.66699 3.99902 -12c10.667 -27.333 20.834 -55.333 30.501 -84s15.834 -58.667 18.501 -90c2.66699 -40.667 4 -88.334 4 -143.001s-1.33301 -102.334 -4 -143.001
c-4 -53.333 -16.667 -104 -38 -152s-50 -89.333 -86 -124s-79 -62.167 -129 -82.5s-105.667 -30.5 -167 -30.5c-52 0 -99.833 7.16699 -143.5 21.5s-82.5 34.166 -116.5 59.499c-2.66699 1.33301 -5.33398 3.16602 -8.00098 5.49902s-6.33398 -0.166992 -11.001 -7.5
l-22 -28c-6.66699 -9.33301 -13.5 -16.833 -20.5 -22.5s-17.167 -8.5 -30.5 -8.5h-99c-13.333 0 -24.166 7.5 -32.499 22.5zM272 520.002c0 -50.667 1.33398 -97 4.00098 -139c0 -2.66699 1.5 -5 4.5 -7s6.5 -1 10.5 3l352 430c2.66699 4 3.66699 8 3 12
s-2.33398 6.66699 -5.00098 8c-39.333 22 -82.333 33 -129 33c-70.667 0 -126.5 -20.5 -167.5 -61.5s-63.833 -88.833 -68.5 -143.5c-2.66699 -39.333 -4 -84.333 -4 -135zM366.001 213.002c0.666992 -4 2.33301 -6.66699 5 -8c38 -27.333 85 -41 141 -41
c70.667 0 126.5 20.5 167.5 61.5s63.833 88.833 68.5 143.5c2.66699 42 4.66699 89.667 6 143s-0.666992 101 -6 143c0 4 -1.83301 8.5 -5.5 13.5s-8.16699 4.16699 -13.5 -2.5l-360 -441c-2.66699 -4 -3.66699 -8 -3 -12z" />
    <glyph glyph-name="ugrave" unicode="&#xf9;" 
d="M113 369l-0.000976562 614c0 10.667 4 20.167 12 28.5s17.667 12.5 29 12.5h102c10.667 0 20.167 -4.16699 28.5 -12.5s12.5 -17.833 12.5 -28.5v-614c0 -60 19.833 -109.167 59.5 -147.5s94.834 -57.5 165.501 -57.5c64 0 117.667 17.333 161 52s65 82 65 142v625
c0 10.667 4 20.167 12 28.5s17.333 12.5 28 12.5h103c10.667 0 20.167 -4.16699 28.5 -12.5s12.5 -17.833 12.5 -28.5v-942c0 -10.667 -4.16699 -20.167 -12.5 -28.5s-17.833 -12.5 -28.5 -12.5h-90c-9.33301 0 -19 4.66699 -29 14l-22.5 21.5
c-8.33301 7.66699 -17.833 11.5 -28.5 11.5c-15.333 0 -28 -3.33301 -38 -10l-36.5 -23.5c-14.333 -9 -32.5 -16.833 -54.5 -23.5s-52 -10 -90 -10c-57.333 0 -110 9.5 -158 28.5s-89 45.833 -123 80.5s-60.5 76 -79.5 124s-28.5 100 -28.5 156zM265.999 1478.5
c4 11 13.002 16.499 27.002 16.499h162c15.333 0 26.666 -3.66699 33.999 -11s13.666 -14.666 18.999 -21.999l156 -223c5.33301 -6.66699 5.16602 -15.167 -0.500977 -25.5s-15.167 -15.5 -28.5 -15.5h-82c-19.333 0 -32.666 2.33301 -39.999 7s-14.333 10.667 -21 18
l-222 229c-6.66699 6.66699 -8 15.5 -4 26.5z" />
    <glyph glyph-name="uacute" unicode="&#xfa;" 
d="M113 369l-0.000976562 614c0 10.667 4 20.167 12 28.5s17.667 12.5 29 12.5h102c10.667 0 20.167 -4.16699 28.5 -12.5s12.5 -17.833 12.5 -28.5v-614c0 -60 19.833 -109.167 59.5 -147.5s94.834 -57.5 165.501 -57.5c64 0 117.667 17.333 161 52s65 82 65 142v625
c0 10.667 4 20.167 12 28.5s17.333 12.5 28 12.5h103c10.667 0 20.167 -4.16699 28.5 -12.5s12.5 -17.833 12.5 -28.5v-942c0 -10.667 -4.16699 -20.167 -12.5 -28.5s-17.833 -12.5 -28.5 -12.5h-90c-9.33301 0 -19 4.66699 -29 14l-22.5 21.5
c-8.33301 7.66699 -17.833 11.5 -28.5 11.5c-15.333 0 -28 -3.33301 -38 -10l-36.5 -23.5c-14.333 -9 -32.5 -16.833 -54.5 -23.5s-52 -10 -90 -10c-57.333 0 -110 9.5 -158 28.5s-89 45.833 -123 80.5s-60.5 76 -79.5 124s-28.5 100 -28.5 156zM390.999 1239
l156.003 222.999c5.33301 6.66699 11.833 13.834 19.5 21.501s18.834 11.5 33.501 11.5h162c13.333 0 22.166 -5.5 26.499 -16.5s2.83301 -19.833 -4.5 -26.5l-221 -229c-6.66699 -6.66699 -13.834 -12.5 -21.501 -17.5s-20.834 -7.5 -39.501 -7.5h-82
c-13.333 0 -22.833 5.16699 -28.5 15.5s-5.83398 18.833 -0.500977 25.5z" />
    <glyph glyph-name="ucircumflex" unicode="&#xfb;" 
d="M113 369l-0.000976562 614c0 10.667 4 20.167 12 28.5s17.667 12.5 29 12.5h102c10.667 0 20.167 -4.16699 28.5 -12.5s12.5 -17.833 12.5 -28.5v-614c0 -60 19.833 -109.167 59.5 -147.5s94.834 -57.5 165.501 -57.5c64 0 117.667 17.333 161 52s65 82 65 142v625
c0 10.667 4 20.167 12 28.5s17.333 12.5 28 12.5h103c10.667 0 20.167 -4.16699 28.5 -12.5s12.5 -17.833 12.5 -28.5v-942c0 -10.667 -4.16699 -20.167 -12.5 -28.5s-17.833 -12.5 -28.5 -12.5h-90c-9.33301 0 -19 4.66699 -29 14l-22.5 21.5
c-8.33301 7.66699 -17.833 11.5 -28.5 11.5c-15.333 0 -28 -3.33301 -38 -10l-36.5 -23.5c-14.333 -9 -32.5 -16.833 -54.5 -23.5s-52 -10 -90 -10c-57.333 0 -110 9.5 -158 28.5s-89 45.833 -123 80.5s-60.5 76 -79.5 124s-28.5 100 -28.5 156zM198.999 1214.5
c-4 11 -2.67188 19.833 3.99512 26.5l221 229c6.66699 6.66699 13.834 12.5 21.501 17.5s20.834 7.5 39.501 7.5h86c18 0 30.833 -2.33301 38.5 -7s14.834 -10.667 21.501 -18l221 -229c6.66699 -6.66699 8 -15.5 4 -26.5s-13 -16.5 -27 -16.5h-120
c-15.333 0 -28.166 3.83301 -38.499 11.5s-18.833 14.834 -25.5 21.501l-104 100c-9.33301 9.33301 -19 9.33301 -29 0l-102 -100c-6.66699 -6.66699 -15.167 -13.834 -25.5 -21.501s-23.166 -11.5 -38.499 -11.5h-121c-13.333 0 -22 5.5 -26 16.5z" />
    <glyph glyph-name="udieresis" unicode="&#xfc;" 
d="M113 369l-0.000976562 614c0 10.667 4 20.167 12 28.5s17.667 12.5 29 12.5h102c10.667 0 20.167 -4.16699 28.5 -12.5s12.5 -17.833 12.5 -28.5v-614c0 -60 19.833 -109.167 59.5 -147.5s94.834 -57.5 165.501 -57.5c64 0 117.667 17.333 161 52s65 82 65 142v625
c0 10.667 4 20.167 12 28.5s17.333 12.5 28 12.5h103c10.667 0 20.167 -4.16699 28.5 -12.5s12.5 -17.833 12.5 -28.5v-942c0 -10.667 -4.16699 -20.167 -12.5 -28.5s-17.833 -12.5 -28.5 -12.5h-90c-9.33301 0 -19 4.66699 -29 14l-22.5 21.5
c-8.33301 7.66699 -17.833 11.5 -28.5 11.5c-15.333 0 -28 -3.33301 -38 -10l-36.5 -23.5c-14.333 -9 -32.5 -16.833 -54.5 -23.5s-52 -10 -90 -10c-57.333 0 -110 9.5 -158 28.5s-89 45.833 -123 80.5s-60.5 76 -79.5 124s-28.5 100 -28.5 156zM249.999 1274
l0.000976562 141c0 8 3 15.5 9 22.5s14 10.5 24 10.5h139c9.33301 0 17.166 -3.5 23.499 -10.5s9.5 -14.5 9.5 -22.5v-141c0 -22 -11 -33 -33 -33h-139c-22 0 -33 11 -33 33zM600 1274l0.000976562 141c0 8 3 15.5 9 22.5s14 10.5 24 10.5h139
c9.33301 0 17.166 -3.5 23.499 -10.5s9.5 -14.5 9.5 -22.5v-141c0 -22 -11 -33 -33 -33h-139c-22 0 -33 11 -33 33z" />
    <glyph glyph-name="yacute" unicode="&#xfd;" horiz-adv-x="946" 
d="M14 977c-4 10.667 -2.49902 21.168 4.50098 31.501s18.5 15.5 34.5 15.5h125c19.333 0 32.333 -10.333 39 -31l252 -665c5.33301 -13.333 10.666 -13.333 15.999 0l238 665c6.66699 20.667 19.667 31 39 31h121c16.667 0 28.334 -5.16699 35.001 -15.5s8 -20.833 4 -31.5
l-521 -1356c-6.66699 -20.667 -19.667 -31 -39 -31h-110c-16.667 0 -28.334 5.16699 -35.001 15.5s-8 21.166 -4 32.499l152 417c4 10.667 4.66699 19.667 2 27zM336.001 1239l156.004 222.999c5.33301 6.66699 11.666 13.834 18.999 21.501s18.666 11.5 33.999 11.5h162
c13.333 0 22 -5.5 26 -16.5s2.66699 -19.833 -4 -26.5l-221 -229c-6.66699 -6.66699 -13.834 -12.5 -21.501 -17.5s-21.167 -7.5 -40.5 -7.5h-81c-13.333 0 -22.833 5.16699 -28.5 15.5s-5.83398 18.833 -0.500977 25.5z" />
    <glyph glyph-name="thorn" unicode="&#xfe;" horiz-adv-x="1015" 
d="M133 -369l-0.00292969 1776c0 10.667 4.16699 20.167 12.5 28.5s17.833 12.5 28.5 12.5h102c10.667 0 20.167 -4.16699 28.5 -12.5s12.5 -17.833 12.5 -28.5v-371c0 -9.33301 3.83301 -18.833 11.5 -28.5s18.834 -14.5 33.501 -14.5c9.33301 0 20.333 2.83301 33 8.5
s26.834 11.5 42.501 17.5s33 11.667 52 17s40.167 8 63.5 8c53.333 0 102.833 -10.167 148.5 -30.5s85.5 -47.833 119.5 -82.5s61.667 -76 83 -124s34 -98.667 38 -152c2.66699 -40.667 4 -88.334 4 -143.001s-1.33301 -102.334 -4 -143.001
c-4 -53.333 -16.667 -104 -38 -152s-49 -89.333 -83 -124s-73.833 -62.167 -119.5 -82.5s-95.167 -30.5 -148.5 -30.5c-23.333 0 -44.5 2.66699 -63.5 8s-36.333 11 -52 17s-29.667 11.833 -42 17.5s-23.5 8.5 -33.5 8.5c-15.333 0 -26.666 -4.83301 -33.999 -14.5
s-11 -19.167 -11 -28.5v-357c0 -10.667 -4 -20.167 -12 -28.5s-17.667 -12.5 -29 -12.5h-102c-10.667 0 -20.167 4.16699 -28.5 12.5s-12.5 17.833 -12.5 28.5zM292.997 512.002c0 -53.333 1.33301 -101 4 -143c4 -54.667 26.5 -102.5 67.5 -143.5s96.833 -61.5 167.5 -61.5
s126.667 20.5 168 61.5s64 88.833 68 143.5c2.66699 42 4 89.667 4 143s-1.33301 101 -4 143c-4 54.667 -26.5 102.5 -67.5 143.5s-97.167 61.5 -168.5 61.5c-70.667 0 -126.5 -20.5 -167.5 -61.5s-63.5 -88.833 -67.5 -143.5c-2.66699 -42 -4 -89.667 -4 -143z" />
    <glyph glyph-name="ydieresis" unicode="&#xff;" horiz-adv-x="946" 
d="M14 977c-4 10.667 -2.49902 21.168 4.50098 31.501s18.5 15.5 34.5 15.5h125c19.333 0 32.333 -10.333 39 -31l252 -665c5.33301 -13.333 10.666 -13.333 15.999 0l238 665c6.66699 20.667 19.667 31 39 31h121c16.667 0 28.334 -5.16699 35.001 -15.5s8 -20.833 4 -31.5
l-521 -1356c-6.66699 -20.667 -19.667 -31 -39 -31h-110c-16.667 0 -28.334 5.16699 -35.001 15.5s-8 21.166 -4 32.499l152 417c4 10.667 4.66699 19.667 2 27zM195.001 1274v141c0 8 3 15.5 9 22.5s13.667 10.5 23 10.5h140c9.33301 0 17 -3.5 23 -10.5s9 -14.5 9 -22.5
v-141c0 -22 -10.667 -33 -32 -33h-140c-22 0 -32.667 11 -32 33zM545.001 1274l0.000976562 141c0 8 3 15.5 9 22.5s14 10.5 24 10.5h139c9.33301 0 17.166 -3.5 23.499 -10.5s9.5 -14.5 9.5 -22.5v-141c0 -22 -11 -33 -33 -33h-139c-22 0 -33 11 -33 33z" />
    <glyph glyph-name="Amacron" unicode="&#x100;" horiz-adv-x="999" 
d="M8 41l381.002 1362c4 20.667 17 31 39 31h143c22 0 35 -10.333 39 -31l381 -1362c2.66699 -9.33301 0.666992 -18.5 -6 -27.5s-18.334 -13.5 -35.001 -13.5h-112c-19.333 -0 -32.333 10.333 -39 31l-90 313c-4 19.333 -17 29 -39 29h-340
c-19.333 0 -32.333 -9.66699 -39 -29l-90 -313c-6.66699 -20.667 -19.667 -31 -39 -31h-113c-16.667 0 -28.334 4.5 -35.001 13.5s-8.66699 18.167 -6 27.5zM211.002 1599v78c0 10.667 4.16699 20.167 12.5 28.5s17.833 12.5 28.5 12.5h496c10.667 0 20 -4 28 -12
s12 -17.667 12 -29v-78c0 -10.667 -4 -20 -12 -28s-17.333 -12 -28 -12h-496c-10.667 0 -20.167 4 -28.5 12s-12.5 17.333 -12.5 28zM356.002 586c-4 -15.333 1.66895 -23 17.002 -23h254c15.333 0 20.666 7.66699 15.999 23l-133 571c-2.66699 8 -5.33398 12 -8.00098 12
h-4c-4 0 -7 -4 -9 -12z" />
    <glyph glyph-name="amacron" unicode="&#x101;" horiz-adv-x="997" 
d="M88 307c0 42 7.50293 81.833 22.5029 119.5s36.833 70.834 65.5 99.501s64.167 51.167 106.5 67.5s90.166 24.5 143.499 24.5h250c13.333 0 20 7 20 21v78c0 56 -17.333 97.333 -52 124s-80.667 40 -138 40c-18 0 -37.833 -2.16699 -59.5 -6.5s-42.5 -11.5 -62.5 -21.5
s-36.5 -23.333 -49.5 -40s-19.5 -37 -19.5 -61c0 -18 -5.33301 -28.333 -16 -31s-21 -4 -31 -4h-92c-27.333 0 -41 13.667 -41 41c0 48 11.333 89.667 34 125s51.667 65 87 89s74.833 42 118.5 54s87.5 18 131.5 18c116 0 207.5 -25.833 274.5 -77.5
s100.5 -134.834 100.5 -249.501v-676c0 -10.667 -4.16699 -20.167 -12.5 -28.5s-17.833 -12.5 -28.5 -12.5h-70c-10.667 0 -20.334 4.66699 -29.001 14c-6.66699 8 -12.334 17.167 -17.001 27.5s-12.667 15.5 -24 15.5c-9.33301 0 -19.833 -4 -31.5 -12
s-26.667 -16.833 -45 -26.5s-40.5 -18.5 -66.5 -26.5s-58 -12 -96 -12c-62.667 0 -117.667 8.83301 -165 26.5s-86.333 41.5 -117 71.5s-53.5 64.833 -68.5 104.5s-22.5 81.167 -22.5 124.5zM209.003 1303v77c0 10.667 4 20.167 12 28.5s17.667 12.5 29 12.5h495
c10.667 0 20.167 -4 28.5 -12s12.5 -17.667 12.5 -29v-77c0 -10.667 -4 -20.167 -12 -28.5s-17.667 -12.5 -29 -12.5h-495c-10.667 0 -20.167 4 -28.5 12s-12.5 17.667 -12.5 29zM272.003 309c0 -50.667 15.5 -89.833 46.5 -117.5s76.5 -41.5 136.5 -41.5
c94 0 160.5 18.333 199.5 55s58.5 90 58.5 160v65c0 13.333 -7 20.333 -21 21h-266c-52 0 -90.667 -12.667 -116 -38s-38 -60 -38 -104z" />
    </font>
</defs>
</svg>
